<svg xmlns="http://www.w3.org/2000/svg" width="624.4" height="163.875"><path d="M354.705 86.174c0-.616.285-.95.95-.95h17.477c.57 0 .903.334.903.903v2.945c0 .57-.239.855-.95.855H360.12v8.169h11.492c.618 0 .95.284.95.854v2.944c0 .57-.237.856-.95.856H360.12v9.356h13.299c.568 0 .853.286.853.902v2.898c0 .616-.237.854-.902.854h-17.715c-.665 0-.95-.284-.95-.854V86.174M398.214 116.76h-3.374c-.711 0-.901-.332-.901-.902v-1.472l-.095-.048c-1.853 1.282-5.083 2.85-7.979 2.85-6.411 0-7.029-3.8-7.029-8.787V94.438c0-.57.236-.95.901-.95h3.468c.617 0 .855.333.855.95v13.346c0 2.85.569 4.655 3.467 4.655 2.042 0 5.175-1.52 6.412-2.138V94.438c0-.57.19-.95.901-.95h3.374c.663 0 .9.333.9.95v21.42c0 .618-.237.902-.9.902M410.279 115.858c0 .57-.238.902-.903.902h-3.419c-.663 0-.902-.284-.902-.902v-21.42c0-.617.239-.95.902-.95h3.372c.712 0 .95.38.95.95v2.09l.095.095c1.426-1.33 4.797-2.944 7.028-3.372.618-.142 1.045 0 1.14.808l.333 3.182c.049.664.095.95-.903 1.139-2.66.523-6.03 1.472-7.693 2.185v15.293M431.226 97.573c-4.037 0-4.939 2.565-4.939 7.504 0 5.034.902 7.504 4.893 7.504 4.321 0 5.175-2.422 5.175-7.504 0-5.034-.806-7.504-5.129-7.504zm-.046 19.567c-9.548 0-10.164-6.981-10.164-12.395 0-4.464.996-11.731 10.164-11.731 9.212 0 10.495 6.127 10.495 11.73 0 5.415-.665 12.396-10.495 12.396M457.777 97.857c-1.947 0-4.938 1.379-6.363 2.138v11.874c2.137.616 3.846.807 5.461.807 3.42 0 4.607-1.757 4.607-7.742 0-6.031-1.187-7.077-3.705-7.077zm-.38 19.33c-1.567 0-3.752-.284-5.936-1.044l-.047.047v8.36c0 .522-.143.949-.903.949h-3.372c-.759 0-.902-.333-.902-.95V94.44c0-.618.238-.95.902-.95h3.372c.665 0 .855.38.855.95v1.424l.143.095c1.71-1.188 4.748-2.85 7.503-2.85 6.223 0 7.837 4.702 7.837 11.874 0 7.741-1.948 12.205-9.452 12.205M476.019 102.987h9.403c0-2.897-.76-5.7-4.702-5.7-3.514 0-4.464 2.138-4.701 5.7zm-.048 3.562c.143 4.798 1.853 6.127 5.746 6.127 1.71 0 4.37-.332 6.175-.523.854-.095 1.14-.095 1.282.808l.286 1.567c.141.713.047 1.092-.809 1.473-1.851.711-5.319 1.186-7.646 1.186-9.071 0-10.4-5.793-10.4-11.967 0-4.607.854-12.206 10.115-12.206 8.501 0 10.021 5.509 10.164 10.638.047 1.71-.427 2.897-2.328 2.897h-12.585M509.6 106.17h-5.795c-2.374 0-3.894.854-3.894 3.989 0 2.09.711 2.755 2.944 2.755 2.042 0 4.94-1.188 6.745-2.233v-4.512zm.285 7.883c-2.375 1.805-5.558 3.087-8.74 3.087-5.034 0-6.506-2.754-6.506-6.743-.048-5.557 2.945-7.932 8.928-7.932h6.08v-1.235c0-2.85-1.046-3.847-4.94-3.847-1.567 0-4.56.238-6.458.427-.95.143-1.188.095-1.33-.569l-.428-1.758c-.095-.617.048-.997 1.093-1.424 2.041-.713 5.793-1.045 8.026-1.045 8.216 0 9.214 3.371 9.214 8.692v9.166c0 1.947.237 1.994 1.71 2.183.711.048.902.191.902.713v1.995c0 .522-.332.854-1.141.997-.759.143-1.519.238-2.231.238-2.233 0-3.609-.665-4.084-2.897l-.095-.048M540.045 116.76h-3.419c-.617 0-.902-.284-.902-.902l.047-13.346c0-2.801-.665-4.655-3.42-4.655-1.899 0-5.224 1.52-6.506 2.138v15.863c0 .57-.236.902-.903.902h-3.37c-.666 0-.905-.284-.905-.902v-21.42c0-.617.24-.95.904-.95h3.371c.667 0 .903.333.903.95v1.425c.047 0 .095.048.142.048 1.758-1.235 5.083-2.85 7.98-2.85 6.41 0 6.98 4.227 6.98 9.024v13.773c0 .57-.188.902-.902.902M367.451 134.893c2.329 0 6.175.332 8.691 1.377.76.332 1.045.712.904 1.471l-.427 1.948c-.144.57-.38.807-1.235.712-2.327-.283-5.178-.617-7.647-.617-6.46 0-7.41 5.225-7.41 11.399 0 6.22 1.188 11.113 7.41 11.113 2.754 0 5.082-.286 7.647-.617.902-.096 1.091.142 1.281.76l.381 1.805c.189.758-.049 1.187-.807 1.519-2.328.997-6.459 1.424-8.788 1.424-10.59 0-12.822-7.836-12.822-15.91 0-8.12 1.995-16.384 12.822-16.384M390.679 147.574c-4.035 0-4.939 2.564-4.939 7.504 0 5.033.904 7.502 4.892 7.502 4.322 0 5.177-2.421 5.177-7.502 0-5.036-.808-7.504-5.13-7.504zm-.047 19.566c-9.546 0-10.163-6.981-10.163-12.395 0-4.464.997-11.731 10.163-11.731 9.214 0 10.497 6.127 10.497 11.731 0 5.414-.665 12.395-10.497 12.395M438.936 166.76h-3.42c-.664 0-.901-.284-.901-.901V152.37c0-3.515-.855-4.513-3.23-4.513-1.758 0-4.608 1.38-6.08 2.138 0 .475.049 1.33.049 2.422v13.442c0 .57-.19.9-.903.9h-3.467c-.618 0-.808-.283-.808-.9v-13.727c0-2.896-.76-4.275-3.135-4.275-1.661 0-4.321 1.188-6.125 2.138v15.864c0 .57-.237.9-.904.9h-3.417c-.618 0-.856-.283-.856-.9v-21.42c0-.618.238-.95.856-.95h3.371c.713 0 .95.38.95.95v1.376l.046.047c1.853-1.281 4.465-2.706 7.078-2.801 2.754 0 5.034.57 6.506 3.324 2.374-1.756 5.32-3.324 8.36-3.324 6.268 0 6.885 4.085 6.885 8.834v13.964c0 .57-.19.9-.855.9M478.076 166.76h-3.42c-.664 0-.902-.284-.902-.901V152.37c0-3.515-.854-4.513-3.23-4.513-1.757 0-4.605 1.38-6.079 2.138 0 .475.047 1.33.047 2.422v13.442c0 .57-.188.9-.902.9h-3.466c-.618 0-.808-.283-.808-.9v-13.727c0-2.896-.76-4.275-3.134-4.275-1.662 0-4.322 1.188-6.127 2.138v15.864c0 .57-.238.9-.901.9h-3.422c-.616 0-.853-.283-.853-.9v-21.42c0-.618.237-.95.853-.95h3.373c.712 0 .95.38.95.95v1.376l.047.047c1.853-1.281 4.465-2.706 7.077-2.801 2.755 0 5.035.57 6.507 3.324 2.374-1.756 5.318-3.324 8.358-3.324 6.27 0 6.887 4.085 6.887 8.834v13.964c0 .57-.191.9-.855.9M489.906 165.859c0 .52-.189.9-.854.9h-3.372c-.665 0-.95-.283-.95-.9V144.39c0-.666.285-.902.95-.902h3.372c.665 0 .854.38.854.902v21.468zm-2.517-25.79c-2.469 0-2.802-1.378-2.802-2.754 0-1.52.523-2.708 2.802-2.708 2.328 0 2.803 1.093 2.803 2.708 0 1.471-.427 2.755-2.803 2.755M503.586 167.14c-2.375 0-5.556-.332-7.361-1.045-.95-.38-1.14-.807-.998-1.568l.333-1.566c.142-.76.474-.807 1.235-.712 2.09.331 5.129.57 6.744.57 3.04 0 4.273-.81 4.273-2.708 0-2.185-.806-2.66-3.798-3.087-4.654-.664-8.739-1.663-8.739-6.839 0-4.701 3.61-7.171 8.929-7.171 1.946 0 5.223.285 7.218 1.045.807.332 1.14.711.998 1.425l-.38 1.71c-.143.663-.428.759-1.283.663-2.042-.236-4.7-.522-6.458-.522-3.04 0-3.752.856-3.752 2.66 0 1.853 1.14 2.09 4.037 2.565 4.512.665 8.596 1.567 8.596 7.219 0 5.557-4.701 7.361-9.594 7.361M525.39 167.14c-2.376 0-5.556-.332-7.363-1.045-.95-.38-1.14-.807-.997-1.568l.332-1.566c.143-.76.475-.807 1.235-.712 2.09.331 5.13.57 6.745.57 3.04 0 4.274-.81 4.274-2.708 0-2.185-.807-2.66-3.799-3.087-4.655-.664-8.74-1.663-8.74-6.839 0-4.701 3.61-7.171 8.93-7.171 1.948 0 5.224.285 7.218 1.045.809.332 1.14.711.997 1.425l-.378 1.71c-.144.663-.428.759-1.284.663-2.043-.236-4.701-.522-6.459-.522-3.039 0-3.751.856-3.751 2.66 0 1.853 1.139 2.09 4.037 2.565 4.512.665 8.597 1.567 8.597 7.219 0 5.557-4.703 7.361-9.594 7.361M545.245 165.859c0 .52-.19.9-.855.9h-3.371c-.665 0-.95-.283-.95-.9V144.39c0-.666.285-.902.95-.902h3.371c.665 0 .855.38.855.902v21.468zm-2.518-25.79c-2.47 0-2.8-1.378-2.8-2.754 0-1.52.522-2.708 2.8-2.708 2.328 0 2.803 1.093 2.803 2.708 0 1.471-.428 2.755-2.803 2.755M560.872 147.574c-4.037 0-4.94 2.564-4.94 7.504 0 5.033.903 7.502 4.892 7.502 4.322 0 5.177-2.421 5.177-7.502 0-5.036-.807-7.504-5.129-7.504zm-.048 19.566c-9.545 0-10.163-6.981-10.163-12.395 0-4.464.996-11.731 10.163-11.731 9.215 0 10.496 6.127 10.496 11.731 0 5.414-.665 12.395-10.496 12.395M595.165 166.76h-3.419c-.617 0-.902-.284-.902-.901l.047-13.346c0-2.802-.665-4.656-3.42-4.656-1.9 0-5.224 1.52-6.506 2.138v15.864c0 .57-.238.9-.903.9h-3.37c-.666 0-.905-.283-.905-.9v-21.42c0-.618.24-.95.904-.95h3.371c.665 0 .903.332.903.95v1.423c.047 0 .095.05.142.05 1.757-1.236 5.082-2.851 7.98-2.851 6.41 0 6.98 4.227 6.98 9.024v13.774c0 .57-.19.9-.902.9" fill="#5a5758"/><path d="M626.055 166.754V71.298h-8.145v95.456h8.145" fill="#254aa5"/><path d="M1.656 63.718s98.136-12.795 100.908-13.252c4.246-.698 8.02-1.515 11.538-2.496 7.938-2.19 15.244-5.535 21.713-9.94 6.201-4.191 11.97-10.289 17.689-16.978 3.636-4.256 7.455-9.805 11.017-15.16V3.306c-4.226 6.304-8.39 11.735-12.671 16.532-5.674 6.363-11.626 11.57-17.694 15.476-6.261 4.064-13.31 7.097-20.949 9.017-3.423.87-7.09 1.574-11.21 2.152-2.717.385-5.517.681-8.224.968L1.656 57.297v6.42" fill="#bdbcbc"/><path d="M133.261 47.137c-6.142 3.56-13.238 6.164-21.085 7.743-3.353.681-7.006 1.236-11.173 1.694a335.32 335.32 0 0 1-7.38.696c-1.333.117-2.665.233-3.992.356-30.074 2.718-59.993 5.607-87.975 8.345v6.415c28.202-3.428 58.33-7.057 88.393-10.486 1.337-.157 2.675-.306 4.013-.454 2.463-.274 4.929-.547 7.403-.875 4.278-.574 8.02-1.233 11.441-2.015 8.154-1.837 15.521-4.738 21.885-8.621 6.326-3.826 11.918-9.183 17.928-15.734 3.742-4.076 7.906-9.831 11.802-15.237V16.61c-4.589 6.274-8.945 11.544-13.255 16.04-5.869 6.125-11.926 10.997-18.005 14.486" fill="#bdbcbc"/><path d="M150.436 45.565c-5.989 5.534-12.24 9.887-18.584 12.939-6.202 3.014-13.143 5.13-21.223 6.47-3.333.555-6.958 1.01-11.075 1.388l-97.898 8.1v6.402l87.022-9.305 11.26-1.193c4.24-.494 7.94-1.048 11.308-1.694 8.367-1.59 15.544-3.969 21.939-7.267 6.537-3.331 13.07-8.874 19.142-14.742 4.077-3.936 8-9.018 12.194-14.35v-2.132c-4.844 6.066-9.469 11.123-14.085 15.384" fill="#bdbcbc"/><path d="M126.762 78.805c-5.698 3.213-9.96 5.064-18.099 5.92-4.919.533-9.975.788-14.866 1.033-2.367.119-4.737.238-7.101.387-14.79.852-29.314 1.797-44.132 2.77L1.656 91.691v6.4l41.317-3.82c13.35-1.207 28.865-2.598 44.01-3.843l11.01-.859c4.298-.333 7.823-.687 11.088-1.116 8.375-1.089 15.53-2.793 21.869-5.207 6.825-2.573 13.261-6.566 19.707-11.26 5.813-4.233 13.855-12.58 13.864-12.689v-2.26c-5.259 5.168-8.286 8.07-14.041 11.893-6.879 4.566-18.608 6.995-23.718 9.875" fill="#bdbcbc"/><path d="M128.844 90.97c-6.176 1.823-13.128 3.058-21.252 3.774-3.29.287-6.84.507-10.853.67l-10.95.484c-27.21 1.274-54.286 2.699-84.133 4.29v6.385c28.51-2.224 56.45-4.388 84.38-6.39l10.918-.752c4.214-.278 7.708-.581 10.995-.955 8.329-.938 15.452-2.387 21.775-4.426 7.007-2.236 13.836-5.479 20.298-9.636 4.774-3.063 9.547-6.713 14.5-11.069v-.112c-5.458 4.695-10.66 5.736-15.843 8.89-6.347 3.875-13.02 6.851-19.835 8.846" fill="#bdbcbc"/><path d="M127.835 101.574c-6.22 1.465-12.962 2.408-21.217 2.965-3.185.215-6.607.376-10.775.507l-10.845.389c-27.326 1.041-55.032 2.238-83.342 3.476v6.38c28.127-1.933 55.721-3.815 83.555-5.57l10.82-.653c4.243-.243 7.7-.492 10.877-.784 8.408-.782 15.288-1.92 21.65-3.58a93.622 93.622 0 0 0 20.622-8.073c5.061-2.704 10.11-5.955 15.341-9.868v-2.73c-5.654 4.116-11.077 7.47-16.507 10.205a90.569 90.569 0 0 1-20.179 7.336" fill="#bdbcbc"/><path d="M126.909 111.972c-6.242 1.151-12.964 1.886-21.158 2.314-3.083.159-6.38.274-10.696.373l-93.399 2.549v6.374l82.824-4.355 10.729-.549c4.187-.198 7.612-.403 10.78-.65 8.306-.64 15.14-1.56 21.502-2.9 7.224-1.51 14.234-3.717 20.836-6.552 5.318-2.272 10.647-5.045 16.194-8.415v-2.562c-5.929 3.474-11.564 6.263-17.16 8.493-6.512 2.61-13.392 4.586-20.452 5.88" fill="#bdbcbc"/><path d="M126.175 122.414c-11.46 1.54-23.259 1.718-34.668 1.89-2.615.036-5.232.077-7.844.131l-82.007 1.49v6.366l82.149-3.567c2.605-.119 5.213-.224 7.824-.329 11.49-.464 23.372-.94 34.987-2.8 7.354-1.167 14.43-2.896 21.031-5.133 5.47-1.845 11.135-4.233 16.874-7.055v-2.443c-6.031 2.83-11.962 5.182-17.656 6.945-6.526 2.031-13.486 3.547-20.69 4.505M125.524 132.921c-10.738.894-21.728.896-32.357.896-3.306 0-6.613 0-9.919.027-27.167.12-54.12.345-81.592.584v6.37c26.166-.897 53.925-1.832 81.684-2.662 3.295-.11 6.591-.195 9.891-.281 10.686-.272 21.736-.554 32.585-1.735 7.58-.819 14.475-2.02 21.081-3.667 5.763-1.427 11.68-3.33 17.624-5.618v-2.339c-6.135 2.22-12.249 4.03-18.202 5.35-6.543 1.454-13.347 2.46-20.795 3.075M125.109 143.28c-4.474.178-9.319.264-14.813.264-2.077 0-4.153-.013-6.224-.031l-21.137-.26c-14.423-.107-28.79-.132-42.27-.144l-39.009.037v6.367l39.102-1.033c13.431-.331 27.841-.676 42.217-.938l21.12-.28c5.793-.093 13.438-.264 21.182-.777 7.588-.495 14.494-1.257 21.113-2.321 5.956-.961 12.042-2.254 18.131-3.816v-2.26c-6.255 1.454-12.472 2.615-18.505 3.427-6.581.889-13.42 1.465-20.907 1.765M103.826 153.29l-21.064-.228c-26.872-.38-53.72-.876-81.106-1.39v6.369c26.14-.176 53.827-.376 81.125-.686l21.075-.315c7.102-.123 14.057-.251 21.09-.489 14.48-.469 27.453-1.493 39.575-3.11v-2.215c-12.169 1.319-25.16 2.015-39.65 2.11-7.01.064-14.028.013-21.045-.046M164.521 164.55L1.656 160.39v6.364h162.865v-2.204M149.856 57.593c-6.186 5.008-10.965 8.566-18.537 11.598-6.594 2.64-13.677 3.722-21.77 4.833-5.206.735-10.649 1.823-15.847 2.172-2.138.144-4.277.287-6.41.456L1.656 82.94v6.391l85.982-8.401 11.148-1.054c4.135-.394 7.805-.853 11.222-1.407 8.332-1.348 15.512-3.408 21.947-6.294 6.677-2.968 13.434-7.827 19.712-13.15 4.273-3.615 8.382-8.164 12.854-13.132v-2.29c-5.41 5.635-9.894 10.137-14.665 13.99M233.832 3.307s29.312 46.685 34.67 55.244c5.36 8.558 11.485 15.328 33.172 19.928 21.686 4.598 31.127 6.77 31.127 6.77v1.661s-13.78-2.938-31.511-6.898c-17.731-3.96-24.98-5.293-33.064-16.54-6.726-9.36-34.394-49.137-34.394-49.137V3.307M233.832 56.62s26.682 27.96 34.394 35.987c8.185 8.515 18.669 11.664 33.2 14.26 13.873 2.476 31.368 5.336 31.368 5.336v1.575s-16.429-2.692-31.368-5.248c-14.645-2.509-24.897-3.908-33.286-11.637-7.513-6.922-34.308-32.049-34.308-32.049v-8.223" fill="#bdbcbc"/><path d="M233.832 69.218s25.375 23.563 34.394 31.612c8.303 7.408 15.03 9.711 33.289 12.948 18.261 3.237 31.279 5.25 31.279 5.25v1.662s-16.514-2.713-31.368-5.076c-14.85-2.361-24.315-3.294-33.2-10.497-10.254-8.317-34.394-28.2-34.394-28.2v-7.699" fill="#bdbcbc"/><path d="M233.832 82.648s28.987 22.994 34.403 27.018c5.416 4.024 12.582 8.719 33.375 11.724a8520.125 8520.125 0 0 0 31.191 4.461v1.75s-18.697-2.712-31.191-4.287c-12.493-1.575-22.074-2.244-33.288-9.712-10.916-7.267-34.49-23.865-34.49-23.865v-7.089" fill="#bdbcbc"/><path d="M233.832 95.558s29.073 19.357 34.578 22.419c5.505 3.062 11.97 8.05 33.2 10.762 21.232 2.712 31.191 3.936 31.191 3.936v1.662s-17.561-1.923-31.279-3.41c-13.716-1.49-23.063-3.502-33.287-9.1s-34.403-19.726-34.403-19.726v-6.543" fill="#bdbcbc"/><path d="M233.832 108.468s25.698 13.98 34.394 18.344c9.7 4.872 18.089 7.203 33.289 9.012 14.926 1.777 31.279 3.501 31.279 3.501v1.575s-15.12-1.619-31.279-3.15c-16.019-1.519-21.724-2.216-33.289-7.349-10.341-4.59-34.394-15.805-34.394-15.805v-6.128" fill="#bdbcbc"/><path d="M233.832 121.554s20.308 8.696 34.578 14.357c14.037 5.57 24.755 6.04 33.287 7 3.758.423 31.104 3.238 31.104 3.238v1.572s-16.339-1.31-31.191-2.622c-14.854-1.311-21.259-1.868-33.288-5.862-12.17-4.04-34.49-11.823-34.49-11.823v-5.86M233.832 134.893s20.503 6.355 34.483 10.03c13.979 3.675 26.822 5.163 33.287 5.598 6.465.44 31.2 2.45 31.2 2.45v1.487s-14.068-.958-31.287-2.187c-13.921-.991-25.104-2.04-33.289-3.85-9.07-2.001-34.394-8.02-34.394-8.02v-5.508M233.832 148.018s16.768 2.892 34.483 5.828c13.28 2.203 31.279 3.589 33.2 3.678 1.924.085 31.279 2.099 31.279 2.099v1.572s-18.79-.971-31.279-1.66c-13.01-.72-25.943-1.509-33.289-2.275-16.452-1.716-34.394-3.988-34.394-3.988v-5.254M233.832 161.603s26.445.993 34.483 1.17c8.037.172 64.479 2.448 64.479 2.448v1.533h-98.962v-5.151M301.515 85.695c-23.939-5.161-29.355-13.91-33.375-19.335-4.02-5.425-34.308-49.693-34.308-49.693v9.99c1.194 1.563 27.118 35.5 34.394 44.864 8.203 10.553 21.058 12.949 33.289 15.574 12.23 2.624 31.286 6.283 31.286 6.283v-1.4s-25.105-4.95-31.286-6.283" fill="#bdbcbc"/><path d="M301.515 92.694c-19.658-3.85-27.609-10.061-33.375-17.586-5.766-7.523-34.308-45.143-34.308-45.143v9.459c1.194 1.417 27.304 32.387 34.308 40.408 8.17 9.358 19.571 11.812 33.375 14.349a6202.142 6202.142 0 0 1 31.279 5.861v-1.399s-19.944-3.729-31.279-5.949" fill="#bdbcbc"/><path d="M301.515 99.955c-20.443-3.965-24.636-7.232-33.289-16.71-5.439-5.958-33.222-38.765-34.394-40.148v8.74s25.963 27.692 34.308 35.87c10.952 10.732 21.231 11.548 33.375 13.735 12.145 2.187 31.279 5.687 31.279 5.687v-1.487s-23.102-4.1-31.279-5.687" fill="#bdbcbc"/><path d="M212.039 166.754V71.302H69.35v95.452H212.04" fill="#254aa5"/><path d="M142.241 84.873h4.965l-4.001 3.118 1.555 4.944-3.986-3.045-3.987 3.045 1.572-4.944-4.033-3.118h4.948l1.5-4.822 1.467 4.822M142.416 148.529h4.971l-4 3.006 1.554 4.753-3.986-2.93-3.986 2.93 1.571-4.753-4.041-3.006h4.957l1.499-4.641 1.461 4.64M158.162 144.312h4.973l-4.003 2.999 1.557 4.76-3.987-2.936-3.986 2.936 1.57-4.76-4.04-2.999h4.956l1.5-4.64 1.46 4.64M158.162 89.12h4.973l-4.003 3 1.557 4.758-3.987-2.932-3.986 2.932 1.57-4.759-4.04-3h4.956l1.5-4.64 1.46 4.64M169.852 100.81h4.964l-4.001 2.995 1.555 4.763-3.986-2.932-3.978 2.932 1.57-4.763-4.041-2.995h4.949l1.5-4.642 1.468 4.642M169.852 132.783h4.964l-4.001 3.007 1.555 4.757-3.986-2.936-3.978 2.936 1.57-4.757-4.041-3.007h4.949l1.5-4.642 1.468 4.642M174.232 116.551h4.974l-4.004 3 1.555 4.761-3.986-2.936-3.985 2.936 1.57-4.76-4.04-3h4.949l1.506-4.638 1.461 4.637M126.188 89.16h4.964l-4 3.003 1.554 4.759-3.986-2.936-3.987 2.936 1.572-4.76-4.034-3.003h4.95l1.499-4.64 1.468 4.64M114.822 100.848h4.972l-4.002 3 1.548 4.76-3.978-2.933-3.986 2.933 1.567-4.76-4.038-3h4.957l1.5-4.64 1.46 4.64M110.603 116.59h4.97l-4.003 3.003 1.554 4.758-3.985-2.926-3.986 2.926 1.571-4.758-4.034-3.002h4.95l1.5-4.636 1.463 4.636M114.822 132.821h4.972l-4.002 3.008 1.548 4.758-3.978-2.935-3.986 2.935 1.567-4.758-4.038-3.008h4.957l1.5-4.634 1.46 4.634M126.354 144.351h4.963l-4 3.001 1.547 4.758-3.98-2.934-3.985 2.934 1.572-4.758-4.034-3h4.95l1.498-4.64 1.469 4.64" fill="#fff200"/></svg>