<svg width="396.801" height="320.96" viewBox="0 0 1240 1003" xmlns="http://www.w3.org/2000/svg" version="1.2" baseProfile="tiny"><desc>Generated with Qt</desc><g fill="none" fill-rule="evenodd" stroke-linecap="square" stroke-linejoin="bevel" font-weight="400"><path d="M-1-1h1241.002v1005.002H-.999V-.999" fill="#fff" font-family="MS Shell Dlg 2" font-size="34.375"/><path d="M11.8 11.8h40.962v34.967H11.8V11.8" fill="#8c0000" font-family="MS Shell Dlg 2" font-size="34.375"/><text fill="#000" x="55" y="37.5" transform="scale(1.18)" font-family="Arial" font-size="35">Continuous Urban Fabric (S.L. &amp;gt; 80%)</text><path d="M11.8 59h40.962v34.967H11.8V59" fill="#d10000" font-family="MS Shell Dlg 2" font-size="34.375"/><text fill="#000" x="55" y="77.5" transform="scale(1.18)" font-family="Arial" font-size="35">Discontinuous Dense Urban Fabric (S.L. : 50% - 80%)</text><path d="M11.8 106.2h40.962v34.967H11.8V106.2" fill="red" font-family="MS Shell Dlg 2" font-size="34.375"/><text fill="#000" x="55" y="117.5" transform="scale(1.18)" font-family="Arial" font-size="35">Discontinuous Medium Density Urban Fabric (S.L. : 30% - 50%)</text><path d="M11.8 153.4h40.962v34.967H11.8V153.4" fill="#ff8080" font-family="MS Shell Dlg 2" font-size="34.375"/><text fill="#000" x="55" y="157.5" transform="scale(1.18)" font-family="Arial" font-size="35">Discontinuous Low Density Urban Fabric (S.L. : 10% - 30%)</text><path d="M11.8 200.6h40.962v34.967H11.8V200.6" fill="#ffbfbf" font-family="MS Shell Dlg 2" font-size="34.375"/><text fill="#000" x="55" y="197.5" transform="scale(1.18)" font-family="Arial" font-size="35">Discontinuous Very Low Density Urban Fabric (S.L. &amp;lt; 10%)</text><path d="M11.8 247.8h40.962v34.967H11.8V247.8" fill="#c66" font-family="MS Shell Dlg 2" font-size="34.375"/><text fill="#000" x="55" y="237.5" transform="scale(1.18)" font-family="Arial" font-size="35">Isolated Structures</text><path d="M11.8 295h40.962v34.967H11.8V295" fill="#c94ef1" font-family="MS Shell Dlg 2" font-size="34.375"/><text fill="#000" x="55" y="277.5" transform="scale(1.18)" font-family="Arial" font-size="35">Industrial, commercial, public, military and private units</text><path d="M11.8 342.2h40.962v34.967H11.8V342.2" fill="#f50" font-family="MS Shell Dlg 2" font-size="34.375"/><text fill="#000" x="55" y="317.5" transform="scale(1.18)" font-family="Arial" font-size="35">Fast transit roads and associated land</text><path d="M11.8 389.4h40.962v34.967H11.8V389.4" fill="#ffa680" font-family="MS Shell Dlg 2" font-size="34.375"/><text fill="#000" x="55" y="357.5" transform="scale(1.18)" font-family="Arial" font-size="35">Other roads and associated land</text><path d="M11.8 436.6h40.962v34.967H11.8V436.6" fill="#666" font-family="MS Shell Dlg 2" font-size="34.375"/><text fill="#000" x="55" y="397.5" transform="scale(1.18)" font-family="Arial" font-size="35">Railways and associated land</text><path d="M11.8 483.8h40.962v34.967H11.8V483.8" fill="#e5bdfe" font-family="MS Shell Dlg 2" font-size="34.375"/><text fill="#000" x="55" y="437.5" transform="scale(1.18)" font-family="Arial" font-size="35">Port areas</text><path d="M11.8 531h40.962v34.967H11.8V531" fill="#e5cce6" font-family="MS Shell Dlg 2" font-size="34.375"/><text fill="#000" x="55" y="477.5" transform="scale(1.18)" font-family="Arial" font-size="35">Airports</text><path d="M11.8 578.2h40.962v34.967H11.8V578.2" fill="#875959" font-family="MS Shell Dlg 2" font-size="34.375"/><text fill="#000" x="55" y="517.5" transform="scale(1.18)" font-family="Arial" font-size="35">Mineral extraction and dump sites</text><path d="M11.8 625.4h40.962v34.967H11.8V625.4" fill="#cca866" font-family="MS Shell Dlg 2" font-size="34.375"/><text fill="#000" x="55" y="557.5" transform="scale(1.18)" font-family="Arial" font-size="35">Construction sites</text><path d="M11.8 672.6h40.962v34.967H11.8V672.6" fill="#874444" font-family="MS Shell Dlg 2" font-size="34.375"/><text fill="#000" x="55" y="597.5" transform="scale(1.18)" font-family="Arial" font-size="35">Land without current use</text><path d="M11.8 719.8h40.962v34.967H11.8V719.8" fill="#99e600" font-family="MS Shell Dlg 2" font-size="34.375"/><text fill="#000" x="55" y="637.5" transform="scale(1.18)" font-family="Arial" font-size="35">Green urban areas</text><path d="M11.8 767h40.962v34.967H11.8V767" fill="#d3ff73" font-family="MS Shell Dlg 2" font-size="34.375"/><text fill="#000" x="55" y="677.5" transform="scale(1.18)" font-family="Arial" font-size="35">Sports and leisure facilities</text><path d="M11.8 814.2h40.962v34.967H11.8V814.2" fill="#feffa8" font-family="MS Shell Dlg 2" font-size="34.375"/><text fill="#000" x="55" y="717.5" transform="scale(1.18)" font-family="Arial" font-size="35">Agricultural + Semi-natural areas + Wetlands</text><path d="M11.8 861.4h40.962v34.967H11.8V861.4" fill="green" font-family="MS Shell Dlg 2" font-size="34.375"/><text fill="#000" x="55" y="757.5" transform="scale(1.18)" font-family="Arial" font-size="35">Forests</text><path d="M11.8 908.6h40.962v34.967H11.8V908.6" fill="#a6a7ff" font-family="MS Shell Dlg 2" font-size="34.375"/><text fill="#000" x="55" y="797.5" transform="scale(1.18)" font-family="Arial" font-size="35">Wetlands</text><path d="M11.8 955.8h40.962v34.967H11.8V955.8" fill="#00ccf0" font-family="MS Shell Dlg 2" font-size="34.375"/><text fill="#000" x="55" y="837.5" transform="scale(1.18)" font-family="Arial" font-size="35">Water bodies</text></g></svg>