<svg width="408" height="597.12" viewBox="0 0 1275 1866" xmlns="http://www.w3.org/2000/svg" version="1.2" baseProfile="tiny"><desc>Generated with Qt</desc><g fill="none" stroke="#000" fill-rule="evenodd" stroke-linecap="square" stroke-linejoin="bevel" font-weight="400"><path d="M-1-1H1276v1867.276H-1V-1" fill="#fff" stroke="none" font-family="MS Shell Dlg 2" font-size="34.375"/><path vector-effect="non-scaling-stroke" d="M23.611 23.611h41.32v35.417H23.61V23.611" fill="#000" stroke="none" font-family="MS Shell Dlg 2" font-size="34.375"/><text stroke="none" x="65" y="47.5" transform="scale(1.18056)" fill="#000" font-family="Arial" font-size="35">No data</text><path vector-effect="non-scaling-stroke" d="M23.611 70.834h41.32v35.416H23.61V70.834" fill="#ffff64" stroke="none" font-family="MS Shell Dlg 2" font-size="34.375"/><text fill="#000" stroke="none" x="65" y="87.5" transform="scale(1.18056)" font-family="Arial" font-size="35">Cropland; rainfed</text><path vector-effect="non-scaling-stroke" d="M23.611 118.056h41.32v35.417H23.61v-35.417" fill="#ffff64" stroke="none" font-family="MS Shell Dlg 2" font-size="34.375"/><text fill="#000" stroke="none" x="65" y="127.5" transform="scale(1.18056)" font-family="Arial" font-size="35">Herbaceous cover</text><path vector-effect="non-scaling-stroke" d="M23.611 165.278h41.32v35.417H23.61v-35.417" fill="#ff0" stroke="none" font-family="MS Shell Dlg 2" font-size="34.375"/><text fill="#000" stroke="none" x="65" y="167.5" transform="scale(1.18056)" font-family="Arial" font-size="35">Tree or shrub cover</text><path vector-effect="non-scaling-stroke" d="M23.611 212.5h41.32v35.418H23.61V212.5" fill="#aaf0f0" stroke="none" font-family="MS Shell Dlg 2" font-size="34.375"/><text fill="#000" stroke="none" x="65" y="207.5" transform="scale(1.18056)" font-family="Arial" font-size="35">Cropland; irrigated or post-flooding</text><path vector-effect="non-scaling-stroke" d="M23.611 259.723h41.32v35.417H23.61v-35.417" fill="#dcf064" stroke="none" font-family="MS Shell Dlg 2" font-size="34.375"/><text fill="#000" stroke="none" x="65" y="245" transform="scale(1.18056)" font-family="Arial" font-size="35">Mosaic cropland (&amp;gt;50%) / natural vegetation</text><text fill="#000" stroke="none" x="65" y="285" transform="scale(1.18056)" font-family="Arial" font-size="35">(tree; shrub; herbaceous cover) (&amp;lt;50%)</text><path vector-effect="non-scaling-stroke" d="M23.611 348.265h41.32v35.417H23.61v-35.417" fill="#c8c864" stroke="none" font-family="MS Shell Dlg 2" font-size="34.375"/><text fill="#000" stroke="none" x="65" y="320" transform="scale(1.18056)" font-family="Arial" font-size="35">Mosaic natural vegetation (tree; shrub; herbaceous cover) (&amp;gt;50%)</text><text fill="#000" stroke="none" x="65" y="360" transform="scale(1.18056)" font-family="Arial" font-size="35">/ cropland (&amp;lt;50%)</text><path vector-effect="non-scaling-stroke" d="M23.611 436.807h41.32v35.417H23.61v-35.417" fill="#006400" stroke="none" font-family="MS Shell Dlg 2" font-size="34.375"/><text fill="#000" stroke="none" x="65" y="397.5" transform="scale(1.18056)" font-family="Arial" font-size="35">Tree cover; broadleaved; evergreen; closed to open (&amp;gt;15%)</text><path vector-effect="non-scaling-stroke" d="M23.611 484.03h41.32v35.416H23.61V484.03" fill="#00a000" stroke="none" font-family="MS Shell Dlg 2" font-size="34.375"/><text fill="#000" stroke="none" x="65" y="437.5" transform="scale(1.18056)" font-family="Arial" font-size="35">Tree cover; broadleaved; deciduous; closed to open (&amp;gt;15%)</text><path vector-effect="non-scaling-stroke" d="M23.611 531.252h41.32v35.417H23.61v-35.417" fill="#00a000" stroke="none" font-family="MS Shell Dlg 2" font-size="34.375"/><text fill="#000" stroke="none" x="65" y="477.5" transform="scale(1.18056)" font-family="Arial" font-size="35">Tree cover; broadleaved; deciduous; closed (&amp;gt;40%)</text><path vector-effect="non-scaling-stroke" d="M23.611 578.474h41.32v35.417H23.61v-35.417" fill="#aac800" stroke="none" font-family="MS Shell Dlg 2" font-size="34.375"/><text fill="#000" stroke="none" x="65" y="517.5" transform="scale(1.18056)" font-family="Arial" font-size="35">Tree cover; broadleaved; deciduous; open (15-40%)</text><path vector-effect="non-scaling-stroke" d="M23.611 625.697h41.32v35.417H23.61v-35.417" fill="#003c00" stroke="none" font-family="MS Shell Dlg 2" font-size="34.375"/><text fill="#000" stroke="none" x="65" y="557.5" transform="scale(1.18056)" font-family="Arial" font-size="35">Tree cover; needleleaved; evergreen; closed to open (&amp;gt;15%)</text><path vector-effect="non-scaling-stroke" d="M23.611 672.92h41.32v35.416H23.61v-35.417" fill="#003c00" stroke="none" font-family="MS Shell Dlg 2" font-size="34.375"/><text fill="#000" stroke="none" x="65" y="597.5" transform="scale(1.18056)" font-family="Arial" font-size="35">Tree cover; needleleaved; evergreen; closed (&amp;gt;40%)</text><path vector-effect="non-scaling-stroke" d="M23.611 720.142h41.32v35.416H23.61v-35.416" fill="#005000" stroke="none" font-family="MS Shell Dlg 2" font-size="34.375"/><text fill="#000" stroke="none" x="65" y="637.5" transform="scale(1.18056)" font-family="Arial" font-size="35">Tree cover; needleleaved; evergreen; open (15-40%)</text><path vector-effect="non-scaling-stroke" d="M23.611 767.364h41.32v35.417H23.61v-35.417" fill="#285000" stroke="none" font-family="MS Shell Dlg 2" font-size="34.375"/><text fill="#000" stroke="none" x="65" y="677.5" transform="scale(1.18056)" font-family="Arial" font-size="35">Tree cover; needleleaved; deciduous; closed to open (&amp;gt;15%)</text><path vector-effect="non-scaling-stroke" d="M23.611 814.586h41.32v35.417H23.61v-35.417" fill="#285000" stroke="none" font-family="MS Shell Dlg 2" font-size="34.375"/><text fill="#000" stroke="none" x="65" y="717.5" transform="scale(1.18056)" font-family="Arial" font-size="35">Tree cover; needleleaved; deciduous; closed (&amp;gt;40%)</text><path vector-effect="non-scaling-stroke" d="M23.611 861.809h41.32v35.417H23.61v-35.417" fill="#286400" stroke="none" font-family="MS Shell Dlg 2" font-size="34.375"/><text fill="#000" stroke="none" x="65" y="757.5" transform="scale(1.18056)" font-family="Arial" font-size="35">Tree cover; needleleaved; deciduous; open (15-40%)</text><path vector-effect="non-scaling-stroke" d="M23.611 909.031h41.32v35.417H23.61v-35.417" fill="#788200" stroke="none" font-family="MS Shell Dlg 2" font-size="34.375"/><text fill="#000" stroke="none" x="65" y="797.5" transform="scale(1.18056)" font-family="Arial" font-size="35">Tree cover; mixed leaf type (broadleaved and needleleaved)</text><path vector-effect="non-scaling-stroke" d="M23.611 956.254h41.32v35.416H23.61v-35.416" fill="#8ca000" stroke="none" font-family="MS Shell Dlg 2" font-size="34.375"/><text fill="#000" stroke="none" x="65" y="837.5" transform="scale(1.18056)" font-family="Arial" font-size="35">Mosaic tree and shrub (&amp;gt;50%) / herbaceous cover (&amp;lt;50%)</text><path vector-effect="non-scaling-stroke" d="M23.611 1003.476h41.32v35.417H23.61v-35.417" fill="#be9600" stroke="none" font-family="MS Shell Dlg 2" font-size="34.375"/><text fill="#000" stroke="none" x="65" y="877.5" transform="scale(1.18056)" font-family="Arial" font-size="35">Mosaic herbaceous cover (&amp;gt;50%) / tree and shrub (&amp;lt;50%)</text><path vector-effect="non-scaling-stroke" d="M23.611 1050.698h41.32v35.417H23.61v-35.417" fill="#966400" stroke="none" font-family="MS Shell Dlg 2" font-size="34.375"/><text fill="#000" stroke="none" x="65" y="917.5" transform="scale(1.18056)" font-family="Arial" font-size="35">Shrubland</text><path vector-effect="non-scaling-stroke" d="M23.611 1097.92h41.32v35.418H23.61v-35.417" fill="#784b00" stroke="none" font-family="MS Shell Dlg 2" font-size="34.375"/><text fill="#000" stroke="none" x="65" y="957.5" transform="scale(1.18056)" font-family="Arial" font-size="35">Shrubland evergreen</text><path vector-effect="non-scaling-stroke" d="M23.611 1145.143h41.32v35.417H23.61v-35.417" fill="#966400" stroke="none" font-family="MS Shell Dlg 2" font-size="34.375"/><text fill="#000" stroke="none" x="65" y="997.5" transform="scale(1.18056)" font-family="Arial" font-size="35">Shrubland deciduous</text><path vector-effect="non-scaling-stroke" d="M23.611 1192.366h41.32v35.416H23.61v-35.416" fill="#ffb432" stroke="none" font-family="MS Shell Dlg 2" font-size="34.375"/><text fill="#000" stroke="none" x="65" y="1037.5" transform="scale(1.18056)" font-family="Arial" font-size="35">Grassland</text><path vector-effect="non-scaling-stroke" d="M23.611 1239.588h41.32v35.417H23.61v-35.417" fill="#ffdcd2" stroke="none" font-family="MS Shell Dlg 2" font-size="34.375"/><text fill="#000" stroke="none" x="65" y="1077.5" transform="scale(1.18056)" font-family="Arial" font-size="35">Lichens and mosses</text><path vector-effect="non-scaling-stroke" d="M23.611 1286.81h41.32v35.417H23.61v-35.417" fill="#ffebaf" stroke="none" font-family="MS Shell Dlg 2" font-size="34.375"/><text fill="#000" stroke="none" x="65" y="1117.5" transform="scale(1.18056)" font-family="Arial" font-size="35">Sparse vegetation (tree; shrub; herbaceous cover) (&amp;lt;15%)</text><path vector-effect="non-scaling-stroke" d="M23.611 1334.033h41.32v35.417H23.61v-35.417" fill="#ffd278" stroke="none" font-family="MS Shell Dlg 2" font-size="34.375"/><text fill="#000" stroke="none" x="65" y="1157.5" transform="scale(1.18056)" font-family="Arial" font-size="35">Sparse shrub (&amp;lt;15%)</text><path vector-effect="non-scaling-stroke" d="M23.611 1381.255h41.32v35.417H23.61v-35.417" fill="#ffebaf" stroke="none" font-family="MS Shell Dlg 2" font-size="34.375"/><text fill="#000" stroke="none" x="65" y="1197.5" transform="scale(1.18056)" font-family="Arial" font-size="35">Sparse herbaceous cover (&amp;lt;15%)</text><path vector-effect="non-scaling-stroke" d="M23.611 1428.478h41.32v35.416H23.61v-35.416" fill="#00785a" stroke="none" font-family="MS Shell Dlg 2" font-size="34.375"/><text fill="#000" stroke="none" x="65" y="1237.5" transform="scale(1.18056)" font-family="Arial" font-size="35">Tree cover; flooded; fresh or brakish water</text><path vector-effect="non-scaling-stroke" d="M23.611 1475.7h41.32v35.417H23.61V1475.7" fill="#009678" stroke="none" font-family="MS Shell Dlg 2" font-size="34.375"/><text fill="#000" stroke="none" x="65" y="1277.5" transform="scale(1.18056)" font-family="Arial" font-size="35">Tree cover; flooded; saline water</text><path vector-effect="non-scaling-stroke" d="M23.611 1522.922h41.32v35.417H23.61v-35.417" fill="#00dc82" stroke="none" font-family="MS Shell Dlg 2" font-size="34.375"/><text fill="#000" stroke="none" x="65" y="1317.5" transform="scale(1.18056)" font-family="Arial" font-size="35">Shrub or herbaceous cover; flooded; fresh/saline/brakish water</text><path vector-effect="non-scaling-stroke" d="M23.611 1570.145h41.32v35.417H23.61v-35.417" fill="#c31400" stroke="none" font-family="MS Shell Dlg 2" font-size="34.375"/><text fill="#000" stroke="none" x="65" y="1357.5" transform="scale(1.18056)" font-family="Arial" font-size="35">Urban areas</text><path vector-effect="non-scaling-stroke" d="M23.611 1617.367h41.32v35.417H23.61v-35.417" fill="#fff5d7" stroke="none" font-family="MS Shell Dlg 2" font-size="34.375"/><text fill="#000" stroke="none" x="65" y="1397.5" transform="scale(1.18056)" font-family="Arial" font-size="35">Bare areas</text><path vector-effect="non-scaling-stroke" d="M23.611 1664.59h41.32v35.416H23.61v-35.416" fill="#dcdcdc" stroke="none" font-family="MS Shell Dlg 2" font-size="34.375"/><text fill="#000" stroke="none" x="65" y="1437.5" transform="scale(1.18056)" font-family="Arial" font-size="35">Consolidated bare areas</text><path vector-effect="non-scaling-stroke" d="M23.611 1711.812h41.32v35.417H23.61v-35.417" fill="#fff5d7" stroke="none" font-family="MS Shell Dlg 2" font-size="34.375"/><text fill="#000" stroke="none" x="65" y="1477.5" transform="scale(1.18056)" font-family="Arial" font-size="35">Unconsolidated bare areas</text><path vector-effect="non-scaling-stroke" d="M23.611 1759.034h41.32v35.417H23.61v-35.417" fill="#0046c8" stroke="none" font-family="MS Shell Dlg 2" font-size="34.375"/><text fill="#000" stroke="none" x="65" y="1517.5" transform="scale(1.18056)" font-family="Arial" font-size="35">Water bodies</text><path vector-effect="non-scaling-stroke" d="M23.611 1806.257h41.32v35.417H23.61v-35.417" fill="#fff" stroke="none" font-family="MS Shell Dlg 2" font-size="34.375"/><text fill="#000" stroke="none" x="65" y="1557.5" transform="scale(1.18056)" font-family="Arial" font-size="35">Permanent snow and ice</text></g></svg>