<svg width="396.801" height="706.56" viewBox="0 0 1240 2208" xmlns="http://www.w3.org/2000/svg" version="1.2" baseProfile="tiny"><desc>Generated with Qt</desc><g fill="none" fill-rule="evenodd" stroke-linecap="square" stroke-linejoin="bevel" font-weight="400"><path d="M-1-1h1241.79v2210H-1V-1" fill="#fff" font-family="MS Shell Dlg 2" font-size="34.375"/><path vector-effect="non-scaling-stroke" d="M23.615 23.615h41.326v35.422H23.615V23.615" fill="#e6004d" font-family="MS Shell Dlg 2" font-size="34.375"/><text fill="#000" x="65" y="47.5" transform="scale(1.18075)" font-family="Arial" font-size="35">Continuous urban fabric</text><path vector-effect="non-scaling-stroke" d="M23.615 70.845h41.326v35.422H23.615V70.846" fill="red" font-family="MS Shell Dlg 2" font-size="34.375"/><text fill="#000" x="65" y="87.5" transform="scale(1.18075)" font-family="Arial" font-size="35">Discontinuous urban fabric</text><path vector-effect="non-scaling-stroke" d="M23.615 118.075h41.326v35.422H23.615v-35.422" fill="#cc4df2" font-family="MS Shell Dlg 2" font-size="34.375"/><text fill="#000" x="65" y="127.5" transform="scale(1.18075)" font-family="Arial" font-size="35">Industrial or commercial units</text><path vector-effect="non-scaling-stroke" d="M23.615 165.305h41.326v35.422H23.615v-35.422" fill="#c00" font-family="MS Shell Dlg 2" font-size="34.375"/><text fill="#000" x="65" y="167.5" transform="scale(1.18075)" font-family="Arial" font-size="35">Road and rail networks and associated land</text><path vector-effect="non-scaling-stroke" d="M23.615 212.535h41.326v35.422H23.615v-35.422" fill="#e6cccc" font-family="MS Shell Dlg 2" font-size="34.375"/><text fill="#000" x="65" y="207.5" transform="scale(1.18075)" font-family="Arial" font-size="35">Port areas</text><path vector-effect="non-scaling-stroke" d="M23.615 259.765h41.326v35.422H23.615v-35.422" fill="#e6cce6" font-family="MS Shell Dlg 2" font-size="34.375"/><text fill="#000" x="65" y="247.5" transform="scale(1.18075)" font-family="Arial" font-size="35">Airports</text><path vector-effect="non-scaling-stroke" d="M23.615 306.995h41.326v35.422H23.615v-35.422" fill="#a600cc" font-family="MS Shell Dlg 2" font-size="34.375"/><text fill="#000" x="65" y="287.5" transform="scale(1.18075)" font-family="Arial" font-size="35">Mineral extraction sites</text><path vector-effect="non-scaling-stroke" d="M23.615 354.225h41.326v35.422H23.615v-35.422" fill="#a64d00" font-family="MS Shell Dlg 2" font-size="34.375"/><text fill="#000" x="65" y="327.5" transform="scale(1.18075)" font-family="Arial" font-size="35">Dump sites</text><path vector-effect="non-scaling-stroke" d="M23.615 401.455h41.326v35.422H23.615v-35.422" fill="#ff4dff" font-family="MS Shell Dlg 2" font-size="34.375"/><text fill="#000" x="65" y="367.5" transform="scale(1.18075)" font-family="Arial" font-size="35">Construction sites</text><path vector-effect="non-scaling-stroke" d="M23.615 448.685h41.326v35.422H23.615v-35.422" fill="#ffa6ff" font-family="MS Shell Dlg 2" font-size="34.375"/><text fill="#000" x="65" y="407.5" transform="scale(1.18075)" font-family="Arial" font-size="35">Green urban areas</text><path vector-effect="non-scaling-stroke" d="M23.615 495.915h41.326v35.422H23.615v-35.422" fill="#ffe6ff" font-family="MS Shell Dlg 2" font-size="34.375"/><text fill="#000" x="65" y="447.5" transform="scale(1.18075)" font-family="Arial" font-size="35">Sport and leisure facilities</text><path vector-effect="non-scaling-stroke" d="M23.615 543.145h41.326v35.422H23.615v-35.422" fill="#ffffa8" font-family="MS Shell Dlg 2" font-size="34.375"/><text fill="#000" x="65" y="487.5" transform="scale(1.18075)" font-family="Arial" font-size="35">Non-irrigated arable land</text><path vector-effect="non-scaling-stroke" d="M23.615 590.375h41.326v35.422H23.615v-35.422" fill="#ff0" font-family="MS Shell Dlg 2" font-size="34.375"/><text fill="#000" x="65" y="527.5" transform="scale(1.18075)" font-family="Arial" font-size="35">Permanently irrigated land</text><path vector-effect="non-scaling-stroke" d="M23.615 637.605h41.326v35.422H23.615v-35.422" fill="#e6e600" font-family="MS Shell Dlg 2" font-size="34.375"/><text fill="#000" x="65" y="567.5" transform="scale(1.18075)" font-family="Arial" font-size="35">Rice fields</text><path vector-effect="non-scaling-stroke" d="M23.615 684.835h41.326v35.422H23.615v-35.422" fill="#e68000" font-family="MS Shell Dlg 2" font-size="34.375"/><text fill="#000" x="65" y="607.5" transform="scale(1.18075)" font-family="Arial" font-size="35">Vineyards</text><path vector-effect="non-scaling-stroke" d="M23.615 732.065h41.326v35.422H23.615v-35.422" fill="#f2a64d" font-family="MS Shell Dlg 2" font-size="34.375"/><text fill="#000" x="65" y="647.5" transform="scale(1.18075)" font-family="Arial" font-size="35">Fruit trees and berry plantations</text><path vector-effect="non-scaling-stroke" d="M23.615 779.295h41.326v35.422H23.615v-35.422" fill="#e6a600" font-family="MS Shell Dlg 2" font-size="34.375"/><text fill="#000" x="65" y="687.5" transform="scale(1.18075)" font-family="Arial" font-size="35">Olive groves</text><path vector-effect="non-scaling-stroke" d="M23.615 826.525h41.326v35.422H23.615v-35.422" fill="#e6e64d" font-family="MS Shell Dlg 2" font-size="34.375"/><text fill="#000" x="65" y="727.5" transform="scale(1.18075)" font-family="Arial" font-size="35">Pastures</text><path vector-effect="non-scaling-stroke" d="M23.615 873.755h41.326v35.422H23.615v-35.422" fill="#ffe6a6" font-family="MS Shell Dlg 2" font-size="34.375"/><text fill="#000" x="65" y="767.5" transform="scale(1.18075)" font-family="Arial" font-size="35">Annual crops associated with permanent crops</text><path vector-effect="non-scaling-stroke" d="M23.615 920.985h41.326v35.422H23.615v-35.422" fill="#ffe64d" font-family="MS Shell Dlg 2" font-size="34.375"/><text fill="#000" x="65" y="807.5" transform="scale(1.18075)" font-family="Arial" font-size="35">Complex cultivation patterns</text><path vector-effect="non-scaling-stroke" d="M23.615 968.215h41.326v35.422H23.615v-35.422" fill="#e6cc4d" font-family="MS Shell Dlg 2" font-size="34.375"/><text fill="#000" x="65" y="845" transform="scale(1.18075)" font-family="Arial" font-size="35">Land principally occupied by agriculture with significant areas of</text><text fill="#000" x="65" y="885" transform="scale(1.18075)" font-family="Arial" font-size="35">natural vegetation</text><path vector-effect="non-scaling-stroke" d="M23.615 1056.771h41.326v35.423H23.615v-35.423" fill="#f2cca6" font-family="MS Shell Dlg 2" font-size="34.375"/><text fill="#000" x="65" y="922.5" transform="scale(1.18075)" font-family="Arial" font-size="35">Agro-forestry areas</text><path vector-effect="non-scaling-stroke" d="M23.615 1104.001h41.326v35.423H23.615V1104" fill="#80ff00" font-family="MS Shell Dlg 2" font-size="34.375"/><text fill="#000" x="65" y="962.5" transform="scale(1.18075)" font-family="Arial" font-size="35">Broad-leaved forest</text><path vector-effect="non-scaling-stroke" d="M23.615 1151.231h41.326v35.423H23.615v-35.423" fill="#00a600" font-family="MS Shell Dlg 2" font-size="34.375"/><text fill="#000" x="65" y="1002.5" transform="scale(1.18075)" font-family="Arial" font-size="35">Coniferous forest</text><path vector-effect="non-scaling-stroke" d="M23.615 1198.461h41.326v35.423H23.615v-35.423" fill="#4dff00" font-family="MS Shell Dlg 2" font-size="34.375"/><text fill="#000" x="65" y="1042.5" transform="scale(1.18075)" font-family="Arial" font-size="35">Mixed forest</text><path vector-effect="non-scaling-stroke" d="M23.615 1245.691h41.326v35.423H23.615v-35.423" fill="#ccf24d" font-family="MS Shell Dlg 2" font-size="34.375"/><text fill="#000" x="65" y="1082.5" transform="scale(1.18075)" font-family="Arial" font-size="35">Natural grasslands</text><path vector-effect="non-scaling-stroke" d="M23.615 1292.921h41.326v35.423H23.615v-35.423" fill="#a6ff80" font-family="MS Shell Dlg 2" font-size="34.375"/><text fill="#000" x="65" y="1122.5" transform="scale(1.18075)" font-family="Arial" font-size="35">Moors and heathland</text><path vector-effect="non-scaling-stroke" d="M23.615 1340.151h41.326v35.423H23.615v-35.423" fill="#a6e64d" font-family="MS Shell Dlg 2" font-size="34.375"/><text fill="#000" x="65" y="1162.5" transform="scale(1.18075)" font-family="Arial" font-size="35">Sclerophyllous vegetation</text><path vector-effect="non-scaling-stroke" d="M23.615 1387.381h41.326v35.423H23.615v-35.423" fill="#a6f200" font-family="MS Shell Dlg 2" font-size="34.375"/><text fill="#000" x="65" y="1202.5" transform="scale(1.18075)" font-family="Arial" font-size="35">Transitional woodland-shrub</text><path vector-effect="non-scaling-stroke" d="M23.615 1434.611h41.326v35.423H23.615v-35.423" fill="#e6e6e6" font-family="MS Shell Dlg 2" font-size="34.375"/><text fill="#000" x="65" y="1242.5" transform="scale(1.18075)" font-family="Arial" font-size="35">Beaches-dunes-sands</text><path vector-effect="non-scaling-stroke" d="M23.615 1481.841h41.326v35.423H23.615v-35.423" fill="#ccc" font-family="MS Shell Dlg 2" font-size="34.375"/><text fill="#000" x="65" y="1282.5" transform="scale(1.18075)" font-family="Arial" font-size="35">Bare rocks</text><path vector-effect="non-scaling-stroke" d="M23.615 1529.071h41.326v35.423H23.615v-35.423" fill="#cfc" font-family="MS Shell Dlg 2" font-size="34.375"/><text fill="#000" x="65" y="1322.5" transform="scale(1.18075)" font-family="Arial" font-size="35">Sparsely vegetated areas</text><path vector-effect="non-scaling-stroke" d="M23.615 1576.301h41.326v35.423H23.615V1576.3" fill="#000" font-family="MS Shell Dlg 2" font-size="34.375"/><text x="65" y="1362.5" transform="scale(1.18075)" fill="#000" font-family="Arial" font-size="35">Burnt areas</text><path vector-effect="non-scaling-stroke" d="M23.615 1623.531h41.326v35.423H23.615v-35.423" fill="#a6e6cc" font-family="MS Shell Dlg 2" font-size="34.375"/><text fill="#000" x="65" y="1402.5" transform="scale(1.18075)" font-family="Arial" font-size="35">Glaciers and perpetual snow</text><path vector-effect="non-scaling-stroke" d="M23.615 1670.761h41.326v35.423H23.615v-35.423" fill="#a6a6ff" font-family="MS Shell Dlg 2" font-size="34.375"/><text fill="#000" x="65" y="1442.5" transform="scale(1.18075)" font-family="Arial" font-size="35">Inland marshes</text><path vector-effect="non-scaling-stroke" d="M23.615 1717.991h41.326v35.423H23.615v-35.423" fill="#4d4dff" font-family="MS Shell Dlg 2" font-size="34.375"/><text fill="#000" x="65" y="1482.5" transform="scale(1.18075)" font-family="Arial" font-size="35">Peat bogs</text><path vector-effect="non-scaling-stroke" d="M23.615 1765.221h41.326v35.423H23.615v-35.423" fill="#ccf" font-family="MS Shell Dlg 2" font-size="34.375"/><text fill="#000" x="65" y="1522.5" transform="scale(1.18075)" font-family="Arial" font-size="35">Salt marshes</text><path vector-effect="non-scaling-stroke" d="M23.615 1812.451h41.326v35.423H23.615v-35.423" fill="#e6e6ff" font-family="MS Shell Dlg 2" font-size="34.375"/><text fill="#000" x="65" y="1562.5" transform="scale(1.18075)" font-family="Arial" font-size="35">Salines</text><path vector-effect="non-scaling-stroke" d="M23.615 1859.681h41.326v35.423H23.615v-35.423" fill="#a6a6e6" font-family="MS Shell Dlg 2" font-size="34.375"/><text fill="#000" x="65" y="1602.5" transform="scale(1.18075)" font-family="Arial" font-size="35">Intertidal flats</text><path vector-effect="non-scaling-stroke" d="M23.615 1906.911h41.326v35.423H23.615v-35.423" fill="#00ccf2" font-family="MS Shell Dlg 2" font-size="34.375"/><text fill="#000" x="65" y="1642.5" transform="scale(1.18075)" font-family="Arial" font-size="35">Water courses</text><path vector-effect="non-scaling-stroke" d="M23.615 1954.141h41.326v35.423H23.615v-35.423" fill="#80f2e6" font-family="MS Shell Dlg 2" font-size="34.375"/><text fill="#000" x="65" y="1682.5" transform="scale(1.18075)" font-family="Arial" font-size="35">Water bodies</text><path vector-effect="non-scaling-stroke" d="M23.615 2001.371h41.326v35.423H23.615v-35.423" fill="#00ffa6" font-family="MS Shell Dlg 2" font-size="34.375"/><text fill="#000" x="65" y="1722.5" transform="scale(1.18075)" font-family="Arial" font-size="35">Coastal lagoons</text><path vector-effect="non-scaling-stroke" d="M23.615 2048.601h41.326v35.423H23.615V2048.6" fill="#a6ffe6" font-family="MS Shell Dlg 2" font-size="34.375"/><text fill="#000" x="65" y="1762.5" transform="scale(1.18075)" font-family="Arial" font-size="35">Estuaries</text><path vector-effect="non-scaling-stroke" d="M23.615 2095.831h41.326v35.423H23.615v-35.423" fill="#e6f2ff" font-family="MS Shell Dlg 2" font-size="34.375"/><text fill="#000" x="65" y="1802.5" transform="scale(1.18075)" font-family="Arial" font-size="35">Sea and ocean</text><path vector-effect="non-scaling-stroke" d="M23.615 2143.061h41.326v35.423H23.615v-35.423" fill="#fff" font-family="MS Shell Dlg 2" font-size="34.375"/><text fill="#000" x="65" y="1842.5" transform="scale(1.18075)" font-family="Arial" font-size="35">NODATA</text></g></svg>