<svg width="359.04" height="359.04" viewBox="0 0 1122 1122" xmlns="http://www.w3.org/2000/svg" version="1.2" baseProfile="tiny"><desc>Generated with Qt</desc><g fill="none" fill-rule="evenodd" stroke-linecap="square" stroke-linejoin="bevel" font-weight="400"><path d="M-1-1h1124.003v1124.003H-1V-1" fill="#fff" font-family="MS Shell Dlg 2" font-size="34.375"/><path vector-effect="non-scaling-stroke" d="M23.621 23.621h41.337v35.431H23.62V23.621" fill="#006300" font-family="MS Shell Dlg 2" font-size="34.375"/><text fill="#000" x="65" y="47.5" transform="scale(1.18105)" font-family="Arial" font-size="35">Tree Cover; broadleaved; evergreen</text><path vector-effect="non-scaling-stroke" d="M23.621 70.863h41.337v35.431H23.62v-35.43" fill="#009600" font-family="MS Shell Dlg 2" font-size="34.375"/><text fill="#000" x="65" y="87.5" transform="scale(1.18105)" font-family="Arial" font-size="35">Tree Cover; broadleaved; deciduous; closed</text><path vector-effect="non-scaling-stroke" d="M23.621 118.105h41.337v35.431H23.62v-35.431" fill="#afff63" font-family="MS Shell Dlg 2" font-size="34.375"/><text fill="#000" x="65" y="127.5" transform="scale(1.18105)" font-family="Arial" font-size="35">Tree Cover; broadleaved; deciduous; open</text><path vector-effect="non-scaling-stroke" d="M23.621 165.347h41.337v35.431H23.62v-35.431" fill="#8c4411" font-family="MS Shell Dlg 2" font-size="34.375"/><text fill="#000" x="65" y="167.5" transform="scale(1.18105)" font-family="Arial" font-size="35">Tree Cover; needle-leaved; evergreen</text><path vector-effect="non-scaling-stroke" d="M23.621 212.589h41.337v35.431H23.62v-35.43" fill="#cc7f60" font-family="MS Shell Dlg 2" font-size="34.375"/><text fill="#000" x="65" y="207.5" transform="scale(1.18105)" font-family="Arial" font-size="35">Tree Cover; needle-leaved; deciduous</text><path vector-effect="non-scaling-stroke" d="M23.621 259.831h41.337v35.431H23.62v-35.431" fill="#8cbf00" font-family="MS Shell Dlg 2" font-size="34.375"/><text fill="#000" x="65" y="247.5" transform="scale(1.18105)" font-family="Arial" font-size="35">Tree Cover; mixed leaf type</text><path vector-effect="non-scaling-stroke" d="M23.621 307.073h41.337v35.431H23.62v-35.431" fill="#7796ff" font-family="MS Shell Dlg 2" font-size="34.375"/><text fill="#000" x="65" y="287.5" transform="scale(1.18105)" font-family="Arial" font-size="35">Tree Cover; regularly flooded; fresh water</text><path vector-effect="non-scaling-stroke" d="M23.621 354.315h41.337v35.431H23.62v-35.431" fill="#0047c6" font-family="MS Shell Dlg 2" font-size="34.375"/><text fill="#000" x="65" y="327.5" transform="scale(1.18105)" font-family="Arial" font-size="35">Tree Cover; regularly flooded; saline water</text><path vector-effect="non-scaling-stroke" d="M23.621 401.557h41.337v35.431H23.62v-35.431" fill="#00e500" font-family="MS Shell Dlg 2" font-size="34.375"/><text fill="#000" x="65" y="367.5" transform="scale(1.18105)" font-family="Arial" font-size="35">Mosaic: Tree Cover / Other natural vegetation</text><path vector-effect="non-scaling-stroke" d="M23.621 448.799h41.337v35.431H23.62V448.8" fill="#000" font-family="MS Shell Dlg 2" font-size="34.375"/><text x="65" y="407.5" transform="scale(1.18105)" fill="#000" font-family="Arial" font-size="35">Tree Cover; burnt</text><path vector-effect="non-scaling-stroke" d="M23.621 496.041h41.337v35.431H23.62v-35.431" fill="#f70" font-family="MS Shell Dlg 2" font-size="34.375"/><text fill="#000" x="65" y="447.5" transform="scale(1.18105)" font-family="Arial" font-size="35">Shrub Cover; closed-open; evergreen</text><path vector-effect="non-scaling-stroke" d="M23.621 543.283h41.337v35.431H23.62v-35.431" fill="#ffb200" font-family="MS Shell Dlg 2" font-size="34.375"/><text fill="#000" x="65" y="487.5" transform="scale(1.18105)" font-family="Arial" font-size="35">Shrub Cover; closed-open; deciduous</text><path vector-effect="non-scaling-stroke" d="M23.621 590.525h41.337v35.431H23.62v-35.431" fill="#ffea9e" font-family="MS Shell Dlg 2" font-size="34.375"/><text fill="#000" x="65" y="527.5" transform="scale(1.18105)" font-family="Arial" font-size="35">Herbaceous Cover; closed-open</text><path vector-effect="non-scaling-stroke" d="M23.621 637.767h41.337v35.431H23.62v-35.431" fill="#ddc9a0" font-family="MS Shell Dlg 2" font-size="34.375"/><text fill="#000" x="65" y="567.5" transform="scale(1.18105)" font-family="Arial" font-size="35">Sparse herbaceous or sparse shrub cover</text><path vector-effect="non-scaling-stroke" d="M23.621 685.009h41.337v35.431H23.62v-35.43" fill="#009696" font-family="MS Shell Dlg 2" font-size="34.375"/><text fill="#000" x="65" y="607.5" transform="scale(1.18105)" font-family="Arial" font-size="35">Regularly flooded shrub and/or herbaceous cover</text><path vector-effect="non-scaling-stroke" d="M23.621 732.251h41.337v35.431H23.62v-35.431" fill="#ffe0e5" font-family="MS Shell Dlg 2" font-size="34.375"/><text fill="#000" x="65" y="647.5" transform="scale(1.18105)" font-family="Arial" font-size="35">Cultivated and managed areas</text><path vector-effect="non-scaling-stroke" d="M23.621 779.493h41.337v35.431H23.62v-35.431" fill="#ff75e8" font-family="MS Shell Dlg 2" font-size="34.375"/><text fill="#000" x="65" y="687.5" transform="scale(1.18105)" font-family="Arial" font-size="35">Mosaic: Cropland / Tree Cover / Other natural vegetation</text><path vector-effect="non-scaling-stroke" d="M23.621 826.735h41.337v35.431H23.62v-35.431" fill="#c989ff" font-family="MS Shell Dlg 2" font-size="34.375"/><text fill="#000" x="65" y="727.5" transform="scale(1.18105)" font-family="Arial" font-size="35">Mosaic: Cropland / Shrub and/or grass cover</text><path vector-effect="non-scaling-stroke" d="M23.621 873.977h41.337v35.431H23.62v-35.431" fill="#b5b5b5" font-family="MS Shell Dlg 2" font-size="34.375"/><text fill="#000" x="65" y="767.5" transform="scale(1.18105)" font-family="Arial" font-size="35">Bare Areas</text><path vector-effect="non-scaling-stroke" d="M23.621 921.219h41.337v35.431H23.62v-35.43" fill="#89e2ff" font-family="MS Shell Dlg 2" font-size="34.375"/><text fill="#000" x="65" y="807.5" transform="scale(1.18105)" font-family="Arial" font-size="35">Water Bodies</text><path vector-effect="non-scaling-stroke" d="M23.621 968.461h41.337v35.431H23.62v-35.431" fill="#efefef" font-family="MS Shell Dlg 2" font-size="34.375"/><text fill="#000" x="65" y="847.5" transform="scale(1.18105)" font-family="Arial" font-size="35">Snow and Ice</text><path vector-effect="non-scaling-stroke" d="M23.621 1015.703h41.337v35.431H23.62v-35.431" fill="red" font-family="MS Shell Dlg 2" font-size="34.375"/><text fill="#000" x="65" y="887.5" transform="scale(1.18105)" font-family="Arial" font-size="35">Artificial surfaces and associated areas</text><path vector-effect="non-scaling-stroke" d="M23.621 1062.945h41.337v35.431H23.62v-35.431" fill="#ffb7c1" font-family="MS Shell Dlg 2" font-size="34.375"/><text fill="#000" x="65" y="927.5" transform="scale(1.18105)" font-family="Arial" font-size="35">Irrigated Agriculture</text></g></svg>