<svg width="408" height="506.241" viewBox="0 0 1275 1582" xmlns="http://www.w3.org/2000/svg" version="1.2" baseProfile="tiny"><desc>Generated with Qt</desc><g fill="none" fill-rule="evenodd" stroke-linecap="square" stroke-linejoin="bevel" font-weight="400"><path d="M-1-1h1277v1583.947H-1V-1" fill="#fff" font-family="MS Shell Dlg 2" font-size="34.375"/><path vector-effect="non-scaling-stroke" d="M23.611 23.611h41.32v35.417H23.61V23.611" fill="#aaf0f0" font-family="MS Shell Dlg 2" font-size="34.375"/><text fill="#000" x="65" y="47.5" transform="scale(1.18056)" font-family="Arial" font-size="35">Post-flooding or irrigated croplands (or aquatic)</text><path vector-effect="non-scaling-stroke" d="M23.611 70.834h41.32v35.416H23.61V70.834" fill="#ffff64" font-family="MS Shell Dlg 2" font-size="34.375"/><text fill="#000" x="65" y="87.5" transform="scale(1.18056)" font-family="Arial" font-size="35">Rainfed croplands</text><path vector-effect="non-scaling-stroke" d="M23.611 118.056h41.32v35.417H23.61v-35.417" fill="#dcf064" font-family="MS Shell Dlg 2" font-size="34.375"/><text fill="#000" x="65" y="125" transform="scale(1.18056)" font-family="Arial" font-size="35">Mosaic cropland (50-70%)</text><text fill="#000" x="65" y="165" transform="scale(1.18056)" font-family="Arial" font-size="35">vegetation (grassland/shrubland/forest) (20-50%)</text><path vector-effect="non-scaling-stroke" d="M23.611 206.598h41.32v35.417H23.61v-35.417" fill="#cdcd66" font-family="MS Shell Dlg 2" font-size="34.375"/><text fill="#000" x="65" y="200" transform="scale(1.18056)" font-family="Arial" font-size="35">Mosaic vegetation (grassland/shrubland/forest) (50-70%)</text><text fill="#000" x="65" y="240" transform="scale(1.18056)" font-family="Arial" font-size="35">cropland (20-50%)</text><path vector-effect="non-scaling-stroke" d="M23.611 295.14h41.32v35.417H23.61V295.14" fill="#006400" font-family="MS Shell Dlg 2" font-size="34.375"/><text fill="#000" x="65" y="275" transform="scale(1.18056)" font-family="Arial" font-size="35">Closed to open (&amp;gt;15%) broadleaved evergreen or</text><text fill="#000" x="65" y="315" transform="scale(1.18056)" font-family="Arial" font-size="35">semi-deciduous forest (&amp;gt;5m)</text><path vector-effect="non-scaling-stroke" d="M23.611 383.682h41.32v35.417H23.61v-35.417" fill="#00a000" font-family="MS Shell Dlg 2" font-size="34.375"/><text fill="#000" x="65" y="352.5" transform="scale(1.18056)" font-family="Arial" font-size="35">Closed (&amp;gt;40%) broadleaved deciduous forest (&amp;gt;5m)</text><path vector-effect="non-scaling-stroke" d="M23.611 430.904h41.32v35.417H23.61v-35.417" fill="#aac800" font-family="MS Shell Dlg 2" font-size="34.375"/><text fill="#000" x="65" y="392.5" transform="scale(1.18056)" font-family="Arial" font-size="35">Open (15-40%) broadleaved deciduous forest/woodland (&amp;gt;5m)</text><path vector-effect="non-scaling-stroke" d="M23.611 478.127h41.32v35.417H23.61v-35.417" fill="#003c00" font-family="MS Shell Dlg 2" font-size="34.375"/><text fill="#000" x="65" y="432.5" transform="scale(1.18056)" font-family="Arial" font-size="35">Closed (&amp;gt;40%) needleleaved evergreen forest (&amp;gt;5m)</text><path vector-effect="non-scaling-stroke" d="M23.611 525.35h41.32v35.416H23.61v-35.417" fill="#286400" font-family="MS Shell Dlg 2" font-size="34.375"/><text fill="#000" x="65" y="472.5" transform="scale(1.18056)" font-family="Arial" font-size="35">Open (15-40%) needleleaved deciduous or evergreen forest (&amp;gt;5m)</text><path vector-effect="non-scaling-stroke" d="M23.611 572.572h41.32v35.416H23.61v-35.416" fill="#788200" font-family="MS Shell Dlg 2" font-size="34.375"/><text fill="#000" x="65" y="510" transform="scale(1.18056)" font-family="Arial" font-size="35">Closed to open (&amp;gt;15%) mixed broadleaved and</text><text fill="#000" x="65" y="550" transform="scale(1.18056)" font-family="Arial" font-size="35">needleleaved forest (&amp;gt;5m)</text><path vector-effect="non-scaling-stroke" d="M23.611 661.114h41.32v35.416H23.61v-35.416" fill="#8ca000" font-family="MS Shell Dlg 2" font-size="34.375"/><text fill="#000" x="65" y="585" transform="scale(1.18056)" font-family="Arial" font-size="35">Mosaic forest or shrubland (50-70%)</text><text fill="#000" x="65" y="625" transform="scale(1.18056)" font-family="Arial" font-size="35">grassland (20-50%)</text><path vector-effect="non-scaling-stroke" d="M23.611 749.656h41.32v35.416H23.61v-35.416" fill="#be9600" font-family="MS Shell Dlg 2" font-size="34.375"/><text fill="#000" x="65" y="662.5" transform="scale(1.18056)" font-family="Arial" font-size="35">Mosaic grassland (50-70%) / forest or shrubland (20-50%)</text><path vector-effect="non-scaling-stroke" d="M23.611 796.878h41.32v35.417H23.61v-35.417" fill="#966400" font-family="MS Shell Dlg 2" font-size="34.375"/><text fill="#000" x="65" y="700" transform="scale(1.18056)" font-family="Arial" font-size="35">Closed to open (&amp;gt;15%) (broadleaved or needleleaved; evergreen</text><text fill="#000" x="65" y="740" transform="scale(1.18056)" font-family="Arial" font-size="35">or deciduous) shrubland (&amp;lt;5m)</text><path vector-effect="non-scaling-stroke" d="M23.611 885.42h41.32v35.417H23.61V885.42" fill="#ffb432" font-family="MS Shell Dlg 2" font-size="34.375"/><text fill="#000" x="65" y="775" transform="scale(1.18056)" font-family="Arial" font-size="35">Closed to open (&amp;gt;15%) herbaceous vegetation</text><text fill="#000" x="65" y="815" transform="scale(1.18056)" font-family="Arial" font-size="35">(grassland; savannas or lichens/mosses)</text><path vector-effect="non-scaling-stroke" d="M23.611 973.962h41.32v35.417H23.61v-35.417" fill="#ffebaf" font-family="MS Shell Dlg 2" font-size="34.375"/><text fill="#000" x="65" y="852.5" transform="scale(1.18056)" font-family="Arial" font-size="35">Sparse (&amp;lt;15%) vegetation</text><path vector-effect="non-scaling-stroke" d="M23.611 1021.184h41.32v35.417H23.61v-35.417" fill="#00785a" font-family="MS Shell Dlg 2" font-size="34.375"/><text fill="#000" x="65" y="890" transform="scale(1.18056)" font-family="Arial" font-size="35">Closed to open (&amp;gt;15%) broadleaved forest regularly flooded</text><text fill="#000" x="65" y="930" transform="scale(1.18056)" font-family="Arial" font-size="35">(semi-permanently or temporarily) - Fresh or brackish water</text><path vector-effect="non-scaling-stroke" d="M23.611 1109.726h41.32v35.417H23.61v-35.417" fill="#009678" font-family="MS Shell Dlg 2" font-size="34.375"/><text fill="#000" x="65" y="965" transform="scale(1.18056)" font-family="Arial" font-size="35">Closed (&amp;gt;40%) broadleaved forest or shrubland permanently</text><text fill="#000" x="65" y="1005" transform="scale(1.18056)" font-family="Arial" font-size="35">flooded - Saline or brackish water</text><path vector-effect="non-scaling-stroke" d="M23.611 1198.268h41.32v35.417H23.61v-35.417" fill="#00dc82" font-family="MS Shell Dlg 2" font-size="34.375"/><text fill="#000" x="65" y="1040" transform="scale(1.18056)" font-family="Arial" font-size="35">Closed to open (&amp;gt;15%) grassland or woody vegetation on</text><text fill="#000" x="65" y="1080" transform="scale(1.18056)" font-family="Arial" font-size="35">regularly flooded or waterlogged soil - Fresh; brackish or</text><text fill="#000" x="65" y="1120" transform="scale(1.18056)" font-family="Arial" font-size="35">saline water</text><path vector-effect="non-scaling-stroke" d="M23.611 1334.033h41.32v35.417H23.61v-35.417" fill="#c31400" font-family="MS Shell Dlg 2" font-size="34.375"/><text fill="#000" x="65" y="1157.5" transform="scale(1.18056)" font-family="Arial" font-size="35">Artificial surfaces and associated areas (Urban areas &amp;gt;50%)</text><path vector-effect="non-scaling-stroke" d="M23.611 1381.255h41.32v35.417H23.61v-35.417" fill="#fff5d7" font-family="MS Shell Dlg 2" font-size="34.375"/><text fill="#000" x="65" y="1197.5" transform="scale(1.18056)" font-family="Arial" font-size="35">Bare areas</text><path vector-effect="non-scaling-stroke" d="M23.611 1428.478h41.32v35.416H23.61v-35.416" fill="#0046c8" font-family="MS Shell Dlg 2" font-size="34.375"/><text fill="#000" x="65" y="1237.5" transform="scale(1.18056)" font-family="Arial" font-size="35">Water bodies</text><path vector-effect="non-scaling-stroke" d="M23.611 1475.7h41.32v35.417H23.61V1475.7" fill="#fff" font-family="MS Shell Dlg 2" font-size="34.375"/><text fill="#000" x="65" y="1277.5" transform="scale(1.18056)" font-family="Arial" font-size="35">Permanent snow and ice</text><path vector-effect="non-scaling-stroke" d="M23.611 1522.922h41.32v35.417H23.61v-35.417" fill="#000" font-family="MS Shell Dlg 2" font-size="34.375"/><text x="65" y="1317.5" transform="scale(1.18056)" fill="#000" font-family="Arial" font-size="35">No data (burnt areas; clouds;…)</text></g></svg>