<svg width="207.68" height="253.12" viewBox="0 0 649 791" xmlns="http://www.w3.org/2000/svg" version="1.2" baseProfile="tiny"><desc>Generated with Qt</desc><g fill="none" stroke="#000" fill-rule="evenodd" stroke-linecap="square" stroke-linejoin="bevel" font-weight="400"><path d="M-1-1H650v792.6H-.999V-1" fill="#fff" stroke="none" font-family="MS Shell Dlg 2" font-size="34.375"/><path vector-effect="non-scaling-stroke" d="M23.6 23.6h41.3V59H23.6V23.6" fill="#aaf0f0" stroke="none" font-family="MS Shell Dlg 2" font-size="34.375"/><text fill="#000" stroke="none" x="65" y="47.5" transform="scale(1.18)" font-family="Arial" font-size="35">Water</text><path vector-effect="non-scaling-stroke" d="M23.6 70.8h41.3v35.4H23.6V70.8" fill="#ffff64" stroke="none" font-family="MS Shell Dlg 2" font-size="34.375"/><text fill="#000" stroke="none" x="65" y="87.5" transform="scale(1.18)" font-family="Arial" font-size="35">Evergreen Needleleaf forest</text><path vector-effect="non-scaling-stroke" d="M23.6 118h41.3v35.4H23.6V118" fill="#dcf064" stroke="none" font-family="MS Shell Dlg 2" font-size="34.375"/><text fill="#000" stroke="none" x="65" y="127.5" transform="scale(1.18)" font-family="Arial" font-size="35">Evergreen Broadleaf forest</text><path vector-effect="non-scaling-stroke" d="M23.6 165.2h41.3v35.4H23.6v-35.4" fill="#cdcd66" stroke="none" font-family="MS Shell Dlg 2" font-size="34.375"/><text fill="#000" stroke="none" x="65" y="167.5" transform="scale(1.18)" font-family="Arial" font-size="35">Deciduous Needleleaf forest</text><path vector-effect="non-scaling-stroke" d="M23.6 212.4h41.3v35.4H23.6v-35.4" fill="#006400" stroke="none" font-family="MS Shell Dlg 2" font-size="34.375"/><text fill="#000" stroke="none" x="65" y="207.5" transform="scale(1.18)" font-family="Arial" font-size="35">Deciduous Broadleaf forest</text><path vector-effect="non-scaling-stroke" d="M23.6 259.6h41.3V295H23.6v-35.4" fill="#00a000" stroke="none" font-family="MS Shell Dlg 2" font-size="34.375"/><text fill="#000" stroke="none" x="65" y="247.5" transform="scale(1.18)" font-family="Arial" font-size="35">Mixed forest</text><path vector-effect="non-scaling-stroke" d="M23.6 306.8h41.3v35.4H23.6v-35.4" fill="#aac800" stroke="none" font-family="MS Shell Dlg 2" font-size="34.375"/><text fill="#000" stroke="none" x="65" y="287.5" transform="scale(1.18)" font-family="Arial" font-size="35">Closed shrublands</text><path vector-effect="non-scaling-stroke" d="M23.6 354h41.3v35.4H23.6V354" fill="#003c00" stroke="none" font-family="MS Shell Dlg 2" font-size="34.375"/><text fill="#000" stroke="none" x="65" y="327.5" transform="scale(1.18)" font-family="Arial" font-size="35">Open shrublands</text><path vector-effect="non-scaling-stroke" d="M23.6 401.2h41.3v35.4H23.6v-35.4" fill="#286400" stroke="none" font-family="MS Shell Dlg 2" font-size="34.375"/><text fill="#000" stroke="none" x="65" y="367.5" transform="scale(1.18)" font-family="Arial" font-size="35">Woody savannas</text><path vector-effect="non-scaling-stroke" d="M23.6 448.4h41.3v35.4H23.6v-35.4" fill="#788200" stroke="none" font-family="MS Shell Dlg 2" font-size="34.375"/><text fill="#000" stroke="none" x="65" y="407.5" transform="scale(1.18)" font-family="Arial" font-size="35">Savannas</text><path vector-effect="non-scaling-stroke" d="M23.6 495.6h41.3V531H23.6v-35.4" fill="#8ca000" stroke="none" font-family="MS Shell Dlg 2" font-size="34.375"/><text fill="#000" stroke="none" x="65" y="447.5" transform="scale(1.18)" font-family="Arial" font-size="35">Grasslands</text><path vector-effect="non-scaling-stroke" d="M23.6 542.8h41.3v35.4H23.6v-35.4" fill="#966400" stroke="none" font-family="MS Shell Dlg 2" font-size="34.375"/><text fill="#000" stroke="none" x="65" y="487.5" transform="scale(1.18)" font-family="Arial" font-size="35">Croplands</text><path vector-effect="non-scaling-stroke" d="M23.6 590h41.3v35.4H23.6V590" fill="#ffb432" stroke="none" font-family="MS Shell Dlg 2" font-size="34.375"/><text fill="#000" stroke="none" x="65" y="527.5" transform="scale(1.18)" font-family="Arial" font-size="35">Urban and built-up</text><path vector-effect="non-scaling-stroke" d="M23.6 637.2h41.3v35.4H23.6v-35.4" fill="#009678" stroke="none" font-family="MS Shell Dlg 2" font-size="34.375"/><text fill="#000" stroke="none" x="65" y="567.5" transform="scale(1.18)" font-family="Arial" font-size="35">Barren or sparsely vegetated</text><path vector-effect="non-scaling-stroke" d="M23.6 684.4h41.3v35.4H23.6v-35.4" fill="#00dc82" stroke="none" font-family="MS Shell Dlg 2" font-size="34.375"/><text fill="#000" stroke="none" x="65" y="607.5" transform="scale(1.18)" font-family="Arial" font-size="35">Unclassified</text><path vector-effect="non-scaling-stroke" d="M23.6 731.6h41.3V767H23.6v-35.4" fill="#fff" stroke="none" font-family="MS Shell Dlg 2" font-size="34.375"/><text fill="#000" stroke="none" x="65" y="647.5" transform="scale(1.18)" font-family="Arial" font-size="35">Fill Value</text></g></svg>