<svg xmlns="http://www.w3.org/2000/svg" width="180.015" height="179.976"><path d="M88.369 179.265l-.659-.688-.568.569c-.838.838-2.586.803-3.496-.07-.643-.615-.681-.622-1.137-.21-.26.235-.94.48-1.511.544-.926.105-1.122.035-1.798-.642l-.76-.759-.694.495c-1.127.802-2.206.658-3.186-.426-.827-.916-.833-.918-1.4-.482-.312.24-.958.44-1.435.442-.71.005-1.021-.165-1.715-.933-.71-.786-.893-.882-1.13-.596-.176.211-.731.341-1.459.341-.93 0-1.297-.122-1.76-.585-.323-.323-.586-.752-.586-.955 0-.462-.256-.468-.85-.018-.839.635-2.07.457-2.922-.422-.42-.433-.762-.92-.762-1.082 0-.218-.121-.23-.462-.048-.603.323-2.303.316-2.915-.011-.265-.142-.641-.64-.836-1.105-.264-.631-.423-.779-.624-.578-.149.149-.724.27-1.278.27-.807 0-1.154-.146-1.742-.734-.404-.404-.734-.882-.734-1.063 0-.252-.268-.296-1.158-.19-1.391.164-2.19-.263-2.768-1.481-.375-.792-.418-.811-1.465-.668-.988.136-1.146.083-1.882-.63-.442-.43-.862-1.012-.933-1.295-.11-.441-.266-.502-1.081-.425-.694.067-1.146-.046-1.662-.414-.75-.533-1.373-1.95-1.084-2.461.137-.243.107-.244-.15-.005-.488.452-1.86.356-2.618-.183-.653-.465-1.347-1.932-1.102-2.328.066-.107-.251-.15-.704-.097-1.321.154-2.168-.336-2.618-1.515-.217-.567-.33-1.133-.254-1.258.084-.136-.263-.183-.87-.117-.91.1-1.089.027-1.818-.732-.534-.555-.818-1.09-.835-1.571-.024-.653-.105-.73-.777-.73-1.07 0-2.173-1.095-2.375-2.356-.146-.915-.211-.985-.915-.985-1.143 0-2.392-1.375-2.392-2.633 0-.82-.071-.947-.53-.947-1.414 0-2.666-1.615-2.32-2.993.127-.509.066-.587-.464-.587-1.085 0-1.796-.498-2.192-1.536-.286-.747-.318-1.145-.132-1.635.231-.607.206-.647-.417-.647-.438 0-.913-.263-1.4-.775-.9-.949-1.113-1.592-.8-2.415.214-.564.183-.628-.306-.628-.306 0-.89-.358-1.34-.821-.815-.841-1.01-1.655-.645-2.699.14-.403.097-.537-.176-.537-1.37 0-2.575-1.855-2.069-3.186.313-.824.313-.87-.01-.87-.604 0-1.652-1.036-1.906-1.883-.224-.746-.203-1.035.12-1.658.369-.715.366-.755-.047-.755-.58 0-1.887-1.382-2.091-2.209-.11-.443-.03-.859.24-1.274.223-.338.369-.64.325-.672a174.26 174.26 0 0 0-.848-.588c-1.077-.743-1.456-2.058-.902-3.13.39-.752.388-.802-.02-1.03-.237-.133-.677-.508-.98-.834-.621-.67-.747-2.124-.252-2.917.26-.416.215-.546-.35-1.011-.916-.754-1.206-1.674-.893-2.836.14-.52.415-1.006.613-1.081.27-.104.18-.246-.358-.573-.466-.284-.815-.767-1-1.385-.249-.83-.224-1.073.192-1.915l.478-.965-.554-.363c-.305-.2-.677-.775-.829-1.28-.23-.77-.208-1.045.143-1.73.23-.448.537-.895.683-.992.17-.114-.012-.397-.511-.793-.648-.514-.776-.776-.776-1.59 0-.662.185-1.216.576-1.728.545-.716.553-.768.141-1.025-.238-.149-.562-.662-.72-1.14-.243-.737-.223-1.013.13-1.797.23-.51.633-.995.896-1.078.442-.14.421-.196-.273-.739-.634-.496-.75-.745-.75-1.618 0-.815.15-1.19.712-1.793.611-.654.665-.81.378-1.097-.185-.184-.456-.703-.605-1.152-.32-.968.127-2.328.9-2.742.468-.25.468-.258-.013-1.228-.42-.85-.447-1.098-.201-1.916.154-.517.53-1.103.835-1.303l.554-.362-.465-.94c-.593-1.198-.393-2.243.606-3.176.625-.584.69-.75.447-1.138-.69-1.107-.008-3.317 1.137-3.68.424-.134.43-.202.107-.977-.411-.984-.108-2.562.568-2.956 1.191-.694 1.269-.841.87-1.642-.223-.445-.308-.967-.212-1.287.225-.745 1.546-2.09 2.053-2.09.388 0 .392-.063.061-.856-.522-1.25-.11-2.346 1.118-2.973 1.058-.54 1.016-.46.689-1.32-.47-1.237.762-3.203 2.007-3.203.309 0 .331-.114.129-.647-.136-.356-.18-.92-.097-1.253.209-.85 1.533-2.157 2.185-2.157.489 0 .52-.064.305-.628-.313-.823-.1-1.466.801-2.415.486-.512.962-.775 1.4-.775.618 0 .647-.043.423-.631-.515-1.355.797-3.188 2.283-3.188.566 0 .627-.071.498-.586-.081-.325.02-1.003.226-1.519.384-.96 1.123-1.474 2.117-1.474.492 0 .552-.108.53-.946-.02-.772.126-1.1.794-1.79.651-.672 1-.844 1.718-.844.69 0 .87-.08.767-.348-.229-.594.389-2.007 1.097-2.511.372-.265.982-.482 1.355-.482.592 0 .682-.094.705-.73.017-.48.301-1.014.835-1.567.71-.736.931-.83 1.8-.762.546.042.937-.012.87-.12-.067-.11.056-.662.272-1.229.45-1.179 1.297-1.669 2.618-1.515.453.053.766.003.696-.11-.07-.114.05-.672.266-1.238.45-1.178 1.297-1.67 2.612-1.516.766.09.835.04 1.085-.796.366-1.223 1.42-1.947 2.661-1.828.816.078.97.017 1.082-.425.07-.283.49-.865.931-1.292.726-.704.905-.766 1.893-.655 1.055.12 1.104.096 1.482-.7.572-1.206 1.298-1.597 2.663-1.435 1.085.128 1.15.103 1.454-.586.604-1.364 1.837-1.806 3.54-1.268.415.13.538.075.538-.24 0-.225.333-.721.74-1.102.857-.8 2.03-.92 2.967-.307.486.319.588.327.588.047 0-.186.354-.682.787-1.101.89-.863 1.96-1.007 2.9-.391.528.346.578.34.717-.098.22-.696 1.67-1.706 2.448-1.706.373 0 .926.174 1.23.386.53.371.585.353 1.435-.477.721-.705 1.062-.863 1.851-.863.666 0 1.103.15 1.402.48.433.478.439.476 1.19-.343 1.032-1.127 1.878-1.305 3.077-.649l.949.52.776-.753c.709-.686.878-.741 1.92-.624.798.09 1.243.28 1.474.626.327.494.334.492.995-.215.504-.54.877-.713 1.536-.713.972 0 2.279.578 2.279 1.008 0 .153.354-.064.787-.484 1.056-1.023 2.2-1.046 3.251-.064l.748.699.579-.58c.968-.967 3.44-.59 3.812.582.132.414.202.395.877-.236 1.02-.952 2.19-.94 3.195.034l.743.72.949-.52c1.193-.653 2.045-.479 3.096.636.75.795.768.8 1.183.342.299-.33.734-.466 1.49-.466.916 0 1.183.121 1.87.85.762.807.829.831 1.335.477.894-.626 2.046-.477 2.836.368.38.408.692.891.692 1.074 0 .436.343.424.716-.025.33-.398 1.577-.472 2.439-.145.308.118.768.598 1.02 1.068.438.811.488.837.998.503.296-.194.908-.352 1.36-.352.677 0 .992.19 1.763 1.067.902 1.025.968 1.055 1.681.786 1.02-.385 2.292.223 2.83 1.35.383.805.416.82 1.54.686 1.366-.161 2.185.267 2.74 1.432.344.722.426.76 1.496.684 1.063-.074 1.186-.02 2.013.896.485.536.881 1.11.881 1.274 0 .207.32.274 1.027.218.872-.07 1.143.027 1.791.633.42.392.826 1.019.9 1.392.128.64.197.674 1.187.595.91-.072 1.148.014 1.775.64.398.4.79 1.054.87 1.456.129.646.242.732.963.732 1.372 0 2.193.586 2.517 1.797.252.944.362 1.066.96 1.066.37 0 .937.172 1.259.383.747.49 1.632 1.914 1.463 2.355-.097.253.12.357.861.411.855.063 1.102.218 1.793 1.127.582.763.764 1.207.662 1.61-.126.502-.059.557.673.557.648 0 .99.198 1.701.985.759.84.87 1.102.759 1.79-.12.733-.078.805.462.805 1.52 0 2.743 1.542 2.378 2.996-.13.519-.07.583.546.583.506 0 .926.259 1.556.956.888.983 1.046 1.598.616 2.401-.218.407-.165.462.45.462.513 0 .93.258 1.585.983.798.884.873 1.079.74 1.91-.128.8-.087.925.305.925.568 0 2.178 1.753 2.178 2.371 0 .254-.105.737-.233 1.073-.198.521-.166.613.211.613.244 0 .843.441 1.33.98.89.985.986 1.502.496 2.644-.132.308.048.515.767.882 1.219.622 1.666 1.612 1.286 2.847-.18.588-.19.907-.026.962.567.192 1.618 1.274 1.902 1.958.256.62.246.861-.063 1.51-.366.767-.363.775.44 1.325 1.12.767 1.548 2.173.97 3.181-.227.395-.383.736-.346.758 1.614.96 2.12 2.072 1.626 3.571-.278.842-.256.91.594 1.85.764.846.865 1.09.747 1.812-.074.46-.311 1.03-.526 1.268-.367.405-.34.485.447 1.27 1.166 1.167 1.26 1.634.576 2.858l-.576 1.031.797.87c.438.478.797 1.113.796 1.41 0 .628-.833 2.092-1.189 2.092-.446 0-.247.398.331.662 1.24.564 1.309 3.248.1 3.895-.48.257-.48.258.021.609.75.525 1.28 1.7 1.098 2.436-.085.347-.426.916-.758 1.264l-.602.634.487.486c1.052 1.053.77 3.35-.46 3.741-.497.158-.497.162-.032.673 1.211 1.331 1.229 2.488.055 3.613l-.688.66.615.928.615.93-.445.985c-.244.542-.77 1.185-1.168 1.427-.398.243-.584.442-.413.442.349.001 1.002 1.397 1.002 2.14 0 .267-.382.908-.85 1.425-.82.909-.84.971-.567 1.879.4 1.337-.036 2.575-1.085 3.075l-.785.375.47.798c.63 1.067.405 1.993-.735 3.023-.878.793-.888.823-.545 1.548.475 1.004.065 1.966-1.194 2.8-.693.458-.91.739-.797 1.03.668 1.725-.062 3.207-1.975 4.01-.037.017.057.304.21.64.153.337.204.9.114 1.26-.203.808-1.455 2.01-2.096 2.01-.363 0-.435.099-.299.417.497 1.16.402 1.67-.49 2.658-.573.634-1.09.981-1.463.981-.497 0-.543.065-.33.462.43.803.272 1.418-.616 2.401-.624.691-1.052.955-1.546.955-.637 0-.665.04-.42.58.146.318.19.871.101 1.229-.234.934-1.472 2.01-2.313 2.01-.619 0-.68.064-.549.583.36 1.436-.857 2.996-2.338 2.996-.487 0-.555.115-.555.947 0 1.263-1.248 2.633-2.4 2.633-.643 0-.746.074-.643.467.264 1.01-1.444 2.873-2.635 2.873-.445 0-.606.158-.715.699-.212 1.064-1.674 2.404-2.622 2.404-.72 0-.8.08-1.063 1.066-.326 1.219-1.146 1.797-2.547 1.797-.687 0-.847.09-.847.477 0 .262-.396.915-.881 1.452-.805.891-.969.969-1.891.895-.944-.075-1.019-.036-1.146.599-.074.373-.48 1-.9 1.392-.648.606-.92.702-1.791.633-.708-.057-1.027.011-1.027.217 0 .165-.396.739-.88 1.275-.83.918-.949.97-2.025.895-1.058-.073-1.164-.03-1.418.583-.468 1.13-1.5 1.688-2.833 1.53-1.103-.13-1.162-.107-1.445.577-.163.393-.597.87-.966 1.06-.806.417-2.162.454-2.547.07-.21-.211-.33-.14-.5.298-.122.316-.498.832-.835 1.146-.546.508-.77.557-2.027.443-1.294-.117-1.434-.083-1.656.406-.49 1.073-2.988 1.739-3.63.967-.383-.463-.715-.458-.715.01 0 .204-.264.633-.586.955-.706.707-2.57.828-3.251.21-.381-.344-.429-.333-.577.137-.394 1.238-2.965 1.899-3.8.975-.405-.446-.435-.435-1.259.477-.718.796-.988.935-1.815.935-.649 0-1.143-.162-1.489-.486l-.517-.487-.776.725c-.544.509-1.014.725-1.575.725-1.058 0-1.969-.436-2.159-1.035-.145-.457-.173-.448-.486.15-.439.837-1.024 1.124-2.295 1.124-.792 0-1.177-.137-1.577-.564l-.53-.563-.73.683c-1.01.944-2.251.942-3.159-.005zm2.664-.638c1.09-.764.3-2.97-1.063-2.97-.801 0-1.51.814-1.505 1.73.002.427.082.894.179 1.038.416.624 1.639.727 2.389.202zm-4.149-.245c.209-.543.172-1.836-.063-2.206-.11-.174-.626-.373-1.147-.443-1.17-.157-1.747.329-1.747 1.473 0 1.39.163 1.553 1.551 1.553.93 0 1.3-.099 1.406-.377zm9.068 0c.218-.568.168-1.842-.088-2.248-.148-.233-.608-.357-1.318-.357-1.229 0-1.542.297-1.547 1.471-.006 1.342.167 1.511 1.547 1.511.93 0 1.3-.099 1.406-.377zm-13.743-.386c.494-.494.338-1.73-.292-2.322-.516-.484-.668-.514-1.397-.273-1.055.348-1.508 1.247-1.111 2.204.251.607.396.677 1.397.677.614 0 1.245-.129 1.403-.286zm18.429-.327c.535-1.408-.464-2.442-2.07-2.14-.785.147-1.039.498-1.039 1.44 0 1.136.214 1.313 1.583 1.313 1.168 0 1.315-.059 1.526-.613zm-22.924-.326c.428-.8.295-1.864-.283-2.269-1.507-1.055-3.145.162-2.568 1.907.26.79.32.824 1.438.824.908 0 1.22-.102 1.413-.462zm27.44-.339c.513-1.555-.606-2.662-2.19-2.168-.702.22-.893.53-.897 1.458-.006 1.343.166 1.51 1.554 1.51 1.228 0 1.277-.025 1.533-.8zm-31.774-1.407c.067-1.035.018-1.156-.552-1.373-1.458-.554-2.503-.056-2.503 1.192 0 1.313.177 1.463 1.64 1.386l1.343-.071.072-1.134zm36.326.64c.535-1.408-.464-2.441-2.07-2.14-.785.147-1.039.499-1.039 1.44 0 1.136.214 1.313 1.583 1.313 1.169 0 1.315-.058 1.526-.613zm-21.386-.7c.415-.414.857-.596 1.454-.596.961 0 2.266.58 2.266 1.008 0 .153.355-.064.787-.484 1.058-1.025 2.2-1.046 3.256-.06l.752.703.254-.557c.482-1.058 2.441-1.45 3.51-.702.525.369.584.353 1.316-.358.946-.916 2.43-1.04 3.134-.262.432.477.439.476 1.203-.358.629-.687.934-.837 1.69-.83.507.005 1.178.15 1.49.323.528.292.63.248 1.4-.605.68-.751.99-.919 1.7-.912.476.004 1.072.163 1.324.354.42.317.505.277 1.021-.482.759-1.117 2.055-1.365 3.712-.71.299.118.417.05.417-.242 0-.224.334-.718.741-1.1.551-.514.976-.692 1.657-.692.503 0 .981.108 1.062.239.205.331.597.3.597-.048 0-.158.343-.641.763-1.074.618-.639.947-.787 1.742-.787.538 0 1.102.123 1.253.274.207.206.37.035.662-.694.46-1.15 1.347-1.61 2.744-1.423.834.112.95.069.95-.351 0-.263.378-.857.841-1.32.773-.773.93-.832 1.922-.72 1.065.12 1.086.108 1.44-.775.446-1.116 1.908-1.9 2.792-1.498.509.232.576.169.952-.888.46-1.293 1.269-1.792 2.65-1.63.453.052.77.009.704-.098-.245-.396.45-1.863 1.102-2.327.372-.265.991-.482 1.377-.482.609 0 .738-.123.981-.937.337-1.124 1.491-2.165 2.4-2.165.562 0 .703-.14.941-.937.364-1.213 1.485-2.165 2.55-2.165.634 0 .779-.08.667-.371-.253-.662.615-2.157 1.5-2.578.451-.216.986-.392 1.188-.392.255 0 .32-.142.216-.471-.186-.585.487-2.052 1.156-2.52.275-.193.81-.35 1.188-.35.612 0 .672-.065.541-.587-.335-1.338.904-2.993 2.242-2.993.4 0 .425-.084.205-.716-.365-1.046.357-2.36 1.64-2.982.962-.468.979-.498.85-1.484-.12-.915-.054-1.084.712-1.85.463-.463 1.062-.843 1.331-.843.437 0 .463-.074.245-.7-.35-1.003.416-2.685 1.41-3.096.68-.282.712-.35.48-1.013-.351-1.009.303-2.393 1.373-2.903.784-.374.796-.401.458-1.049-.191-.365-.348-.828-.349-1.027-.002-.614 1.174-2.13 1.769-2.279.554-.139.557-.157.195-1.077-.337-.86-.333-1.011.056-1.872.26-.578.68-1.045 1.094-1.216l.672-.278-.473-.907c-.588-1.128-.424-1.923.61-2.957.71-.709.74-.805.457-1.467-.544-1.275-.404-2.004.552-2.88.87-.796.873-.807.423-1.304-.287-.318-.453-.853-.453-1.461 0-.776.144-1.089.753-1.633l.754-.674-.46-.903c-.254-.498-.461-1.039-.461-1.204 0-.378.758-1.984.939-1.99.074-.001.291-.102.483-.224.288-.182.24-.305-.271-.708-.341-.268-.69-.762-.774-1.097-.177-.708.435-2.17 1.076-2.57.405-.252.403-.28-.03-.584-.25-.175-.577-.727-.727-1.226-.228-.762-.204-1.037.15-1.721.23-.448.57-.924.754-1.059.27-.198.2-.343-.374-.767-1.096-.81-1.197-1.805-.31-3.063.673-.955.694-1.043.279-1.175-.247-.078-.63-.616-.851-1.196-.386-1.01-.383-1.095.065-2l.469-.947-.732-.732c-.88-.879-1.011-2.296-.288-3.095.435-.481.43-.502-.274-1.16-.904-.845-1.153-1.895-.702-2.972.332-.797.322-.835-.432-1.552-1.046-.995-1.217-1.799-.625-2.934l.473-.907-.73-.302c-1.17-.485-1.777-2.459-1.058-3.442.296-.405.256-.488-.4-.84-1.441-.773-1.909-2.567-.947-3.634.343-.381.342-.418-.007-.418-1.402 0-2.6-1.844-2.083-3.204.142-.374.229-.7.192-.725-.036-.025-.41-.182-.831-.35-.992-.395-1.662-1.95-1.277-2.965.333-.876.335-.87-.291-.87-1.322 0-2.36-1.72-1.877-3.109.236-.676.217-.709-.421-.709-1.344 0-2.64-1.858-2.192-3.142.205-.588.176-.676-.218-.676-1.338 0-2.578-1.655-2.242-2.993.131-.522.071-.586-.548-.586-.482 0-.945-.259-1.513-.844-.668-.69-.813-1.018-.793-1.79.022-.838-.039-.946-.53-.946-1.04 0-1.746-.515-2.148-1.568-.214-.561-.318-1.136-.23-1.277.102-.167-.166-.257-.764-.257-1.242 0-2.521-1.255-2.548-2.5-.017-.805-.055-.84-.895-.84-1.045 0-2.217-1.022-2.464-2.148-.132-.603-.271-.717-.877-.717-.396 0-1.024-.216-1.396-.481-.652-.465-1.347-1.931-1.102-2.328.066-.106-.25-.15-.704-.097-1.37.16-2.191-.338-2.64-1.605-.378-1.06-.432-1.107-1.199-1.018-1.283.15-2.15-.346-2.581-1.475l-.378-.99-1.145.08c-1.02.071-1.227-.002-1.9-.675-.463-.463-.754-.996-.754-1.38 0-.487-.064-.562-.286-.34-.362.362-1.656.37-2.434.016-.338-.154-.754-.67-.964-1.194-.366-.915-.686-1.14-.97-.683-.08.131-.538.239-1.016.239-.655 0-1.064-.189-1.657-.763-.432-.42-.787-.885-.787-1.034 0-.183-.427-.236-1.31-.163-1.515.126-2.408-.305-2.653-1.28-.113-.45-.252-.562-.54-.433-.214.096-.834.22-1.378.275-1.121.114-1.968-.317-2.472-1.258-.298-.557-.355-.573-.866-.237-.301.197-.915.358-1.364.358-.644 0-.99-.193-1.647-.92-.77-.853-.873-.897-1.4-.605-.313.174-.966.32-1.452.324-.702.007-1.05-.163-1.694-.826-.804-.828-.813-.83-1.241-.358-.704.777-2.186.648-3.138-.275-.75-.727-.794-.739-1.375-.358-1.127.738-2.96.37-3.443-.694l-.254-.557-.752.703c-1.056.986-2.199.965-3.256-.06-.433-.42-.787-.637-.787-.483 0 .418-1.298 1.007-2.22 1.007-.53 0-1.03-.202-1.438-.579l-.624-.58-.748.7c-.975.91-2.275.962-3.064.123-.535-.57-.544-.571-1.005-.11-1.055 1.055-2.69 1.212-3.624.347-.586-.543-.63-.55-.765-.125-.397 1.252-2.735 1.867-3.575.94-.545-.602-.763-.602-.955.002-.323 1.018-2.594 1.56-3.537.845-.392-.297-.524-.234-1.281.604-.95 1.051-2.007 1.242-3.059.553-.56-.367-.594-.357-.873.257-.16.35-.587.79-.948.978-.758.391-2.254.453-2.471.101-.231-.373-.836-.28-.836.13 0 .203-.27.64-.602.972-.515.514-.79.594-1.872.544-1.221-.057-1.305-.02-2.193.963-.9.996-.954 1.019-2.172.918-1.193-.099-1.264-.072-1.535.582-.367.888-1.463 1.448-2.616 1.338-.82-.078-.94-.014-1.272.682-.528 1.107-1.36 1.573-2.628 1.472-1.04-.082-1.063-.068-1.326.81-.326 1.089-1.341 1.695-2.632 1.571-.866-.082-.897-.057-1.16.925-.31 1.159-1.156 1.741-2.53 1.741-.688 0-.848.09-.848.477 0 .262-.388.906-.863 1.431-.67.743-1.036.956-1.64.956-.677 0-.797.094-.924.731-.235 1.173-1.365 2.132-2.513 2.132-.733 0-.934.081-.836.337.151.394-.467 1.7-1.168 2.467-.321.351-.766.537-1.285.537-.613 0-.794.1-.794.442 0 1.475-1.104 2.66-2.478 2.66-.541 0-.582.072-.463.806.111.687 0 .95-.759 1.79-.653.723-1.073.984-1.582.984-.616 0-.676.065-.546.584.366 1.458-.86 2.995-2.388 2.995-.556 0-.582.046-.331.596.594 1.305-.632 3.223-2.06 3.223-.442 0-.448.045-.098.813.517 1.134-.787 3.005-2.094 3.005-.65 0-.656.014-.288.823.597 1.31-.618 3.234-2.043 3.234-.313 0-.31.085.026.67.257.448.328.893.213 1.348-.202.806-1.446 2.038-2.057 2.038-.403 0-.397.065.085.951l.517.951-.477.899c-.263.494-.8 1.06-1.194 1.256l-.715.358.347 1.004c.31.896.305 1.092-.038 1.812-.228.479-.688.932-1.13 1.116-.68.281-.714.344-.383.71.93 1.027.586 2.842-.696 3.682-.594.39-.6.42-.23 1.138.52 1.005.26 2.25-.648 3.097l-.712.665.522.706c.671.908.49 2.072-.467 2.988l-.683.655.495.906c.445.811.465 1.008.197 1.903-.196.656-.5 1.09-.887 1.266-.58.264-.581.274-.136.764 1.212 1.335 1.206 2.611-.019 3.57-.712.557-.718.58-.24.836.737.394 1.11 1.74.77 2.772-.151.46-.486.983-.745 1.164-.397.278-.413.35-.102.47.507.194 1.322 1.59 1.324 2.263 0 .305-.327.882-.726 1.282-.4.4-.695.753-.656.784.038.032.308.182.598.333.298.155.651.683.809 1.21.243.812.217 1.062-.202 1.909l-.483.975.838.837c.735.735.82.943.698 1.696-.077.472-.325 1.064-.552 1.314-.394.436-.38.486.332 1.136.914.834 1.204 2.074.708 3.02-.335.64-.317.698.44 1.412 1.074 1.013 1.266 1.894.656 3.007l-.48.878.787.376c1.06.505 1.49 1.822.991 3.027-.34.82-.336.832.396 1.188.406.198.95.754 1.208 1.236.447.833.45.916.072 1.711l-.399.836.806.475c1.276.753 1.694 1.562 1.392 2.695-.25.937-.247.943.652 1.402 1.01.516 1.558 1.676 1.322 2.8-.119.565-.03.705.635 1.013 1.066.494 1.923 1.825 1.775 2.755-.102.64-.013.782.748 1.193 1.1.595 1.692 1.961 1.3 3-.242.643-.22.689.328.689 1.513 0 2.736 1.544 2.372 2.995-.13.519-.07.584.542.584 1.273 0 2.661 1.688 2.354 2.862-.083.317-.008.48.22.48.19 0 .761.211 1.27.47.95.486 1.64 1.771 1.352 2.522-.101.265.07.348.718.348.992 0 2.028.94 2.512 2.281.246.679.417.821.989.821.874 0 2.258 1.328 2.465 2.364.129.644.247.739.925.739.605 0 .97.212 1.641.955.475.525.863 1.17.863 1.432 0 .386.16.476.847.476 1.385 0 2.221.581 2.537 1.762.262.98.305 1.019.898.795.939-.354 2.513.516 2.865 1.584.258.781.304.806 1.284.695.844-.095 1.142-.009 1.75.503.404.34.859.917 1.01 1.284.246.593.378.657 1.194.58 1.165-.112 2.258.445 2.627 1.336.272.655.342.681 1.542.582 1.244-.103 1.268-.093 2.235 1.006.555.63 1.043 1.002 1.13.86.238-.384 1.744-.294 2.414.145.33.217.76.702.954 1.078.295.57.43.644.808.442 1.142-.611 2.928-.094 3.5 1.014.341.66.38.672.929.312 1.035-.679 2.103-.488 3.033.541.736.816.877.882 1.266.597.956-.699 3.248-.14 3.568.87.192.604.41.605.955.002.304-.335.735-.477 1.448-.477.841 0 1.122.126 1.634.734.34.404.617.829.617.944 0 .115.277-.067.615-.405.54-.54.76-.6 1.814-.5.94.091 1.312.256 1.715.762l.515.646.576-.614c.822-.875 2.11-.844 3.028.073.377.377.708.699.735.716.027.016.317-.238.645-.566zm26.48-12.25c-1.83-.633-2.365-1.078-3.101-2.583-.578-1.18-.67-1.654-.67-3.442 0-1.881.062-2.163.667-3.036 1.19-1.716 3.326-2.84 4.805-2.525.393.083 1.216.404 1.828.712 1.253.632 2.32 2.237 2.796 4.208.678 2.813-1.237 6.065-4.047 6.871-.996.286-.81.303-2.278-.205zm2.262-.888c1.399-.56 1.825-1.697 1.825-4.87 0-3.076-.457-4.191-2.002-4.888-1.28-.577-2.202-.217-3.02 1.177-1.682 2.87-1.044 7.646 1.149 8.6.976.423.942.424 2.048-.019zm-58.908.724c0-.211.292-.422.695-.503.44-.088.745-.327.832-.65.232-.864.158-7.96-.089-8.61-.165-.434-.408-.612-.835-.612-.444 0-.603-.126-.603-.477 0-.437.16-.477 1.884-.477 1.572 0 1.91.069 2.049.417.09.23.808 2.136 1.595 4.235.786 2.099 1.458 3.845 1.493 3.88.035.035.47-1.039.97-2.385.497-1.347 1.222-3.28 1.609-4.298l.703-1.85h1.77c1.589 0 1.768.048 1.768.462 0 .326-.193.484-.656.537l-.656.076-.065 4.682-.065 4.682.721.298c.397.164.721.447.721.628 0 .257-.517.329-2.386.329-2.587 0-2.998-.247-1.67-1.003l.715-.407-.011-4.008-.012-4.008-.542 1.432c-.298.787-1.057 2.908-1.686 4.713-.889 2.55-1.237 3.28-1.566 3.28-.331 0-.805-1.022-2.18-4.708l-1.758-4.71-.071 3.338c-.087 4.087.027 4.823.8 5.176.32.146.583.41.583.585 0 .242-.492.32-2.028.32-1.659 0-2.029-.067-2.029-.364zm15.273.032c0-.183.256-.396.568-.475.317-.08.632-.381.713-.682.248-.926.167-8.296-.096-8.788-.136-.254-.458-.462-.716-.462-.31 0-.469-.162-.469-.477 0-.444.159-.477 2.267-.477 2.08 0 2.267.038 2.267.46 0 .296-.192.488-.537.537-.534.076-.537.105-.602 4.808l-.064 4.732.72.272c.397.15.722.41.722.578 0 .228-.606.306-2.387.306-1.88 0-2.386-.07-2.386-.332zm5.489-.026c0-.197.21-.358.468-.358.852 0 .977-.744.909-5.423l-.065-4.48-.656-.076c-.464-.053-.656-.21-.656-.537 0-.425.186-.461 2.386-.461s2.386.036 2.386.461c0 .326-.192.484-.656.537l-.656.076-.065 4.702c-.062 4.536-.047 4.71.427 4.965.3.16.923.198 1.601.096.9-.135 1.33-.386 2.27-1.326.637-.637 1.261-1.159 1.386-1.159.29 0 .306-.09-.252 1.38l-.479 1.259.696-.36c.633-.327.853-.83 2.403-5.48 1.662-4.986 1.725-5.124 2.425-5.277.395-.087.768-.109.829-.048.06.06.893 2.46 1.85 5.332 1.466 4.4 1.832 5.266 2.319 5.502.808.39 1.817.145 1.985-.482.248-.923.153-7.935-.118-8.71-.195-.562-.406-.752-.835-.752-.35 0-.573-.14-.573-.358 0-.284.34-.358 1.634-.358h1.634l2.721 3.874 2.721 3.874.073-2.502c.04-1.376.007-2.958-.074-3.516-.127-.876-.227-1.014-.73-1.014-.358 0-.581-.138-.581-.358 0-.29.384-.358 2.028-.358 1.644 0 2.028.068 2.028.358 0 .218-.222.358-.57.358-.315 0-.637.17-.717.377-.08.208-.144 2.678-.144 5.489 0 4.82-.026 5.11-.443 5.11-.305 0-1.433-1.414-3.614-4.533-1.744-2.494-3.21-4.534-3.256-4.534-.047 0-.085 1.723-.085 3.829v3.83l.714.406c1.502.854.972 1.003-3.578 1.003-3.659 0-4.295-.053-4.295-.358 0-.197.194-.358.432-.358.237 0 .611-.134.83-.298.373-.278.37-.395-.045-1.73l-.446-1.432-1.925-.07-1.925-.068-.237.904c-.583 2.225-.592 2.122.197 2.448.403.167.733.452.733.633 0 .448-3.957.478-4.138.03-.096-.238-.124-.238-.139 0-.014.227-1 .299-4.076.299-3.447 0-4.056-.054-4.056-.358zm14.48-7.17c-.414-1.254-.797-2.14-.852-1.97-.056.171-.4 1.196-.765 2.28l-.663 1.968h3.03l-.75-2.279zM79.343 146.7l-6.134-2.9-.011-1.015c-.006-.557.07-1.015.168-1.016.099 0 3.132-.376 6.742-.833 3.61-.457 7.031-.833 7.604-.833l1.042-.002-.171-1.611c-.095-.886-.21-1.676-.259-1.755-.048-.079-.791-.21-1.652-.29-1.562-.146-1.566-.144-3.43 1.039l-1.866 1.185h-2.663c-2.183 0-2.82-.084-3.53-.464-1.236-.663-3.109-.847-4.148-.408-1.02.43-1.532.97-2.011 2.117-.2.478-.473.937-.606 1.02-.133.082-.243.384-.244.672-.004.729-1.05 2.9-1.937 4.021-.408.515-1.293 1.216-1.967 1.558-1.192.604-1.31.616-4.491.48-2.261-.096-3.489-.254-3.987-.512-.397-.205-1.687-.473-2.869-.595-1.181-.122-2.612-.427-3.18-.679-.568-.25-1.44-.533-1.94-.626-.499-.094-2.857-.873-5.241-1.73-4.833-1.74-6.61-2.054-8.101-1.431-.672.28-1.02.638-1.367 1.4-.255.563-.467 1.203-.47 1.424-.002.22-.288.622-.633.894-.503.396-.97.495-2.331.495-1.44 0-1.843-.096-2.615-.62-1.033-.702-1.589-1.805-1.576-3.13.012-1.35.562-3.636 1.148-4.777.957-1.862 2.184-5.593 2.184-6.64 0-1.032-.62-2.809-2.241-6.43-.598-1.334-.856-2.257-.858-3.066-.002-.996-.116-1.27-.814-1.969-.613-.612-1.016-.811-1.644-.811-1.869 0-2.874-1.097-3.427-3.738-.326-1.558-.345-2.14-.116-3.496.35-2.074.733-2.796 2.23-4.202 1.036-.973 1.19-1.23 1.056-1.763-.15-.596-2.667-2.836-3.917-3.486-.684-.355-3.35-1.213-3.771-1.213-.173 0-.83-.11-1.46-.246-.988-.212-1.227-.385-1.734-1.253-.72-1.23-1.44-3.186-1.44-3.908 0-.298.552-1.18 1.253-2.001 2.36-2.764 2.74-3.423 2.92-5.05.091-.826.36-2.415.597-3.53.237-1.116.505-2.555.595-3.199.275-1.966 1.541-5.904 2.406-7.488.813-1.487.82-1.526.82-4.546 0-1.676-.089-3.149-.197-3.273-.4-.46-.877-2.41-.877-3.59 0-1.052.153-1.446 1.133-2.92 1.573-2.365 4.532-4.836 7.627-6.369l2.419-1.197 1.092-2.003c1.741-3.192 4.442-5.709 7.992-7.449 2.228-1.092 3.958-1.494 3.958-.92 0 .153 2.39.238 6.693.238h6.693l.599-.599c.33-.33.705-.893.834-1.253.34-.944 1.23-1.493 2.662-1.64.714-.072 2.29-.58 3.667-1.181l2.415-1.054h2.888c2.764 0 2.951.032 4.386.753 2.19 1.1 5.328 3.04 5.897 3.644.28.3.606 1.136.755 1.942.288 1.558.468 1.765 1.535 1.77 1.25.007 2.879-1.929 3.312-3.937.266-1.236 1.365-2.08 5.06-3.886 3.41-1.667 3.68-1.756 6.184-2.049 2.396-.28 2.832-.413 5.12-1.568l2.5-1.263 1.915.156c1.449.118 2.32.348 3.588.946l1.675.79 1.116 2.246c1.08 2.17 1.62 4.15 1.62 5.934 0 .61.221 1.13.77 1.806 1.632 2.008 6.16 7.25 6.38 7.387.374.231 4.105 5.56 5.375 7.678 1.533 2.555 1.808 2.656 5.87 2.152 1.63-.202 3.832-.438 4.896-.524 2.104-.17 6.009.2 7.731.733 4.251 1.316 4.229 1.306 6.003 2.846 4.536 3.938 8.547 8.572 11.635 13.443 2.853 4.5 2.57 2.267 3.006 23.754.44 21.755.687 19.47-2.395 22.11-.995.853-2.009 1.93-2.251 2.392-.28.534-.541 1.84-.714 3.567l-.273 2.726-1.32 1.613c-1.486 1.817-1.99 3.232-1.995 5.598-.002 1.17-.125 1.64-.624 2.386-1.43 2.139-3.222 3.536-5.766 4.495-1.586.598-1.93.643-4.057.525-1.277-.071-4.417-.234-6.976-.362-3.26-.163-4.975-.351-5.727-.63-.59-.218-2.023-.55-3.183-.738l-2.108-.342-2.06.84c-1.954.796-2.202.839-4.883.839-4.417 0-4.799-.35-4.83-4.415-.02-2.563-.041-2.667-.943-4.414a30.446 30.446 0 0 1-2.526-6.682c-.72-2.855-.571-7.805.269-8.95.217-.296 1.038-2.737 1.402-4.175.15-.59.536-1.746.857-2.568.321-.822.584-1.942.584-2.489 0-.547.235-1.722.521-2.611.427-1.325.47-1.726.244-2.224-.234-.514-.435-.608-1.296-.607-1.09 0-2.384.636-2.77 1.358-.127.237-1.54 3.787-3.138 7.89l-2.908 7.459.356 1.609c.196.885.472 2.038.613 2.563.297 1.105.041 1.994-.706 2.46-.263.165-1.231.395-2.15.51-1.977.248-2.525.566-3.322 1.928-1.261 2.153-2.15 2.611-5.071 2.617-.755 0-1.373.03-1.373.062 0 .033-.161.973-.358 2.088-.196 1.116-.357 2.11-.357 2.208 0 .098.354.179.786.179.433 0 4.794.59 9.692 1.312 4.897.722 8.946 1.313 8.997 1.313.051 0 .093.751.093 1.67v1.67h-.813c-.447 0-6.646.806-13.776 1.79-7.13.985-13.073 1.78-13.207 1.767-.134-.012-3.004-1.328-6.378-2.923zm6.253 1.063c0-.523-.13-.98-.298-1.045l-5.596-2.173c-2.914-1.132-5.41-2.058-5.548-2.058-.138 0-.247.188-.241.418.007.308 1.49 1.114 5.667 3.078 3.112 1.463 5.739 2.671 5.837 2.684.099.014.18-.393.18-.904zm4.942.35c1.285-.187 4.216-.572 6.513-.857 4.063-.503 5.788-.744 10.977-1.531 1.378-.21 2.962-.44 3.52-.511.88-.114 1.014-.208 1.014-.713 0-.52-.102-.582-.946-.582-.52 0-6.34.644-12.934 1.432a4428.16 4428.16 0 0 1-12.06 1.431c-.039 0-.071.376-.071.836 0 .793.041.835.826.835.454 0 1.877-.153 3.161-.34zm-26.686-3.238c1.448-1.221 2.472-2.865 1.786-2.865-.367 0-.366-.038.019-.462.525-.58.302-.97-.556-.97-.71 0-1.297.532-2.14 1.942-.668 1.119-1.063 1.203-6.233 1.324l-4.17.097-2.273-1.063a55.72 55.72 0 0 0-4.531-1.838c-1.242-.427-2.584-.966-2.983-1.2-.399-.232-1.477-.703-2.396-1.046-1.69-.632-5.926-2.724-8.051-3.977-.637-.375-1.259-.682-1.382-.682-.25 0-1.375 2.326-2.723 5.627-.742 1.818-.85 2.299-.674 2.983.162.63.35.832.822.889.52.061.72-.12 1.327-1.194 1.274-2.257 3.593-4.01 5.306-4.01.398 0 3.006.923 5.794 2.052 2.788 1.128 5.392 2.164 5.786 2.302l1.193.422c2.332.833 4.57 1.46 5.966 1.672 3.336.506 3.965.644 4.247.932.197.2.963.268 2.44.215l2.155-.078 1.271-1.072zm79.709-1.29c-.138-.497-.193-.96-.124-1.03.069-.069.694-.148 1.39-.176 2.416-.097 2.557-.127 2.815-.609.18-.337.182-.753.006-1.406-.385-1.43-.15-1.758 1.16-1.624.605.061 1.823.253 2.707.426 2.236.438 2.903.186 3-1.13.06-.837-.028-1.062-.594-1.507-.765-.602-1.343-.565-3.505.223-2.464.898-3.79.33-2.936-1.258.546-1.014 1.535-1.598 2.704-1.597 1.19.001 4.855-1.163 4.855-1.543 0-.423-.73-.993-1.508-1.179-.862-.205-2.175-1.064-2.554-1.671-.254-.407-.21-.545.32-1 .721-.621 1.54-.516 3.813.49.756.333 1.573.607 1.816.607.581 0 1.069-.61.88-1.1-.082-.216.024-1.013.237-1.772.317-1.129.336-1.538.105-2.238-.234-.709-.396-.856-.944-.856-.807 0-2.352.8-4.088 2.115-1.416 1.074-2.895 1.358-3.182.61-.465-1.21.1-2.55 1.581-3.75.998-.809 1.114-.838 5.791-1.478 2.625-.359 5.001-.693 5.28-.742.28-.05.697-.379.928-.731.396-.605.402-1.083.092-8.534-.399-9.598-.41-20.846-.023-23.192.236-1.433.22-1.897-.1-2.983-.455-1.544-2.655-5.917-3.926-7.804-1.096-1.627-3.56-3.866-5.629-5.113-1.32-.797-1.834-.952-4.18-1.261-1.47-.194-3.062-.353-3.537-.353-1.703 0-2.127-1.06-.716-1.79.45-.233 1.041-.296 1.86-.2.66.079 1.505.058 1.877-.045.671-.187.67-.19-.278-.371-.525-.101-2.431-.261-4.236-.356-3.603-.19-4.015-.356-3.62-1.465.187-.528.482-.682 2.01-1.05.984-.236 2.219-.436 2.744-.444 1.557-.022 1.73-.353.43-.826-.63-.23-1.485-.57-1.898-.754-.414-.184-.915-.335-1.115-.335-.199 0-1.03-.171-1.846-.38-1.579-.405-1.884-.387-4.228.245-2.092.565-4.368 1.675-5.585 2.724-1.483 1.279-2.895 1.858-3.67 1.505-.767-.35-.821-.346-.821.053 0 .18-.17.47-.378.642-.207.172-.694.941-1.082 1.708l-.704 1.396.246 3.869c.135 2.128.246 3.95.246 4.048 0 .098.418.178.927.178.53 0 1.051.153 1.222.358.163.197.482.358.708.358.36 0 .43-.377.562-2.978.092-1.81.295-3.322.518-3.855.748-1.792 4.18-5.119 5.375-5.212.2-.016.507-.117.683-.227.385-.238.736.23.741.99.002.336-.238.663-.652.889-1.334.726-2.696 1.954-3.453 3.115-.749 1.147-.782 1.3-.86 3.97l-.081 2.778.952 1.995c.862 1.807 1.27 2.307 4.315 5.29l3.362 3.295v1.911c0 1.051.1 2.099.223 2.328.123.23.34 2.826.481 5.771.142 2.945.484 7.65.76 10.454.533 5.403.523 5.507-.563 5.517-.903.008-1.085-.894-1.776-8.826l-.676-7.756-.174 2.864a477.069 477.069 0 0 0-.376 8.113c-.193 5.046-.323 5.909-1.127 7.517-.163.328-.371 1.145-.461 1.816-.201 1.495-.902 2.718-1.557 2.718-.302 0-.48-.158-.48-.424 0-.233.163-6.151.363-13.15.285-9.973.302-12.9.077-13.52-.238-.66-.512-.875-1.64-1.286-.746-.272-1.436-.494-1.535-.494-.1 0-.593-.328-1.098-.727l-.918-.727-1.728 1.025c-2.8 1.662-4.294 3.208-5.555 5.749-.6 1.21-1.092 2.28-1.092 2.377 0 .27 1.382.212 1.553-.064.082-.133.76-.626 1.506-1.097.746-.47 1.947-1.412 2.668-2.092 2.074-1.952 2.464-2.25 3.162-2.424.619-.154.656-.117.653.638-.005 1.168-2.146 3.544-5.366 5.953a348.633 348.633 0 0 0-3.417 2.583c-.994.775-3.384 3.995-3.384 4.56 0 .231-.212.889-.472 1.46-.26.573-.474 1.363-.477 1.757-.006.802-.593 3.776-.817 4.138-.08.129-.314 1.129-.522 2.221-.381 2.01-1.11 4.482-1.565 5.307-.257.466-.058 5.845.261 7.046.217.815 1.067.929 1.968.263.81-.599 1.386-.34 1.386.622 0 .798.382.706.685-.165.193-.552.17-1.095-.092-2.207-.477-2.025-.437-4.972.117-8.515.505-3.234 1.236-6.67 1.63-7.663.303-.764.869-1.016 1.249-.558.414.5.205 6.728-.25 7.435-.635.987.01.879 1.14-.192 2.176-2.06 6.977-4.899 8.682-5.133 1.264-.173 1.144-.397 1.638 3.051.295 2.065.22 2.635-1.103 8.394-.458 1.988-.897 3.99-.976 4.45-.089.511-.587 1.349-1.284 2.159-2.407 2.799-3.377 6.749-2.14 8.715.435.694 1.677 1.499 2.594 1.682 1.185.237 2.509-.454 2.89-1.51.32-.883.234-1.407-.61-3.713-.785-2.144-.18-6.456 1.327-9.452.974-1.939 1.104-2.082 1.582-1.755.57.39.567 1.268-.018 5.31l-.61 4.226.762 2.107c1.019 2.815 1.648 3.452 4.741 4.796 2.334 1.015 3.625 1.499 3.752 1.407.03-.021-.059-.445-.196-.942zm-1.787-9.09c-.082-.326-.045-3.198.082-6.383l.231-5.79 1.213-2.933c.668-1.614 1.582-3.44 2.033-4.057.45-.618 1.337-2.086 1.971-3.264 1.223-2.27 1.678-4.269 1.285-5.64-.11-.382-.431-2.974-.715-5.758-.283-2.785-.655-5.334-.828-5.665-.172-.332-.887-1.193-1.589-1.914-1.448-1.489-2.35-2.616-2.35-2.94 0-.263.354-.162 2.387.685 1.728.72 2.483 1.257 4.618 3.288l1.464 1.392-.595.44c-1.613 1.194-1.487.389-1.19 7.56.266 6.464.266 6.479-.26 7.509-.29.567-.934 1.516-1.433 2.108-2.127 2.522-2.604 4.885-2.604 12.898 0 4.69-.065 5.974-.299 5.897-.164-.054-.354-.65-.423-1.326-.159-1.552-.47-1.902-1.086-1.22-.365.402-.473.933-.528 2.57-.037 1.135-.12 2.305-.183 2.6-.162.754-1.007.714-1.2-.056zm17.018-31.714c-.22-.538-2.392-23.541-2.237-23.696.244-.244.615 1.662.866 4.46.148 1.64.59 5.506.981 8.59.515 4.05.693 6.37.644 8.352-.04 1.588-.147 2.555-.254 2.294zm-32.97-28.206c-.085-.339-.073-1.279.027-2.088l.182-1.471.162 1.312c.239 1.926.238 2.864-.003 2.864-.117 0-.282-.278-.367-.617zm.477-4.226c.09-.235.223-.368.296-.294.074.073 0 .266-.163.428-.235.234-.263.206-.133-.134zm-7.012 72.301c.51-.203.802-.169 1.432.17 1.102.591 2.29.432 2.9-.388.43-.58.486-1.023.5-4.057.016-3.329.04-3.477 1.04-6.627.562-1.771 1.708-4.617 2.547-6.323.84-1.707 1.749-3.743 2.02-4.526.526-1.513.655-3.342.253-3.59-.363-.225-4.327 2.172-4.987 3.015-.884 1.13-1.651 3.522-2.54 7.92-.882 4.36-1.261 5.85-1.606 6.305-.122.162-.319 1.153-.436 2.202-.216 1.933-.785 3.46-2.042 5.483-.577.93-.6 1.035-.19.865.258-.106.757-.308 1.11-.449zm-62.372-1.148c2.09-.364 3.906-1.137 5.186-2.207l1.064-.889v-1.93c0-3.658-1.768-11.553-2.773-12.387-.311-.259-.337-.205-.192.399.46 1.917 1.357 4.847 1.712 5.59.877 1.836.166 4.515-1.423 5.366-1.175.63-1.48.322-1.41-1.422.07-1.72-.41-1.714-2.46.03-.516.44-1.082.799-1.259.799-.653 0-6.4-1.756-6.57-2.007-.096-.143-.176-.866-.178-1.607-.003-1.346-.004-1.346-.955-1.726-.687-.275-1.342-.34-2.354-.234-.93.097-1.458.056-1.568-.123-.092-.148-.416-.27-.72-.27s-.932-.158-1.395-.351c-.744-.31-.983-.31-2.054.008-1.462.434-2.077.202-3.425-1.29-2.13-2.357-1.934-2.586 2.03-2.371 3.098.168 4.889-.046 4.578-.549-.074-.12-1.155-.22-2.402-.22-1.246 0-2.733-.117-3.303-.26-.869-.219-1.052-.368-1.133-.923-.083-.563.014-.703.649-.932.41-.149 1.169-.275 1.684-.28 1.678-.019 3.358-.543 4.017-1.256.34-.367.621-.743.623-.835.002-.091.163-1.982.36-4.2.197-2.22.294-4.099.216-4.177-.079-.078-.397.154-.708.515-.674.783-1.433.857-1.617.157-.071-.274-.026-1.144.1-1.932.128-.788.166-1.64.086-1.892-.418-1.316-2.94-2.834-4.713-2.838-.422 0-1.04-.143-1.373-.317-.47-.246-1.026-.265-2.485-.085-1.403.172-1.997.157-2.343-.059-.388-.242-.553-.205-1.015.23-.973.914-1.194 1.784-.721 2.834.393.87 1.733 2.182 2.972 2.908 3.43 2.011 4.506 3.262 4.793 5.576.256 2.062.125 2.517-.725 2.517-.839 0-1.49-.788-2.033-2.46-.441-1.358-1.027-2.12-2.128-2.764-4.118-2.413-4.05-2.36-4.98-3.949-.497-.849-1.114-1.61-1.371-1.692-.732-.232-2.503.753-3.064 1.705-.751 1.273-.656 2.723.283 4.314l.775 1.315 1.627-.147c1.597-.144 1.645-.131 2.65.692.91.746 1.176.838 2.414.838 1.072 0 1.511.112 1.91.486.611.575.53 1.572-.145 1.786-.509.162-1.636 2.042-2.34 3.902-.618 1.635-.418 2.85.9 5.47 1.458 2.901 1.812 3.226 4.223 3.874 1.139.306 2.35.783 2.694 1.06.911.735 1.782 1.06 3.318 1.235 1.253.143 1.488.273 2.92 1.612 1.037.97 2.252 1.794 3.643 2.47 1.805.877 2.297 1.014 3.649 1.014.86 0 1.77-.111 2.024-.247.32-.171.607-.17.934.006.4.215.45.414.325 1.321l-.146 1.068h.788c.434 0 1.484-.12 2.334-.269zm35.6-2.177c-.004-.572-.883-5.439-1.004-5.56-.104-.104-1.62 5.23-1.62 5.697 0 .089.591.161 1.313.161.892 0 1.312-.095 1.31-.298zm-21.707-2.867a6.368 6.368 0 0 0 1.53-.837c.378-.298.934-.604 1.233-.679.686-.172 1.356-1.167 1.174-1.741-.076-.24-.35-.627-.61-.862-.634-.574-.593-1.558.126-2.977.328-.647.597-1.32.597-1.496 0-.419-1.361-2.56-1.627-2.56-.113 0-.328.268-.478.596-.199.437-.457.596-.963.596-1.064 0-1.334-.543-1.466-2.954l-.12-2.169-1.707 2.74c-.939 1.508-1.78 3.091-1.868 3.518-.173.83.24 5.574.61 7.008.505 1.957 1.59 2.51 3.569 1.817zm10.97-1.906c-.001-1.07-.409-3.82-1.068-7.206-.945-4.853-1.15-5.593-1.808-6.508l-.741-1.033 1.093-1.032c1.037-.98 1.092-1.098 1.089-2.321-.005-1.648-.528-3.436-1.006-3.436-.311 0-3.964 4.127-4.862 5.494-.444.675-.121 1.76 2.37 7.957l2.048 5.098-.726 1.44c-.4.791-.76 1.794-.8 2.228l-.073.788 1.493-.14c.993-.092 1.548-.048 1.66.131.091.149.428.27.749.27.564 0 .582-.054.581-1.73zm6.763.062c.536-.638.586-.861.465-2.088-.074-.756-.327-1.756-.56-2.223-.334-.664-.507-2.113-.8-6.682l-.373-5.833-1.319-1.193c-1.776-1.607-1.762-2.059.118-3.736l1.43-1.275.955-5.25c.525-2.888.953-5.358.951-5.489-.002-.131-.204.191-.449.716-.786 1.688-2.796 3.353-5.3 4.392-1.526.632-1.66 1.397-.685 3.928l.719 1.867-.256 2.662c-.141 1.464-.373 3.36-.516 4.213-.142.854-.306 2.878-.363 4.498-.15 4.237.664 7.272 2.72 10.144 1.599 2.234 2.281 2.516 3.263 1.349zm9.15-2.545c.96-1.005 1.746-1.937 1.746-2.071 0-.44-.569-1.83-.75-1.83-.096 0-.249-.491-.34-1.093-.163-1.095.399-3.915.912-4.57.258-.33.568-4.359.336-4.359-.204 0-1.035 1.664-1.469 2.942-.197.582-.47 2.17-.604 3.532-.22 2.206-.391 2.805-1.58 5.513-.732 1.671-1.27 3.201-1.193 3.4.308.804 1.197.362 2.942-1.464zm-42.68-1.878c.15-.332.437-.666.635-.742.253-.097.36-.486.36-1.32 0-.967-.136-1.35-.75-2.115-.43-.533-1.119-1.054-1.611-1.216-.474-.156-1.264-.607-1.756-1.002-.826-.663-.895-.814-.895-1.95 0-.905.247-1.8.932-3.38 1.495-3.447 3.098-6.517 4.348-8.33.692-1.003 1.163-1.95 1.163-2.335 0-.813-.545-2.14-1.143-2.781-.666-.715-2.565-.887-3.95-.358-1.04.397-1.116.49-1.61 1.999-.285.87-.663 1.85-.84 2.178-.576 1.073-1.734 5.083-2.136 7.398-.216 1.247-.393 3.402-.393 4.79 0 2.351.05 2.622.746 4.001.485.96 1.478 2.226 2.83 3.603 1.83 1.866 2.186 2.126 2.938 2.143.695.016.909-.094 1.132-.583zm36.522-1.966a2.754 2.754 0 0 1 1.406-1.316c.521-.23 1.23-.68 1.575-1 .606-.56.628-.673.628-3.264v-2.683l4.54-8.032 4.54-8.032-.483-1.129c-.266-.62-.484-1.27-.484-1.442 0-.173.683-1.134 1.517-2.137 1.471-1.77 2.063-2.994 2.063-4.267 0-.88.46-1.773.983-1.91.778-.204.493-.61-.935-1.33-.982-.497-1.916-1.286-3.22-2.722-2.641-2.91-3.261-2.94-4.136-.204-.401 1.254-.399 1.298.16 2.744.406 1.053.59 2.085.651 3.647.102 2.604-.092 3.165-1.94 5.62-1.242 1.65-3.018 5.538-3.018 6.607 0 .222-.158.63-.352.907-.194.277-.417 1.133-.496 1.903-.33 3.25-.777 4.552-3.601 10.513-1.201 2.536-1.269 3.271-.554 6.07.266 1.044.421 2.002.344 2.127-.078.126-.03.228.106.228.137 0 .454-.404.706-.898zm11.335-.403c.236-.36.714-.647 1.239-.746l.855-.16-.159-1.158c-.147-1.067.021-1.635 2.148-7.277 1.27-3.365 2.427-6.692 2.574-7.392.238-1.131.218-1.327-.175-1.761-.36-.399-.733-.489-2.022-.489-1.316 0-1.653.085-2.014.507-.803.937-1.303 3.01-1.7 7.038-.216 2.198-.536 4.433-.711 4.967-.175.534-.384 1.723-.464 2.642-.081.919-.21 2.288-.285 3.042-.15 1.492.083 1.75.714.787zm-36.374-7.826c2.466-4.416 2.906-5.473 2.41-5.78-.324-.2-4.394 2.843-5.623 4.204-.816.902-.832.962-.832 2.99 0 1.59.091 2.169.395 2.504.828.915 1.136.584 3.65-3.918zm-9.719 2.367c.274-.43.217-1.97-.1-2.714-.42-.985-1.152-1.532-1.536-1.148-.462.463-.635 1.447-.46 2.617.146.971.22 1.064.921 1.143l.763.086-.596.291c-.59.289-.589.29.117.148.392-.079.793-.27.891-.423zm6.168-7.532c.374-.277.748-.503.832-.503.4 0 1.574-1.599 1.9-2.59.2-.61.46-1.324.576-1.586.116-.263.271-.665.345-.895.163-.512.823-.535 1.732-.061 1.048.547 1.412.443 2.274-.645.741-.935.801-1.146.878-3.074.141-3.557-.15-4.376-2.613-7.325-2.018-2.416-2.129-2.606-2.008-3.45.124-.86.091-.91-.9-1.375-.822-.387-1.156-.744-1.665-1.782-.785-1.6-1.44-1.969-4.106-2.313-2.527-.326-3.957.013-4.667 1.108-1.046 1.613-1.342 1.983-2.172 2.708-1.113.973-2.255.997-4.785.101l-1.852-.656-3.946 1.969c-2.876 1.435-4.193 1.968-4.859 1.968-.502 0-.984-.071-1.071-.158-.352-.352-1.473-.267-2.342.176-1.021.521-1.146.945-.465 1.584.25.235.72 1.025 1.042 1.756.52 1.18.721 1.387 1.796 1.85 1.807.776 3.652.706 5.62-.214 1.85-.867 2.629-.856 2.732.038.056.48-.116.746-.766 1.192-1.629 1.116-1.602 1.945.127 3.915.597.68.906.839 1.634.839.771 0 .986-.129 1.533-.917.743-1.073 1.152-3.18.956-4.922-.214-1.9.268-2.982 1.664-3.736 1.783-.963 3.166-1.03 6.188-.298 1.417.344 2.746.793 2.952 1 .34.34.326.413-.158.805-.417.338-.98.435-2.594.448-1.134.01-2.277.1-2.54.203-.476.187-.476.187 0 .329.263.078.908.214 1.433.302 1.528.257 3.192 2.208 3.952 4.636.104.329.41 1.188.683 1.908.868 2.295.63 3.475-1.068 5.29-1.202 1.285-1.36 2.105-.525 2.712.763.554 3.322.351 4.253-.337zm29.53-5.216l.645-2.685c.44-1.822 2.515-6.644 4.16-9.664.813-1.492.892-1.786.742-2.745-.093-.59-.35-1.42-.573-1.845-.222-.424-.471-1.26-.553-1.856-.15-1.089-.012-1.582 1.134-4.075.893-1.94.577-6.297-.58-8.015-.598-.886-3.443-2.232-4.208-1.99-.244.078-1.591 1.372-2.994 2.876-2.417 2.592-2.6 2.735-3.49 2.735-.515 0-1.194-.168-1.508-.373-.313-.206-1.195-.43-1.96-.497-1.823-.162-2.704-.49-3.358-1.25l-.536-.624v.997c-.002 1.163-.47 1.747-1.4 1.747-.545 0-.941-.395-2.494-2.482-1.015-1.366-1.985-2.536-2.154-2.6-.708-.272-1.64.197-2.773 1.395-.662.7-1.204 1.472-1.204 1.716s-.107.551-.239.683c-.131.131-.447 1.307-.702 2.613-.254 1.306-.69 3.009-.97 3.785-.472 1.314-.489 2.526-.034 2.526.106 0 1.204-1.124 2.441-2.498 1.504-1.672 2.565-2.634 3.203-2.908 1.22-.524 3.321-1.002 4.49-1.022.883-.014 2.96.508 3.8.957.227.122.607.221.844.221.236 0 .855.227 1.375.505.52.277 1.536.802 2.258 1.166 1.599.807 2.225 1.46 2.749 2.863.22.591.616 1.605.88 2.254.428 1.05.466 1.53.345 4.414l-.135 3.236.59-2.745c.457-2.13.578-3.33.538-5.369-.044-2.272.017-2.753.453-3.58.826-1.562 2.204-3.018 2.78-2.935.755.108.738.7-.071 2.544-.655 1.492-.731 1.912-.731 4.04 0 1.857-.104 2.612-.477 3.454-.608 1.375-1.432 6.166-1.432 8.327 0 .914.117 2.418.26 3.343.19 1.217.19 1.754 0 1.943-.283.284-.346 1.334-.115 1.935.258.673.785.4 1.005-.517zm-13.081-1.746c0-1.929-.26-2.37-1.39-2.37-.863 0-.92.053-1.661 1.555-.422.856-.767 1.607-.767 1.67 0 .064.51.117 1.133.12.624.001 1.295.107 1.492.234.196.127.545.233.775.235.352.003.418-.223.418-1.444zm30.754-1.781c4.587-.73 5.097-.861 6.268-1.622 1.063-.69 1.212-.904 1.673-2.397.575-1.867.516-4.272-.136-5.52-.206-.393-.375-.903-.376-1.133 0-.23-.109-.417-.24-.417-.132 0-.239.247-.239.548 0 1.061-.914 1.449-1.711.727-.29-.262-.437-.729-.437-1.386 0-.545-.14-1.182-.31-1.416-.288-.394-.397-.355-1.548.554-2.677 2.117-5.092 6.307-5.649 9.802-.223 1.4-.247 2.121-.077 2.327.3.364.032.37 2.782-.067zm-81.385-3.89c.065-.462-.015-.543-.478-.477-.37.052-.582.264-.634.635-.066.462.014.543.477.477.37-.053.582-.264.635-.635zm56.597.063c0-.175.188-.428.417-.562.23-.133.31-.243.18-.244-.132 0-.612.308-1.067.686-.82.679-.821.685-.18.562.358-.068.65-.267.65-.442zm-61.796-1.065c.381-.272 1.182-1.436 1.82-2.648 1.269-2.405 2.15-3.257 2.936-2.837.373.2.483.499.483 1.31 0 1.965.898 1.734 2.387-.614 1.467-2.313 1.956-2.623 4.364-2.758 1.078-.061 2.19-.157 2.47-.214.676-.136.875-.724.465-1.372-.183-.289-.405-.874-.494-1.3-.089-.427-.26-.776-.381-.776s-.22-.193-.22-.43c0-.236-.096-.53-.214-.656-.118-.124-.29-.897-.382-1.718l-.167-1.491h.702c.635 0 .857.251 2.368 2.684 1.484 2.391 1.747 2.693 2.402 2.758.643.064.755-.015.888-.621.151-.688-.282-11.756-.467-11.942-.053-.053-.587-.022-1.186.068-.8.12-1.196.326-1.49.776-.38.58-.375.69.107 2.072.691 1.98.927 3.86.543 4.323-.4.481-1.27.454-1.87-.059-.357-.304-.565-.933-.77-2.326-.437-2.973-.907-4.345-1.654-4.83-.358-.23-1.202-.778-1.878-1.216-.675-.438-1.227-.884-1.227-.99 0-.33-1.663-1.197-2.293-1.197-.327 0-.885-.147-1.24-.326-.695-.351-8.334-.725-8.81-.431-.144.089-.773 1.176-1.398 2.415-1.096 2.173-1.168 2.448-2.036 7.755-.495 3.026-1.025 5.931-1.179 6.456-.186.637-.746 1.411-1.684 2.328-1.62 1.584-1.73 2.088-.8 3.677.532.906.71 1.035 1.438 1.035 1.047 0 2.746-1.488 3.58-3.135.613-1.21 1.33-1.629 1.93-1.13.52.43.321 2.63-.315 3.497-.7.95-.843 1.986-.361 2.597.311.395 2.432 1.68 2.87 1.74.045.005.388-.208.763-.474zm5.506-11.965c-.024-3.421.035-4.125.427-5.038.25-.583.53-1.774.624-2.645.175-1.635.432-2.012.685-1.006.113.452-1.237 10.686-1.623 12.309-.047.197-.098-1.432-.113-3.62zm-7.874 2.688c-.405-.256-.282-4.166.155-4.915.224-.383.28.074.286 2.327.004 1.542-.02 2.802-.053 2.8-.032-.002-.207-.097-.388-.212zm58.938 8.544c.275-.276.722-1 .991-1.61.27-.61.756-1.513 1.082-2.005.549-.83.675-.895 1.753-.895 1.43 0 1.534-.385.147-.543-.867-.098-1.197.006-2.267.72-.69.46-1.253.92-1.253 1.023 0 .103-.376.637-.835 1.186-1.368 1.638-1.027 3.533.382 2.124zm9.445-.498c-.076-.19-.132-.134-.144.144-.01.252.046.393.126.314.079-.08.087-.286.018-.458zm-14.003-5.088c.361-1.093.883-1.36 1.991-1.02.48.147.946.193 1.036.103.09-.09.224-.618.298-1.173.169-1.263.728-1.41 2.024-.53 1.367.927 1.7.69.836-.592-.94-1.394-.878-2.245.17-2.347.64-.062 1.01.17 2.563 1.61.998.927 1.88 1.684 1.958 1.684.078 0-.257-.725-.745-1.61-1.082-1.967-2.401-3.401-3.127-3.401-.295 0-1.366-.43-2.38-.955-2.839-1.469-3.947-1.215-4.783 1.095-.153.423-.877 1.644-1.61 2.715-.734 1.07-1.334 2.034-1.334 2.141 0 .108.307.323.683.479.458.19.863.67 1.233 1.46.304.648.633 1.178.732 1.178.098 0 .303-.376.455-.837zm46.585-.672c1.574-1.458 1.69-2.547.27-2.547-1.174 0-1.992.877-1.992 2.137 0 .854.064.965.562.965.309 0 .83-.25 1.16-.555zm-67.8-6.433c1.086-.73 1.138-1.391.205-2.57-1.859-2.347-2.744-5.986-2.985-12.277-.08-2.1-.243-4.395-.362-5.099-.193-1.137-.135-1.511.509-3.34 1.374-3.904 3.695-7.791 6.537-10.95 1.452-1.614 1.901-1.626 2.277-.06.192.802.408 1.193.66 1.193.205 0 1.155-.43 2.112-.954.957-.525 2.04-.955 2.408-.955.424 0 1.304.453 2.4 1.236 1.436 1.024 1.706 1.32 1.58 1.73-.208.678-.125.64-1.748.787-1.18.107-1.542.053-1.919-.288-.462-.419-1.198-.356-1.198.102 0 .132.274.42.61.64.59.386.605.46.466 2.213-.079.997-.058 1.927.046 2.066.105.14.932.565 1.837.946 1.007.424 2.12 1.136 2.864 1.833 2.009 1.883 3.203 1.525 4.66-1.394.449-.9 1.093-1.943 1.431-2.316.78-.863 3.515-2.23 4.845-2.422 1.638-.237 4.503.445 6.583 1.566 2.564 1.382 3.149 2.31 3.952 6.273.336 1.661.722 3.228.858 3.48.135.253.246.747.246 1.097 0 .851 1.205 2.331 2.939 3.607 2.197 1.618 2.31 1.572 4.89-1.998 1.48-2.049 2.193-3.246 2.193-3.683 0-.356-.537-1.531-1.193-2.612-1.142-1.88-1.413-2.84-.991-3.505.327-.515.983-.052 1.574 1.112.692 1.362 1.978 2.71 2.981 3.126 1.52.63 3.588-.75 4.866-3.246.21-.41.764-.973 1.232-1.248.467-.276.911-.663.987-.86.439-1.144 4.649-2.012 6.274-1.292.976.432.964 1.091-.026 1.348l-.762.197.786.326c.619.256 1.023.269 1.896.06.61-.146 1.566-.334 2.123-.418.937-.14 1.015-.208 1.015-.876 0-.465-.643-1.844-1.79-3.847-.985-1.717-1.79-3.34-1.79-3.606 0-.662-5.194-5.861-5.855-5.861-.27 0-.61-.117-.753-.26-.401-.402-1.173.123-1.48 1.006-.374 1.073-.329 1.954.22 4.243.477 1.988.89 2.624 1.715 2.64.43.008.903.682.903 1.29 0 .527-2.501 3.142-3.335 3.487-.398.166-.9.215-1.135.112-.232-.101-.564-.16-.738-.132-1.223.202-1.37-2.45-.299-5.415.52-1.442.627-1.989.418-2.157-.443-.356-1.329.11-1.78.939-.87 1.596-2.486 3.554-2.932 3.554-.27 0-.697-.384-1.05-.945-.997-1.578-1.892-1.753-4.29-.837-.882.337-1.108.581-1.708 1.844-.704 1.484-1.391 2.324-1.9 2.324-.413 0-.87-1.263-.701-1.938.1-.397-.028-.824-.404-1.355-1.851-2.613-2.951-4.085-3.06-4.094-.068-.006-.336.607-.596 1.361l-.473 1.373-2.706 1.372c-1.604.813-3.015 1.372-3.464 1.372-1.55 0-3.65-1.033-6.078-2.987-1.422-1.144-2.644-1.152-4.119-.028-1.917 1.462-3.575 1.74-4.123.693-.318-.606-.284-.764.488-2.297.561-1.115.783-1.829.687-2.212-.14-.557-.191-.567-3.014-.567-4.27 0-4.737-.372-4.402-3.507.226-2.104.287-2.22 1.173-2.22.684 0 .824.131 1.404 1.313.354.721.804 1.312 1 1.312.197 0 .68-.639 1.076-1.423.8-1.584 1.246-1.934 2.23-1.746.503.097.826-.024 1.314-.491.878-.841 1.624-.64 1.947.525.338 1.218.43 1.307 1.994 1.934 1.65.662 1.803.546 1.646-1.26-.13-1.493-.94-2.857-2.026-3.409a42.405 42.405 0 0 1-2.09-1.187c-.721-.436-1.978-1.02-2.792-1.297-1.682-.574-2.088-.471-2.953.744-.503.707-.588.736-1.747.603a31.122 31.122 0 0 1-1.98-.29c-.627-.124-.868-.04-1.34.47-.433.467-.811.622-1.51.622-1.055 0-1.997.543-1.993 1.148.001.222.6 1.477 1.33 2.79 2.12 3.811 2.369 4.743 1.747 6.527-.245.701-.339.751-1.4.751h-1.137l-.413-2.079c-.513-2.585-1.18-4.396-1.959-5.322l-.599-.712h-4.484c-4.356 0-4.524.018-5.885.64-3.422 1.562-5.317 3.15-6.456 5.412-.913 1.814-1.063 2.94-.55 4.13.388.902.048 1.51-.844 1.51-.459 0-.589.195-.838 1.254-.162.689-.453 1.655-.646 2.147-.308.784-.45.895-1.144.895-.963 0-1.44-.44-1.809-1.67-.243-.811-.213-1.086.232-2.121.282-.654.512-1.333.512-1.51 0-.616 1.64-3.674 3.675-6.857 1.267-1.98 1.968-3.294 1.831-3.43-.345-.346-3.225 1.115-4.935 2.502-1.6 1.298-3.504 3.542-3.909 4.606-.458 1.205-.282 2.94.474 4.662.784 1.785.87 2.295.418 2.447-.238.08-.238.173-.002.46.377.457.159.673-.68.673-.55 0-.798-.225-1.444-1.306-.505-.844-1.19-1.571-1.937-2.055l-1.155-.748-1.52.748c-1.612.794-4.127 3.236-5.61 5.449-.701 1.045-.75 1.242-.62 2.53.107 1.073.31 1.612.884 2.336 1.008 1.273 1.304 1.095 1.207-.727-.134-2.514.875-2.952 2.113-.918 1.14 1.874 1.633 2.327 2.533 2.327 1.03 0 1.28-.5 1.28-2.556 0-1.742.339-2.54 1.172-2.758.82-.214 1.341.649 1.277 2.11-.07 1.597.23 1.804 2.493 1.717.891-.034 2.13.03 2.753.143 1.096.198 1.134.186 1.134-.37 0-.357-.363-.93-.955-1.508-1.431-1.398-1.217-2.482.499-2.515.447-.01 1.565.096 2.482.233 2.487.372 3.366-.067 1.573-.784-.515-.206-1-.58-1.08-.83-.214-.674.26-1.715 1.242-2.726.784-.807.991-.895 2.106-.895 1.154 0 1.29-.064 2.04-.967 1.651-1.99 2.32-2.612 2.808-2.612.432 0 .5.142.5 1.043 0 .574-.22 1.541-.488 2.15-.27.607-.581 1.883-.694 2.834-.112.95-.362 2.16-.554 2.686-.193.527-.425 1.44-.516 2.029a15.73 15.73 0 0 1-.388 1.787c-.122.395-.32 1.5-.44 2.455-.365 2.907.027 4.292 3.65 12.9 1.787 4.245 3.309 7.815 3.382 7.934.246.397 1.458.222 2.278-.33zM93.804 62.92c-.141-.369.462-1.68.897-1.95.196-.12.233-.001.125.403a5.224 5.224 0 0 0-.157 1.086c-.004.594-.676.952-.865.46zm19.868 24.808c.275-.192.679-.728.898-1.19.465-.98.375-1.225-1.054-2.876-1.113-1.287-1.27-2.29-.416-2.662.523-.228 1.794.01 2.5.467.162.105.511.074.776-.068.393-.21.482-.498.482-1.545 0-.775-.13-1.418-.328-1.616-.675-.675-.69-1.742-.044-3.018.336-.663.611-1.294.611-1.401 0-.108-.479-.703-1.064-1.323-1.042-1.102-1.126-1.14-3.878-1.74-3.726-.812-5.593-.74-6.862.266-2.481 1.965-3.43 3.366-4.322 6.38-.446 1.507-.38 4.697.116 5.625 1.091 2.039 2.869 2.838 4.653 2.093 1.004-.42 2.778-.51 3.136-.161.125.122.6.256 1.058.298.687.064.868.2 1.046.793.577 1.918.656 2.028 1.44 2.028.414 0 .977-.157 1.252-.35zm-1.109-9.315c0-.196.107-.358.239-.358.13 0 .238.162.238.358 0 .197-.107.358-.238.358-.132 0-.239-.16-.239-.358zm-47.55 8.875c.166-.166.732-1.816 1.257-3.665 1.306-4.593 3.373-8.868 4.77-9.863.811-.577.92-.584 1.464-.09.597.54 1.064.279 1.406-.788.387-1.203.89-1.747 1.618-1.747h.594l-.147 1.969c-.116 1.55-.048 2.344.321 3.737.513 1.936.71 2.328.71 1.415 0-.327.249-.828.552-1.113.455-.427.618-.466.927-.22.207.163.428.458.492.655.188.58.373-.991.762-6.48.202-2.842.43-5.33.506-5.53.22-.574.835-.681 1.48-.26l.593.39-.154 3.733c-.084 2.053-.214 4.86-.287 6.238-.132 2.46-.123 2.518.49 3.162.554.582.797.656 2.145.656 1.39 0 1.57-.06 2.113-.705.416-.494.642-1.128.758-2.122l.164-1.418 1.352-.617 1.352-.617-1.355-.005c-.91-.003-1.479-.128-1.73-.38-.518-.517-.47-1.845.106-2.974.265-.52.542-1.401.616-1.96.176-1.326-.262-5.478-.664-6.295-.354-.721-1.823-1.271-3.416-1.28-.525-.003-1.271-.17-1.657-.371-.839-.437-1.785-.152-2.766.835a45.046 45.046 0 0 1-1.687 1.562c-.943.832-1.247 1.366-2.353 4.137l-1.27 3.182-.818-.153c-.45-.085-.957-.207-1.126-.272-.442-.17-1.636.912-2.51 2.274-.92 1.433-2.305 2.168-4.091 2.168-1.643 0-2.992-.71-6.27-3.303-1.46-1.156-2.952-2.294-3.313-2.53l-.656-.427v6.167c0 6.029.013 6.203.603 7.724.332.856.859 1.845 1.17 2.199.312.353 1.839 1.292 3.394 2.085 2.897 1.478 3.796 1.655 4.554.897zm13.683-17.963c.011-.278.068-.334.144-.144.069.173.06.378-.019.458-.08.079-.136-.062-.125-.314zm4.86-4.913c-.193-.606.393-1.152 1.236-1.152.73 0 1.024.92.431 1.354-.672.491-1.478.393-1.667-.202zm42.68 22.253c.32-.122.648-.397.73-.612.181-.471-.403-1.663-1.254-2.561-1.349-1.424-1.657-1.859-1.81-2.557-.245-1.112-.5-1.068-.96.168-.23.62-.613 1.343-.85 1.606-.962 1.069-1.228 2.885-.518 3.528.241.218.98.419 1.73.47.72.05 1.545.11 1.832.134.286.024.782-.055 1.1-.176zm-3.613-12.31c.169-2.825.503-4.825.947-5.672.153-.292.808-1.415 1.455-2.496 1.132-1.89 1.373-2.901.649-2.723-.19.047-1.042.175-1.895.286-7.42.96-11.23 1.92-12.296 3.096-.36.398-.359.477.015 1.047.36.549.56.617 1.819.617.778 0 2.116.176 2.974.392l1.558.391 1.056 2.2c.58 1.21 1.056 2.286 1.056 2.391 0 .106.4.876.889 1.712 1.293 2.21 1.579 2.01 1.773-1.242zm-80.416.167c.521-.29.819-.65.867-1.049.075-.628-.475-1.383-1.006-1.383-.633 0-3.482 2.391-3.482 2.922 0 .386 2.705.02 3.62-.49zM28.206 72.2c5.297-.748 5.315-.755 5.836-1.933.548-1.237.996-1.313 1.92-.324.367.394.842.716 1.056.716.348 0 .352-.069.04-.67-.19-.37-.807-1.132-1.371-1.696-.965-.965-1.085-1.017-2.044-.886-.561.077-1.53.391-2.155.698-.624.307-1.564.679-2.09.826a146.4 146.4 0 0 0-2.224.65c-.699.21-1.988.439-2.864.507-2.323.18-2.667.282-2.667.785 0 .642.617 1.062 2.004 1.364 1.713.373 1.652.373 4.559-.037zm37.997-3.212c.388-.305.968-.477 1.608-.477.816 0 1.059-.107 1.312-.58.184-.345.234-.757.122-1.015-.104-.238-.172-.514-.151-.612.02-.099-.115-.18-.301-.18s-.57.377-.855.836c-.474.767-.61.835-1.664.835-1.405 0-1.543-.253-1.192-2.19.252-1.388.245-1.423-.5-2.363-.415-.524-1.179-1.17-1.697-1.434l-.941-.48-.803.668c-.442.368-1.244.965-1.782 1.327-1.228.826-1.571 1.624-1.095 2.544.386.746 1.658 1.45 2.618 1.45.346 0 .69.162.766.359.075.197.374.358.663.358.308 0 .746.297 1.056.716.647.875 1.893.98 2.836.238zm32.521-22.045c.654-4.37.836-5.144 1.486-6.295.955-1.693 2.459-2.444 4.895-2.444 1.432 0 1.652-.065 2.14-.633.363-.421.545-.94.545-1.548 0-.807-.112-.986-.95-1.514-1.299-.82-3.223-.835-4.483-.034-1.303.827-1.692 1.352-2.308 3.118-.305.872-.728 1.778-.94 2.012-.287.317-.387.913-.39 2.317-.001 1.843-.026 1.92-.951 3.084l-.95 1.193-.002 3.15c-.002 2.753.05 3.18.415 3.385.564.318.604.161 1.494-5.79zm-9.556 4.103c.267-.287.486-.62.486-.737 0-.342-1.698-3.341-2.225-3.93-.263-.293-.921-.748-1.462-1.01-1.61-.78-2.58-.46-5.006 1.648-1.122.975-2.013 1.8-1.98 1.832.032.032.755-.09 1.607-.273 2.174-.466 3.169-.427 4.346.168 1.464.74 1.856 1.14 1.856 1.887 0 1.047 1.539 1.315 2.378.415zm14.261-3.286c3.886-3.417 4.108-3.66 4.26-4.664.114-.76.038-1.09-.372-1.611-.49-.622-.618-.656-2.527-.656-1.996 0-2.011.005-2.011.608 0 .342.261.85.597 1.161.41.38.596.806.596 1.363 0 .735-.087.836-.956 1.107-1.338.418-1.829 1.002-2.022 2.406-.3 2.179.214 2.239 2.435.286zm-9.162-.428c.18-.36.84-2.723 1.466-5.249 1.082-4.373 1.118-4.62.745-5.19-.352-.538-.55-.598-1.962-.598h-1.57l-1.65 1.424c-1.534 1.323-1.977 1.542-4.081 2.015-1.005.227-1.244.912-.694 1.99.51 1 2.673 2.976 4.326 3.954.59.35 1.504 1.008 2.029 1.464.525.456.978.833 1.008.838.03.005.201-.287.383-.648zm17.255-4.998c.144-.572-.052-2.274-.521-4.533-.087-.418-.36-.943-.606-1.166-.42-.38-.457-.38-.602 0-.24.624.055 3.697.49 5.09.429 1.379.978 1.649 1.24.61zm35.894 12.066c-1.23-.367-2.852-1.63-3.477-2.71-.305-.527-.679-1.602-.83-2.389-.247-1.282-.225-1.55.21-2.563.985-2.292 2.93-4.352 5.206-5.518 2.43-1.243 6.198.39 7.565 3.28.888 1.876.826 3.039-.274 5.184-1.114 2.17-2.014 3.086-3.93 3.995-1.726.82-3.292 1.072-4.47.721zm.929-1.656c1.93-.445 5.426-3.457 6.543-5.639.497-.97.497-2.042 0-3.088-.91-1.918-3.285-2.012-6.126-.24-1.874 1.167-2.372 1.726-3.46 3.883-1.043 2.066-1.158 2.928-.501 3.762.543.69 1.814 1.58 2.245 1.571.131-.002.716-.115 1.299-.25zm-10.673-8.09c-1.428-.675-1.532-.784-2.228-2.326-1.205-2.671-.73-4.79 1.683-7.497 1.4-1.571 3.015-2.362 5.177-2.536 2.161-.173 3.804.626 4.94 2.403.629.982 1.026 1.354 1.574 1.474.403.089.728.233.722.321-.007.088-.416.948-.909 1.911-1.078 2.107-1.354 1.978-1.518-.707-.167-2.73-.929-3.741-3.134-4.155-1.043-.196-3.222.73-4.406 1.871-1.278 1.233-2.222 3.102-2.365 4.684-.107 1.17-.036 1.555.439 2.4.868 1.545 2.94 2.408 4.648 1.936 1.26-.348 1.567-.017.443.48-1.505.663-3.31.571-5.066-.259zm-7.513-6.855c-1.826-1.42-2.27-1.878-2.062-2.127.218-.263.324-.257.615.034.827.827 1.276.428 4.77-4.243l3.203-4.282-.47-.797c-.37-.628-.407-.85-.171-1.045.22-.182.88.173 2.492 1.341 2.325 1.685 2.503 2.138.79 2.014l-.914-.066-2.99 4.013c-2.737 3.67-3.53 4.834-3.53 5.18 0 .07.226.336.501.593.344.32.437.58.296.83-.166.298-.636.03-2.53-1.445zM49 38.753c-.084-.085.01-.403.21-.707.537-.82.152-1.524-3.208-5.868-2.484-3.212-3-3.758-3.55-3.755-.354.002-.801.104-.995.226-.324.205-.708-.06-.718-.495-.005-.183 5.395-4.323 6.181-4.739.97-.513 2.982-.441 3.76.134 1.519 1.124 2.15 2.932 1.478 4.23-.487.94-1.933 2.586-2.86 3.259l-.911.66 1.315 1.757c.724.967 1.47 1.845 1.657 1.95.203.113.65.033 1.093-.197.639-.33.8-.34 1.08-.059.28.28.021.56-1.737 1.87-2.498 1.864-2.601 1.927-2.795 1.734zm1.185-9.902c.947-1.831-.491-4.25-2.527-4.25-1.061 0-2.414.838-2.71 1.68-.178.506.008.882 1.31 2.643l1.517 2.052 1.037-.739c.571-.406 1.189-1.03 1.373-1.386zm76.151 5.713c-.334-.25-.474-1.36-.86-6.82-.254-3.587-.502-6.562-.551-6.611-.095-.095-4.963 8.059-4.963 8.312 0 .082.226.36.502.617.277.258.43.587.34.732-.108.174-.784-.074-1.994-.732-2.207-1.2-2.218-1.21-1.979-1.597.153-.247.32-.25.828-.018.562.256.707.224 1.232-.27.51-.48 4.342-6.717 5.306-8.638.35-.699.117-1.463-.612-2-.204-.152-.257-.323-.124-.405.292-.18 3.42 1.707 3.427 2.068.023 1.048.916 10.935.995 11.014.16.16 4.01-6.354 4.01-6.785 0-.217-.169-.635-.375-.93-.737-1.052-.193-.986 1.749.212 1.968 1.215 2.334 1.759 1.004 1.493-.403-.08-.852-.02-1.047.141-.187.156-1.701 2.585-3.365 5.4-1.663 2.813-3.047 5.116-3.074 5.116-.028 0-.23-.135-.449-.299zm-67.5-4.077c-1.892-.704-4.003-3.149-4.667-5.405-1.121-3.813-.064-6.298 3.44-8.083 3.046-1.551 6.735.618 8.668 5.097.416.964.495 1.52.41 2.898-.135 2.207-.864 3.494-2.687 4.75-1.143.787-1.554.932-2.816.994-.84.04-1.853-.067-2.348-.251zm4.558-1.582c1.609-1.146 1.582-3.385-.08-6.767-1.773-3.609-3.466-4.897-5.596-4.259-.76.228-1.022.487-1.55 1.533-.351.692-.638 1.426-.638 1.63 0 .929 1.256 4.423 2.053 5.716 1.586 2.569 3.977 3.452 5.81 2.147zm48.257-1.407c-1.344-.475-2.917-1.805-3.568-3.016-.273-.507-.385-1.342-.384-2.864 0-2.364.292-3.176 1.956-5.461.953-1.307 2.676-2.234 4.564-2.454.93-.109 1.333 0 2.75.74 1.233.645 1.831.83 2.326.721l.667-.146v2.047c0 1.126-.08 2.046-.18 2.044-.39-.008-.735-.402-1.246-1.428-1.621-3.25-3.96-3.934-6.11-1.784-1.561 1.562-2.277 3.165-2.326 5.213-.056 2.283.491 3.694 1.778 4.585 1.372.952 2.775.918 4.571-.11.748-.427 1.477-.704 1.62-.615.386.238-.887 1.48-2.204 2.153-1.587.81-2.705.91-4.214.375zm-42.385-.678c-.088-.23-.049-.457.088-.503.137-.046.473-.264.746-.485l.497-.402-1.345-5.362c-.74-2.949-1.472-5.445-1.627-5.547-.155-.102-.513-.132-.794-.066-.434.102-.8-.224-.8-.711 0-.044 1.199-.361 2.665-.705 2.108-.494 2.704-.561 2.854-.32.123.2-.014.411-.396.611-.32.168-.65.574-.733.902-.135.538 1.728 8.876 2.304 10.31.43 1.072 2.73.572 4.454-.968.29-.26.702-.995.914-1.632.285-.86.505-1.159.851-1.159.422 0 .452.119.32 1.253-.081.689-.189 1.387-.24 1.551-.119.383.166.38.697-.007.394-.288.36-.605-.571-5.541-.544-2.88-1.088-5.42-1.208-5.646-.12-.225-.56-.443-.976-.484-1.591-.157-.942-.624 1.74-1.253 2.128-.5 2.718-.565 2.872-.321.297.467.251.565-.394.86-.784.357-.773.564.333 6.466.97 5.172 1.194 5.685 2.351 5.396.38-.096.537-.03.537.228 0 .199-.037.362-.083.362-.046 0-1.254.251-2.685.558-1.43.307-2.816.567-3.078.578-.368.016-6.048 1.537-8.742 2.342-.229.068-.456-.057-.55-.304zm32.32-2.13a1097.31 1097.31 0 0 0-4.698-1.063c-1.683-.376-2.163-.57-2.063-.832.072-.188.438-.341.813-.341.408 0 .769-.168.898-.418.405-.784 2.006-9.82 1.85-10.441-.084-.337-.419-.733-.743-.881-.637-.29-.684-.391-.393-.849.147-.232 1.246-.086 4.927.656 2.606.524 4.766.982 4.8 1.015.033.034.233.805.444 1.713.307 1.326.323 1.69.078 1.845-.498.316-.601.246-1.181-.803-.817-1.477-2.19-2.347-3.96-2.508l-1.452-.131-.237.926c-.13.51-.307 1.41-.393 2-.086.591-.207 1.255-.269 1.476-.09.318.108.434.949.56 1.42.213 1.909.02 2.44-.967.454-.843.684-.998.918-.62.071.117-.083 1.372-.344 2.791a159.56 159.56 0 0 0-.474 2.646c0 .036-.161.004-.358-.072-.197-.076-.358-.39-.358-.697 0-1.333-1.037-2.245-2.56-2.251-.317-.002-.325.023-1 3.164-.526 2.438-.61 2.314 1.897 2.802 1.735.338 2.152.213 4.233-1.272 1.526-1.088 1.66-.583.384 1.451-.596.95-1.209 1.716-1.362 1.702-.154-.015-1.407-.285-2.785-.6zm-15.272-1.849c0-.18.307-.39.682-.464 1.174-.235 1.288-.925.994-6.03-.143-2.482-.376-4.874-.518-5.315-.241-.75-.312-.794-1.091-.667-1.189.193-1.916.744-2.75 2.086-.765 1.23-.833 1.281-1.313.977-.23-.146-.158-.604.311-2l.61-1.81 2.551-.142c1.404-.078 3.788-.208 5.297-.287l2.744-.145.883 1.792c.667 1.354.804 1.822.562 1.915-.176.067-.573-.153-.882-.489-1.2-1.304-2.38-1.979-3.462-1.979-1.235 0-1.159-.633-.778 6.443.281 5.234.355 5.489 1.575 5.489.303 0 .551.045.551.1 0 .055.065.27.145.477.127.332-.229.377-2.983.377-2.495 0-3.128-.066-3.128-.328zm-17.46 152.261c.662-1.387-.462-2.593-2.046-2.196-.802.201-1.008.502-1.013 1.481-.005 1.079.56 1.549 1.754 1.461.81-.059 1.04-.19 1.305-.746zm45.102 0c.644-1.35-.459-2.594-1.965-2.216-.833.209-1.202 1.4-.722 2.328.33.637.467.7 1.366.635.827-.06 1.055-.189 1.321-.747zm-49.97-.632c.534-.203.612-.373.612-1.318 0-.964-.073-1.114-.653-1.335-.822-.312-2.119-.084-2.306.406-.196.51-.173 1.588.04 1.907.37.554 1.36.7 2.307.34zm54.437-.508c.317-.613.333-.86.093-1.44-.403-.973-1.01-1.253-2.005-.925-.867.286-1.083.621-1.083 1.676 0 .941.574 1.43 1.681 1.43.8 0 .985-.105 1.314-.74zm-58.258-1.705c.49-1.401-.623-2.607-2.072-2.243-.798.2-1.205 1.304-.852 2.314.243.698.303.724 1.474.656 1.089-.063 1.246-.142 1.45-.727zm62.65-.03c.501-1.517-.644-2.647-2.192-2.163-.7.218-.892.53-.896 1.457-.007 1.343.166 1.511 1.554 1.511 1.23 0 1.277-.025 1.534-.805zm-67.028-1.246c.4-.48.41-1.911.018-2.304-.429-.428-2.385-.384-2.666.06-.353.558-.273 1.836.141 2.25.494.493 2.096.49 2.507-.005zm70.872.134c.351-.188.462-.504.462-1.319 0-.93-.08-1.102-.612-1.304-1.46-.555-2.49-.046-2.49 1.232 0 1.166.385 1.638 1.336 1.638.463 0 1.05-.111 1.304-.247zM51.42 169.08c.737-.516.717-1.757-.04-2.469-.81-.76-1.784-.6-2.359.388-.977 1.679.788 3.21 2.4 2.081zm79.402.042c.596-.436.601-1.867.009-2.522-.565-.624-1.66-.63-2.278-.012-.477.477-.643 1.769-.295 2.29.405.608 1.876.747 2.564.244zm-83.095-2.578c.42-.567.44-.727.17-1.382-.543-1.308-1.684-1.567-2.712-.614-.692.64-.776 1.082-.358 1.877.39.74.69.893 1.611.822.558-.043.96-.263 1.289-.703zm86.865.539c1.488-.566.692-3.12-.973-3.12-1.413 0-2.065 2.675-.771 3.167.552.21 1.107.195 1.744-.047zm-90.742-3.035c.346-.91-.12-2.19-.867-2.378-1.012-.254-1.712.078-2 .95-.199.605-.194.962.02 1.432.251.552.425.627 1.447.627 1.035 0 1.186-.068 1.4-.631zm95.216 0c.345-.91-.121-2.19-.867-2.378-1.013-.254-1.712.078-2 .95-.2.605-.195.962.02 1.432.25.552.425.627 1.446.627 1.035 0 1.187-.068 1.4-.631zm-99.339-2.127c.737-.516.716-1.757-.041-2.469-.81-.76-1.783-.6-2.358.388-.977 1.679.788 3.21 2.4 2.081zm102.992-.097c.136-.136.247-.637.247-1.113 0-1.55-1.545-2.274-2.645-1.24-.741.696-.749 1.937-.016 2.465.571.41 1.956.346 2.414-.112zm-106.477-2.79c.979-.886.184-2.707-1.181-2.707-1.503 0-2.298 1.595-1.329 2.666.5.551 1.92.575 2.51.041zm109.988.015c.48-.577.398-2.002-.136-2.392-.597-.437-1.559-.419-2.216.041-.643.451-.714 1.655-.135 2.295.5.552 2.046.587 2.487.056zm-113.568-2.878c.94-.85.142-2.946-1.121-2.946-.622 0-1.783 1.013-1.783 1.555 0 .469.452 1.363.811 1.603.468.312 1.645.193 2.093-.212zm116.756.162c.505-.192.612-.388.612-1.118 0-1.008-.75-1.99-1.518-1.99-.77 0-1.585.933-1.585 1.814 0 1.339 1.003 1.86 2.49 1.294zM29.47 152.939c.504-.504.352-2.027-.244-2.444-1.492-1.046-3.124.537-2.427 2.353.177.46 2.232.53 2.671.091zm123.856-.755c.057-.696-.056-1.062-.46-1.491-1.32-1.406-3.187.245-2.45 2.166.119.308.428.374 1.492.318l1.342-.07.076-.923zm-126.81-3.075c.491-1.4-.623-2.607-2.071-2.243-.799.2-1.205 1.304-.853 2.314.243.698.303.725 1.474.656 1.09-.063 1.246-.142 1.45-.727zm129.946-.03c.5-1.516-.644-2.646-2.192-2.163-.701.219-.892.53-.897 1.458-.007 1.343.167 1.51 1.555 1.51 1.229 0 1.277-.024 1.534-.805zm-133.266-2.865c.597-.436.602-1.867.01-2.522-.957-1.056-2.756-.189-2.756 1.329 0 1.294 1.636 2.005 2.747 1.193zm135.784 0c.596-.436.601-1.867.009-2.522-.956-1.056-2.755-.189-2.755 1.329 0 1.294 1.636 2.005 2.746 1.193zm-138.583-3.621c.737-.516.716-1.757-.041-2.47-.81-.76-1.783-.6-2.358.389-.977 1.679.788 3.21 2.399 2.08zm141.65-.097c.473-.473.288-1.947-.304-2.426-1.155-.936-2.65-.21-2.642 1.283.004.866.183 1.23.712 1.448.483.199 1.928.001 2.234-.305zm-144.34-3.68c.597-.436.602-1.867.01-2.522-.594-.656-1.671-.635-2.145.042-.479.683-.477 1.955.003 2.435.463.463 1.53.486 2.133.045zm146.7.032c.727-.555.749-1.464.054-2.29-.743-.882-1.42-.955-2.187-.234-.548.515-.742 1.692-.37 2.25.393.587 1.88.75 2.504.274zM15.48 134.933c.94-.851.14-2.946-1.125-2.946-.71 0-1.78.88-1.78 1.465 0 .546.426 1.436.811 1.693.468.313 1.646.193 2.094-.212zm151.088.174c1.507-.573.689-3.12-1.003-3.12-1.423 0-2.048 2.67-.74 3.167.551.21 1.106.195 1.743-.047zm-153.086-4.36c.491-.492.339-1.73-.286-2.316-.814-.766-1.782-.601-2.365.401-.39.671-.414.884-.162 1.492.266.643.397.708 1.41.708.614 0 1.245-.128 1.403-.286zm155.882-.328c.45-1.18-.358-2.489-1.535-2.489-.745 0-1.573.94-1.573 1.784 0 1.027.38 1.318 1.724 1.318 1.017 0 1.179-.071 1.384-.613zm-157.747-4.267c.426-1.29-.213-2.268-1.488-2.275-1.264-.007-2.009 1.432-1.364 2.637.193.36.505.462 1.414.462 1.118 0 1.177-.034 1.438-.824zm159.64.019c.492-1.49-.495-2.582-1.994-2.206-.76.191-1.164 1.317-.824 2.295.231.662.337.716 1.401.716 1.096 0 1.164-.039 1.417-.805zM9.898 121.91c.262-.547.252-.761-.062-1.368-.644-1.246-2.099-1.301-2.797-.106-.357.612-.385.868-.164 1.502.258.74.304.762 1.49.693 1.063-.062 1.264-.156 1.533-.72zm163.226 0c.262-.547.252-.761-.062-1.368-.644-1.246-2.098-1.301-2.796-.106-.358.612-.386.868-.165 1.502.258.74.304.762 1.49.693 1.063-.062 1.264-.156 1.533-.72zm-164.848-4.35c.426-1.29-.213-2.268-1.488-2.275-1.264-.007-2.008 1.432-1.364 2.637.193.36.505.462 1.414.462 1.118 0 1.177-.034 1.438-.824zm166.328 0c.426-1.29-.212-2.268-1.487-2.275-1.265-.007-2.009 1.432-1.364 2.637.192.36.504.462 1.413.462 1.118 0 1.178-.034 1.438-.824zM6.731 113.76c.617-.45.617-1.99 0-2.442-1.125-.822-2.747-.1-2.747 1.221 0 1.322 1.622 2.043 2.747 1.221zm168.779-.041c1.19-.833.398-2.737-1.134-2.727-.743.005-1.045.197-1.416.9-.789 1.497 1.094 2.846 2.55 1.827zM5.995 108.542c.193-.782.15-.97-.34-1.492-.62-.66-1.104-.736-2.023-.317-.759.345-.99 1.17-.596 2.122.285.687.36.72 1.519.652 1.191-.07 1.224-.091 1.44-.965zm171.006.4c.668-1.758-1.252-3.245-2.587-2.002-.303.283-.522.774-.522 1.173 0 1.275.183 1.442 1.583 1.442 1.169 0 1.315-.058 1.526-.613zM5.186 104.16c.249-.754.226-.94-.184-1.492-.965-1.297-2.927-.693-2.927.902 0 1.28.183 1.451 1.558 1.451 1.246 0 1.274-.015 1.553-.861zm172.516.4c.657-1.228-.26-2.751-1.566-2.6-.975.114-1.62 1.291-1.266 2.308.246.706.335.753 1.424.753.904 0 1.216-.102 1.408-.461zM4.452 99.682c.491-1.49-.496-2.581-1.995-2.205-.76.19-1.164 1.317-.823 2.294.23.662.336.716 1.4.716 1.096 0 1.165-.039 1.418-.805zm173.964 0c.505-1.528-.496-2.581-2.075-2.185-.802.202-1.009.503-1.013 1.48-.007 1.342.166 1.51 1.554 1.51 1.23 0 1.277-.025 1.534-.805zM3.984 95.476c.553-.553.564-.635.22-1.62-.182-.525-.455-.78-.949-.889-.767-.168-1.682.044-1.952.453-.35.532-.197 2.024.235 2.275.7.408 1.93.298 2.446-.22zm174.502.145c.98-.743.164-2.77-1.114-2.77-.953 0-1.295.24-1.58 1.104-.396 1.197.165 2.001 1.387 1.99.49-.003 1.077-.15 1.307-.324zM3.993 90.558c.249-.755.226-.94-.184-1.492-1.261-1.696-3.685.014-2.68 1.891.192.36.504.462 1.413.462 1.128 0 1.176-.028 1.45-.861zm174.92 0c.248-.755.225-.94-.185-1.492-1.26-1.696-3.684.014-2.68 1.891.193.36.505.462 1.414.462 1.128 0 1.175-.028 1.45-.861zM3.732 86.653c1.055-.565.71-2.493-.492-2.757-.755-.166-1.67.05-1.938.456-.31.47-.194 1.771.193 2.158.42.42 1.58.495 2.238.143zm174.734-.163c.977-.884.184-2.711-1.174-2.704-.858.005-1.169.222-1.476 1.03-.195.513-.17.824.11 1.366.302.583.512.703 1.234.703.478 0 1.066-.178 1.306-.395zM4.452 81.546c.491-1.49-.496-2.582-1.995-2.205-.76.19-1.164 1.317-.823 2.294.23.662.336.716 1.4.716 1.096 0 1.165-.039 1.418-.805zm173.964 0c.505-1.528-.496-2.581-2.075-2.185-.802.201-1.009.503-1.013 1.479-.007 1.343.166 1.51 1.554 1.51 1.23 0 1.277-.024 1.534-.804zM5.137 77.023c.662-1.387-.462-2.593-2.045-2.196-.803.201-1.009.502-1.013 1.481-.005 1.08.559 1.549 1.754 1.461.809-.059 1.04-.19 1.304-.746zm172.376.399c.977-.884.183-2.711-1.175-2.704-.858.005-1.169.222-1.475 1.03-.196.513-.17.824.11 1.366.301.583.512.703 1.233.703.479 0 1.067-.178 1.307-.395zM5.882 72.482c.346-1.05-.005-1.998-.816-2.201-1.53-.385-2.523.691-2.026 2.197.253.767.32.805 1.421.805 1.1 0 1.17-.039 1.42-.801zm171.101 0c.513-1.555-.606-2.662-2.19-2.168-.701.219-.893.53-.897 1.458-.007 1.343.166 1.51 1.554 1.51 1.228 0 1.277-.025 1.533-.8zM7.093 68.136c.448-1.18-.359-2.49-1.536-2.49-.745 0-1.573.94-1.573 1.784 0 1.027.381 1.319 1.724 1.319 1.017 0 1.179-.072 1.385-.613zm168.66.326c.492-.49.34-1.729-.285-2.315-.814-.765-1.782-.601-2.366.401-.39.671-.413.884-.161 1.492.266.643.397.709 1.41.709.614 0 1.245-.13 1.403-.287zM8.174 63.871c.51-.78.364-1.534-.41-2.11-1.11-.825-2.586-.077-2.586 1.31 0 .915.565 1.365 1.725 1.375.685.006.977-.127 1.271-.575zm166.329 0c.51-.78.363-1.534-.41-2.11-1.11-.825-2.586-.077-2.586 1.31 0 .915.564 1.365 1.724 1.375.685.006.978-.127 1.272-.575zM9.799 59.376c.465-.626.47-.699.102-1.313-1.206-2.006-3.987-.658-2.916 1.413.327.634.468.7 1.343.635.743-.055 1.096-.232 1.47-.735zm163.226 0c.465-.626.471-.699.102-1.313-1.206-2.006-3.987-.658-2.916 1.413.328.634.469.7 1.344.635.742-.055 1.095-.232 1.47-.735zM11.629 55c.249-.754.226-.94-.184-1.491-1.261-1.697-3.685.013-2.68 1.89.193.36.505.462 1.414.462 1.128 0 1.175-.028 1.45-.86zm159.647 0c.249-.755.226-.939-.186-1.491-.699-.936-1.915-.883-2.494.108-.356.609-.386.871-.17 1.492.246.704.337.752 1.414.752 1.111 0 1.162-.03 1.436-.86zM13.52 51.344c.428-.8.295-1.864-.283-2.27-1.506-1.054-3.144.162-2.568 1.908.26.79.32.824 1.438.824.909 0 1.22-.102 1.413-.462zm155.826-.34c.394-1.193.009-1.996-1.053-2.195-1.163-.218-2.038.36-2.038 1.347 0 1.294.358 1.65 1.66 1.65 1.112 0 1.179-.038 1.43-.801zM15.454 47.503c1.097-.587.148-2.86-1.19-2.852-.816.005-1.131.23-1.435 1.03-.406 1.068.231 2.069 1.319 2.069.465 0 1.052-.111 1.306-.247zm151.267.015c1.055-.565.71-2.493-.493-2.757-.754-.166-1.67.05-1.937.456-.31.47-.194 1.771.192 2.158.421.42 1.58.495 2.238.143zM17.843 43.55c.48-.577.399-2.001-.135-2.392-.603-.44-1.67-.418-2.133.045-.428.428-.493 1.584-.128 2.266.315.588 1.93.643 2.396.081zm146.761 0c.4-.48.41-1.911.017-2.304-.428-.428-2.385-.385-2.666.06-.353.558-.272 1.835.142 2.25.493.493 2.096.49 2.507-.005zM20.491 39.718c.627-.568.574-1.868-.094-2.336-1.561-1.094-3.32.339-2.459 2.003.315.61.518.728 1.246.728.479 0 1.067-.178 1.307-.395zm141.352.065c.525-.384.623-1.886.153-2.355-.428-.429-2.385-.385-2.666.06-.353.558-.272 1.835.142 2.25.463.463 1.765.488 2.371.045zm-138.51-3.63c.478-.577.397-2.002-.137-2.392-.597-.437-1.559-.419-2.216.041-.643.451-.714 1.655-.135 2.295.5.552 2.046.587 2.487.056zm135.782 0c.48-.577.399-2.002-.135-2.392-.597-.437-1.56-.419-2.216.041-.644.451-.715 1.655-.136 2.295.5.552 2.046.587 2.487.056zM26.517 32.178c.49-1.401-.624-2.607-2.072-2.243-.799.2-1.205 1.304-.853 2.314.243.698.303.725 1.474.656 1.09-.063 1.246-.142 1.45-.727zm129.945-.03c.5-1.517-.644-2.646-2.192-2.163-.701.219-.892.53-.897 1.457-.007 1.344.167 1.511 1.555 1.511 1.229 0 1.277-.025 1.534-.805zM29.51 29.151c.78-1.457-.175-2.838-1.758-2.542-.867.163-1.098.492-1.098 1.572 0 1.237.197 1.432 1.45 1.432.901 0 1.214-.103 1.406-.462zm123.715.084c.08-.207.145-.8.145-1.318 0-.806-.094-.977-.654-1.19-.821-.312-2.118-.084-2.306.406-.184.48-.183 1.62.002 2.102.206.538 2.606.538 2.812 0zM32.66 26.115c1.28-1.158-.645-3.453-2.114-2.52-.6.382-.81 1.47-.425 2.213.3.583.511.702 1.233.702.478 0 1.066-.177 1.306-.395zm116.906.148c.49-.262.648-1.714.254-2.336-.331-.523-2.026-.638-2.494-.17-.45.45-.527 1.594-.153 2.292.277.518 1.604.637 2.393.214zm-113.42-2.988c1.11-.778.294-2.97-1.107-2.97-1.468 0-2.323 2.165-1.173 2.97.291.205.804.372 1.14.372.335 0 .848-.167 1.14-.372zm109.946.042c.597-.436.602-1.867.01-2.522-.957-1.056-2.756-.189-2.756 1.329 0 1.294 1.636 2.005 2.747 1.193zM39.82 20.388c.627-.567.575-1.867-.094-2.336-1.56-1.093-3.319.34-2.458 2.003.315.61.517.728 1.246.728.478 0 1.066-.178 1.306-.395zm102.56.163c.558-.299.793-1.238.5-2.006-.304-.802-1.664-1.087-2.517-.527-.71.465-.812 1.653-.2 2.329.428.474 1.525.574 2.218.204zm-98.555-3.194c.346-1.05-.005-1.998-.816-2.201-1.53-.384-2.523.691-2.027 2.197.254.767.32.805 1.422.805 1.1 0 1.17-.039 1.42-.8zm95.215 0c.347-1.05-.004-1.998-.815-2.201-1.531-.384-2.524.691-2.027 2.197.253.767.32.805 1.422.805 1.1 0 1.169-.039 1.42-.8zm-91.403-2.214c.651-.828.625-1.127-.177-2.024-.65-.728-.698-.742-1.54-.437-1.164.42-1.555 1.32-1.023 2.35.33.636.514.74 1.314.74.722 0 1.043-.142 1.426-.629zm87.24.299c.525-.384.623-1.885.154-2.355-.429-.428-2.385-.384-2.666.06-.353.558-.273 1.836.141 2.25.463.463 1.766.488 2.372.045zm-83.364-2.213c.994-.899.18-2.707-1.217-2.707-1.28 0-1.949 1.188-1.335 2.374.315.61.518.728 1.246.728.478 0 1.066-.178 1.306-.395zm79.443.015c.486-.585.398-2-.15-2.41-.55-.413-2.218-.276-2.524.207-.33.522-.234 1.807.167 2.208.494.493 2.096.49 2.507-.005zM55.59 11.417c.727-.556.748-1.464.054-2.29-.743-.882-1.42-.955-2.187-.234-.55.515-.742 1.692-.37 2.25.392.587 1.88.75 2.503.274zm70.918.065c1.35-.513.444-3.108-1.087-3.108-.813 0-1.403.768-1.403 1.826 0 1.327 1.007 1.846 2.49 1.282zM59.866 9.411c.977-.884.183-2.711-1.175-2.704-.858.005-1.169.222-1.476 1.03-.195.513-.17.824.111 1.366.301.583.512.703 1.233.703.479 0 1.067-.178 1.307-.395zm62.47.163c1.054-.565.709-2.493-.494-2.757-.755-.166-1.67.05-1.937.456-.31.47-.194 1.771.192 2.158.421.42 1.58.495 2.238.143zm-58.2-1.447c.351-.188.461-.503.461-1.318 0-.949-.075-1.1-.653-1.32-.822-.312-2.119-.084-2.306.405-.262.682-.147 1.726.232 2.105.428.428 1.583.493 2.266.128zm54.225-.513c.422-.567.442-.727.17-1.382-.418-1.01-1.015-1.295-2.021-.963-1.08.356-1.442 1.512-.83 2.657.392.73 2.05.538 2.681-.312zM68.537 6.85c.67-.49.612-1.988-.1-2.564-.717-.581-1.473-.567-2.124.04-.522.486-.707 1.731-.34 2.281.405.607 1.876.746 2.564.243zm45.06.03c.225-.164.472-.686.548-1.159.114-.699.037-.957-.408-1.371-.618-.576-1.117-.635-1.993-.236-1.46.665-.84 3.066.79 3.066.36 0 .838-.135 1.063-.3zm-40.632-1.14c.351-.188.462-.504.462-1.319 0-.93-.08-1.102-.612-1.304-1.46-.555-2.49-.046-2.49 1.232 0 1.166.385 1.638 1.336 1.638.464 0 1.05-.111 1.304-.247zm36.379-.083c.525-.384.622-1.885.153-2.355-.429-.428-2.385-.385-2.666.06-.353.558-.273 1.836.141 2.25.464.463 1.766.488 2.372.045zM77.43 4.9c.737-.516.716-1.757-.042-2.468-.81-.761-1.782-.601-2.358.387-.977 1.68.788 3.21 2.4 2.081zm27.583-.097c.472-.472.287-1.946-.305-2.426-1.155-.935-2.65-.21-2.642 1.284.004.866.183 1.23.712 1.448.483.198 1.928 0 2.235-.306zm-22.955-.642c.954-.864.215-2.71-1.083-2.704-.888.005-1.176.17-1.56.9-.794 1.506 1.353 2.971 2.643 1.804zm18.42-.074c.345-.344.31-1.855-.05-2.216-.429-.428-2.386-.384-2.666.06-.269.424-.3 1.68-.051 2.052.096.145.336.329.533.41.483.199 1.928 0 2.234-.306zm-14.062-.003c.531-.202.612-.374.612-1.299 0-.831-.117-1.148-.53-1.437-1.257-.88-2.572-.137-2.572 1.454 0 1.327 1.007 1.846 2.49 1.282zm9.068 0c.531-.202.612-.374.612-1.299 0-1.17-.567-1.809-1.604-1.809-1.11 0-1.964 1.797-1.315 2.768.37.554 1.36.7 2.307.34zm-4.358-.4c.662-.6.576-1.89-.16-2.371-.706-.463-2.143-.29-2.364.286-.261.682-.146 1.725.233 2.104.49.491 1.739.48 2.29-.02z" fill="#e6e6e6"/></svg>