<svg xmlns="http://www.w3.org/2000/svg" width="720.061" height="719.906"><path d="M353.473 717.06l-2.635-2.751-2.273 2.273c-3.352 3.351-10.342 3.213-13.984-.276-2.572-2.465-2.724-2.493-4.548-.842-1.037.94-3.757 1.918-6.043 2.176-3.704.417-4.488.138-7.193-2.568l-3.036-3.036-2.777 1.978c-4.51 3.21-8.827 2.634-12.744-1.703-3.31-3.663-3.335-3.672-5.6-1.93-1.251.962-3.836 1.76-5.744 1.77-2.838.018-4.084-.66-6.858-3.73-2.842-3.146-3.573-3.531-4.523-2.386-.703.846-2.921 1.365-5.833 1.365-3.717 0-5.19-.49-7.042-2.343-1.289-1.288-2.343-3.006-2.343-3.818 0-1.849-1.021-1.87-3.397-.074-3.358 2.54-8.282 1.83-11.689-1.685-1.678-1.731-3.05-3.68-3.05-4.33 0-.871-.484-.922-1.847-.192-2.414 1.292-9.213 1.266-11.66-.044-1.06-.567-2.565-2.556-3.344-4.42-1.054-2.523-1.693-3.114-2.497-2.31-.594.594-2.894 1.08-5.11 1.08-3.23 0-4.617-.585-6.969-2.937-1.615-1.615-2.937-3.528-2.937-4.25 0-1.01-1.07-1.187-4.63-.766-5.565.66-8.76-1.049-11.072-5.92-1.503-3.168-1.672-3.246-5.861-2.672-3.952.542-4.583.33-7.528-2.524-1.768-1.713-3.447-4.043-3.731-5.176-.443-1.766-1.064-2.01-4.327-1.699-2.772.265-4.581-.186-6.647-1.657-2.997-2.134-5.492-7.801-4.336-9.846.549-.97.43-.975-.6-.018-1.952 1.81-7.44 1.427-10.472-.733-2.61-1.858-5.388-7.725-4.408-9.31.263-.426-1.004-.601-2.817-.39-5.282.617-8.671-1.344-10.472-6.059-.866-2.268-1.322-4.532-1.013-5.032.337-.545-1.055-.732-3.478-.468-3.641.398-4.358.11-7.276-2.928-2.133-2.22-3.272-4.363-3.34-6.285-.094-2.61-.42-2.916-3.106-2.918-4.283-.003-8.692-4.378-9.5-9.424-.584-3.66-.846-3.942-3.661-3.942-4.574 0-9.567-5.496-9.567-10.53 0-3.28-.285-3.788-2.125-3.788-5.653 0-10.66-6.461-9.278-11.972.51-2.034.264-2.346-1.856-2.346-4.337 0-7.182-1.994-8.767-6.145-1.142-2.99-1.27-4.583-.526-6.54.924-2.43.821-2.588-1.669-2.588-1.752 0-3.652-1.053-5.598-3.102-3.602-3.793-4.456-6.367-3.204-9.658.858-2.258.735-2.512-1.22-2.512-1.227 0-3.566-1.434-5.361-3.287-3.26-3.363-4.04-6.62-2.583-10.793.563-1.614.389-2.148-.702-2.148-5.483 0-10.3-7.42-8.275-12.747 1.252-3.294 1.25-3.48-.039-3.48-2.416 0-6.61-4.14-7.626-7.529-.894-2.985-.81-4.142.478-6.634 1.478-2.857 1.468-3.018-.185-3.018-2.317 0-7.55-5.528-8.365-8.837-.436-1.772-.121-3.436.965-5.094.888-1.354 1.472-2.564 1.299-2.689-.174-.124-1.7-1.182-3.394-2.351-4.308-2.974-5.824-8.234-3.608-12.52 1.556-3.009 1.552-3.21-.082-4.124-.944-.528-2.707-2.03-3.917-3.335-2.486-2.683-2.988-8.496-1.008-11.667 1.038-1.663.858-2.184-1.402-4.044-3.664-3.015-4.822-6.696-3.57-11.345.558-2.076 1.661-4.022 2.45-4.324 1.077-.414.722-.983-1.43-2.292-1.864-1.133-3.261-3.068-4.002-5.54-.994-3.316-.895-4.29.771-7.659l1.91-3.859-2.216-1.451c-1.219-.799-2.71-3.102-3.314-5.12-.925-3.086-.835-4.182.57-6.923.92-1.792 2.147-3.577 2.73-3.968.683-.457-.045-1.586-2.042-3.171-2.591-2.056-3.102-3.103-3.102-6.359 0-2.648.738-4.865 2.3-6.914 2.183-2.861 2.212-3.072.568-4.099-.954-.595-2.25-2.648-2.882-4.562-.972-2.945-.892-4.05.523-7.186.919-2.038 2.53-3.978 3.58-4.312 1.768-.56 1.686-.782-1.089-2.954-2.539-1.987-3-2.982-3-6.473 0-3.261.597-4.764 2.848-7.174 2.443-2.616 2.658-3.239 1.508-4.388-.736-.736-1.824-2.81-2.417-4.607-1.279-3.873.506-9.311 3.6-10.966 1.87-1.001 1.87-1.033-.051-4.915-1.684-3.403-1.788-4.391-.808-7.664.62-2.066 2.123-4.41 3.342-5.209l2.215-1.452-1.86-3.76c-2.37-4.788-1.57-8.97 2.427-12.703 2.499-2.335 2.759-2.996 1.787-4.552-2.763-4.425-.032-13.265 4.549-14.72 1.692-.536 1.722-.805.425-3.909-1.644-3.934-.43-10.245 2.274-11.821 4.764-2.776 5.075-3.365 3.476-6.57-.888-1.78-1.23-3.868-.845-5.149.898-2.98 6.184-8.359 8.214-8.359 1.549 0 1.567-.253.243-3.422-2.089-4.999-.438-9.387 4.472-11.892 4.23-2.158 4.064-1.839 2.754-5.284-1.88-4.946 3.047-12.81 8.027-12.81 1.236 0 1.327-.455.516-2.588-.541-1.424-.716-3.679-.388-5.012.836-3.399 6.134-8.628 8.742-8.628 1.955 0 2.078-.254 1.22-2.512-1.252-3.292-.398-5.865 3.204-9.658 1.946-2.05 3.846-3.102 5.598-3.102 2.474 0 2.588-.17 1.693-2.524-2.06-5.42 3.19-12.749 9.133-12.749 2.265 0 2.509-.288 1.992-2.347-.326-1.3.077-4.01.903-6.074 1.536-3.84 4.492-5.897 8.47-5.897 1.966 0 2.208-.432 2.12-3.783-.081-3.087.502-4.403 3.173-7.159 2.608-2.69 4.004-3.376 6.873-3.376 2.764 0 3.477-.324 3.067-1.393-.913-2.378 1.556-8.028 4.39-10.046 1.487-1.058 3.926-1.926 5.42-1.927 2.369-.002 2.73-.375 2.82-2.918.07-1.926 1.204-4.057 3.341-6.272 2.84-2.944 3.723-3.318 7.202-3.047 2.182.169 3.747-.048 3.478-.482-.268-.434.221-2.645 1.087-4.912 1.8-4.715 5.19-6.676 10.472-6.06 1.813.212 3.065.012 2.784-.443-.282-.456.196-2.684 1.062-4.952 1.799-4.709 5.19-6.676 10.449-6.062 3.065.358 3.339.157 4.34-3.186 1.466-4.89 5.68-7.784 10.645-7.31 3.263.31 3.884.067 4.327-1.699.284-1.133 1.96-3.46 3.725-5.17 2.904-2.815 3.621-3.063 7.572-2.618 4.218.476 4.416.382 5.928-2.804 2.287-4.82 5.192-6.385 10.652-5.738 4.341.514 4.596.411 5.815-2.343 2.415-5.455 7.35-7.223 14.164-5.073 1.656.523 2.148.303 2.148-.96 0-.9 1.334-2.883 2.964-4.406 3.423-3.197 8.118-3.683 11.865-1.228 1.943 1.273 2.352 1.306 2.352.187 0-.745 1.417-2.727 3.148-4.405 3.561-3.452 7.838-4.028 11.6-1.563 2.114 1.385 2.311 1.358 2.867-.393.883-2.784 6.68-6.822 9.791-6.822 1.493 0 3.707.695 4.92 1.544 2.118 1.484 2.342 1.41 5.74-1.909 2.887-2.818 4.249-3.453 7.406-3.453 2.665 0 4.41.598 5.608 1.921 1.73 1.912 1.754 1.906 4.756-1.372 4.13-4.509 7.514-5.222 12.31-2.595l3.796 2.08 3.107-3.012c2.834-2.746 3.51-2.966 7.68-2.495 3.192.36 4.972 1.115 5.893 2.503 1.31 1.973 1.339 1.967 3.982-.862 2.014-2.156 3.51-2.85 6.144-2.85 3.886 0 9.115 2.312 9.115 4.03 0 .614 1.417-.256 3.148-1.934 4.223-4.093 8.802-4.183 13.005-.257l2.99 2.794 2.318-2.316c3.87-3.87 13.76-2.362 15.248 2.326.526 1.657.806 1.581 3.51-.944 4.078-3.81 8.756-3.76 12.776.136l2.972 2.88 3.796-2.079c4.774-2.615 8.181-1.915 12.386 2.543 2.999 3.18 3.073 3.201 4.733 1.366 1.194-1.32 2.934-1.863 5.96-1.863 3.662 0 4.733.487 7.48 3.4 3.047 3.23 3.314 3.326 5.337 1.91 3.577-2.506 8.187-1.908 11.344 1.472 1.523 1.631 2.77 3.564 2.77 4.296 0 1.744 1.372 1.696 2.863-.101 1.322-1.593 6.31-1.889 9.756-.579 1.234.47 3.072 2.391 4.084 4.272 1.747 3.244 1.95 3.346 3.99 2.01 1.181-.774 3.63-1.408 5.442-1.408 2.703 0 3.966.765 7.049 4.267 3.61 4.101 3.87 4.223 6.725 3.146 4.075-1.538 9.165.89 11.316 5.4 1.534 3.218 1.668 3.278 6.164 2.746 5.463-.647 8.738 1.064 10.96 5.727 1.376 2.888 1.704 3.038 5.983 2.737 4.253-.3 4.742-.081 8.052 3.582 1.938 2.145 3.524 4.44 3.524 5.098 0 .825 1.277 1.096 4.108.87 3.486-.277 4.57.106 7.165 2.53 1.682 1.571 3.302 4.078 3.6 5.571.512 2.558.787 2.695 4.746 2.38 3.637-.289 4.592.056 7.099 2.562 1.593 1.593 3.16 4.213 3.48 5.822.517 2.581.971 2.926 3.855 2.926 5.485 0 8.77 2.346 10.066 7.19 1.01 3.775 1.45 4.264 3.84 4.264 1.484 0 3.75.689 5.035 1.53 2.988 1.959 6.53 7.657 5.853 9.42-.388 1.011.484 1.428 3.446 1.645 3.42.251 4.407.871 7.173 4.506 2.324 3.054 3.053 4.829 2.648 6.443-.504 2.008-.238 2.229 2.688 2.229 2.595 0 3.964.792 6.806 3.937 3.036 3.361 3.48 4.41 3.034 7.16-.476 2.935-.312 3.22 1.851 3.22 6.076 0 10.97 6.168 9.51 11.983-.52 2.076-.277 2.336 2.186 2.336 2.021 0 3.704 1.033 6.222 3.82 3.553 3.933 4.184 6.393 2.464 9.606-.872 1.63-.66 1.847 1.798 1.847 2.053 0 3.722 1.035 6.341 3.935 3.192 3.533 3.495 4.313 2.964 7.636-.513 3.205-.35 3.701 1.217 3.701 2.272 0 8.713 7.013 8.713 9.486 0 1.015-.418 2.946-.93 4.293-.793 2.084-.667 2.448.843 2.448.976 0 3.37 1.766 5.32 3.924 3.556 3.937 3.944 6.004 1.982 10.573-.528 1.232.194 2.063 3.07 3.53 4.873 2.486 6.662 6.447 5.144 11.387-.724 2.354-.759 3.627-.106 3.848 2.269.767 6.474 5.097 7.607 7.833 1.027 2.48.987 3.444-.25 6.038-1.463 3.068-1.452 3.1 1.763 5.303 4.477 3.067 6.188 8.69 3.874 12.723-.907 1.58-1.528 2.944-1.38 3.032 6.456 3.839 8.482 8.289 6.503 14.285-1.111 3.366-1.025 3.635 2.377 7.4 3.054 3.38 3.457 4.36 2.989 7.248-.298 1.837-1.247 4.118-2.108 5.07-1.467 1.621-1.356 1.939 1.79 5.084 4.666 4.666 5.042 6.53 2.303 11.43l-2.304 4.123 3.188 3.48c1.754 1.913 3.187 4.452 3.185 5.64-.004 2.51-3.333 8.367-4.755 8.367-1.787 0-.991 1.592 1.323 2.646 4.958 2.26 5.235 12.994.403 15.58-1.922 1.03-1.922 1.035.081 2.438 3 2.1 5.12 6.804 4.393 9.745-.342 1.387-1.707 3.663-3.032 5.056l-2.41 2.534 1.947 1.947c4.21 4.21 3.082 13.402-1.836 14.962-1.99.632-1.991.646-.13 2.693 4.844 5.325 4.914 9.952.22 14.45L711.921 406l2.46 3.718 2.46 3.717-1.778 3.942c-.978 2.169-3.08 4.737-4.672 5.708-1.591.97-2.335 1.766-1.651 1.768 1.393.004 4.008 5.589 4.008 8.561 0 1.065-1.53 3.63-3.398 5.698-3.284 3.635-3.36 3.885-2.272 7.516 1.603 5.35-.144 10.3-4.34 12.301l-3.14 1.498 1.883 3.192c2.519 4.27 1.618 7.973-2.942 12.093-3.513 3.174-3.554 3.291-2.18 6.193 1.902 4.015.26 7.864-4.776 11.197-2.77 1.833-3.639 2.958-3.187 4.126 2.67 6.897-.25 12.825-7.9 16.039-.15.063.226 1.213.837 2.554.615 1.35.82 3.603.459 5.042-.812 3.233-5.823 8.038-8.384 8.038-1.455 0-1.74.399-1.195 1.67 1.984 4.642 1.608 6.684-1.96 10.634-2.292 2.537-4.362 3.924-5.854 3.924-1.987 0-2.171.257-1.321 1.846 1.72 3.213 1.089 5.673-2.464 9.605-2.497 2.765-4.207 3.821-6.184 3.821-2.546 0-2.66.158-1.677 2.316.58 1.274.762 3.487.402 4.918-.938 3.737-5.89 8.039-9.253 8.039-2.474 0-2.717.258-2.195 2.336 1.441 5.742-3.43 11.982-9.354 11.982-1.947 0-2.217.461-2.217 3.788 0 5.054-4.992 10.53-9.6 10.53-2.573 0-2.985.3-2.574 1.871 1.056 4.042-5.776 11.493-10.538 11.493-1.78 0-2.427.632-2.86 2.794-.851 4.257-6.697 9.615-10.49 9.615-2.878 0-3.197.32-4.252 4.264-1.304 4.875-4.584 7.19-10.185 7.19-2.75 0-3.389.36-3.389 1.907 0 1.048-1.586 3.662-3.525 5.808-3.22 3.565-3.875 3.875-7.565 3.581-3.775-.3-4.074-.144-4.581 2.394-.3 1.493-1.92 4-3.601 5.57-2.595 2.425-3.679 2.808-7.165 2.53-2.831-.225-4.108.046-4.108.87 0 .66-1.586 2.953-3.524 5.099-3.317 3.672-3.792 3.882-8.097 3.582-4.23-.294-4.656-.12-5.67 2.331-1.871 4.52-6.004 6.752-11.334 6.12-4.411-.522-4.647-.428-5.78 2.309-.65 1.569-2.389 3.477-3.864 4.24-3.222 1.666-8.65 1.813-10.186.276-.844-.843-1.323-.557-1.999 1.193-.489 1.267-1.993 3.33-3.343 4.587-2.184 2.03-3.08 2.226-8.108 1.77-5.175-.469-5.734-.332-6.625 1.623-1.956 4.292-11.952 6.957-14.515 3.869-1.535-1.85-2.863-1.83-2.863.043 0 .812-1.055 2.53-2.343 3.818-2.827 2.827-10.28 3.31-13.007.842-1.523-1.378-1.713-1.334-2.308.543-1.573 4.956-11.858 7.596-15.201 3.902-1.615-1.784-1.736-1.739-5.032 1.91-2.874 3.181-3.955 3.737-7.261 3.737-2.594 0-4.572-.646-5.954-1.944l-2.07-1.945-3.104 2.899c-2.177 2.034-4.058 2.9-6.299 2.9-4.235 0-7.877-1.746-8.636-4.14-.58-1.827-.692-1.793-1.946.599-1.755 3.35-4.094 4.495-9.178 4.495-3.171 0-4.707-.549-6.309-2.253l-2.117-2.254-2.923 2.73c-4.042 3.777-9.006 3.77-12.635-.019zm10.656-2.555c4.359-3.053 1.202-11.877-4.25-11.877-3.206 0-6.04 3.256-6.023 6.92.008 1.706.33 3.575.716 4.152 1.666 2.494 6.557 2.906 9.557.805zm-16.594-.978c.834-2.174.686-7.344-.252-8.824-.441-.696-2.506-1.494-4.587-1.773-4.683-.628-6.99 1.317-6.99 5.892 0 5.561.652 6.215 6.204 6.215 3.72 0 5.198-.397 5.625-1.51zm36.273 0c.87-2.27.67-7.37-.355-8.99-.59-.932-2.43-1.432-5.27-1.432-4.916 0-6.168 1.191-6.19 5.888-.026 5.366.667 6.044 6.19 6.044 3.72 0 5.197-.397 5.625-1.51zm-54.975-1.545c1.975-1.975 1.354-6.917-1.168-9.286-2.062-1.937-2.67-2.056-5.587-1.093-4.22 1.392-6.031 4.986-4.444 8.818 1.005 2.427 1.582 2.707 5.587 2.707 2.457 0 4.982-.516 5.612-1.146zm73.715-1.307c2.142-5.633-1.853-9.767-8.275-8.562-3.145.59-4.159 1.996-4.159 5.765 0 4.54.857 5.25 6.33 5.25 4.676 0 5.261-.236 6.104-2.453zm-91.694-1.303c1.712-3.199 1.18-7.456-1.134-9.077-6.024-4.22-12.576.647-10.272 7.63 1.043 3.158 1.28 3.293 5.753 3.293 3.635 0 4.883-.407 5.653-1.846zm109.76-1.357c2.053-6.22-2.424-10.65-8.763-8.67-2.803.874-3.568 2.118-3.586 5.83-.026 5.372.665 6.043 6.218 6.043 4.91 0 5.108-.102 6.131-3.203zm-127.095-5.63c.266-4.138.071-4.621-2.21-5.488-5.83-2.217-10.012-.226-10.012 4.766 0 5.253.708 5.851 6.562 5.543l5.37-.283.29-4.538zm145.302 2.563c2.142-5.634-1.853-9.767-8.275-8.562-3.145.59-4.16 1.995-4.16 5.764 0 4.54.857 5.25 6.33 5.25 4.676 0 5.262-.235 6.105-2.452zm-85.543-2.798c1.66-1.66 3.43-2.386 5.818-2.386 3.843 0 9.064 2.321 9.064 4.03 0 .614 1.416-.256 3.147-1.934 4.23-4.1 8.801-4.184 13.023-.24l3.01 2.811 1.015-2.228c1.928-4.231 9.764-5.798 14.035-2.806 2.103 1.472 2.34 1.408 5.27-1.432 3.784-3.668 9.716-4.166 12.534-1.052 1.73 1.912 1.755 1.904 4.81-1.432 2.516-2.747 3.74-3.347 6.761-3.32 2.03.02 4.713.602 5.964 1.295 2.109 1.169 2.517.992 5.6-2.42 2.716-3.007 3.96-3.675 6.794-3.65 1.907.016 4.292.653 5.3 1.416 1.68 1.27 2.018 1.11 4.083-1.928 3.035-4.467 8.221-5.459 14.846-2.839 1.197.473 1.67.198 1.67-.968 0-.895 1.335-2.874 2.965-4.397 2.205-2.06 3.903-2.77 6.626-2.77 2.013 0 3.926.43 4.25.955.819 1.324 2.387 1.197 2.387-.193 0-.631 1.373-2.564 3.05-4.296 2.476-2.553 3.791-3.147 6.969-3.147 2.154 0 4.41.493 5.014 1.096.825.826 1.479.14 2.646-2.776 1.841-4.603 5.388-6.443 10.975-5.693 3.336.447 3.8.276 3.8-1.404 0-1.053 1.515-3.43 3.367-5.28 3.09-3.091 3.721-3.327 7.689-2.88 4.259.48 4.342.435 5.757-3.1 1.786-4.463 7.635-7.6 11.169-5.99 2.035.927 2.305.675 3.807-3.553 1.837-5.174 5.076-7.167 10.6-6.522 1.812.212 3.08.037 2.817-.389-.98-1.586 1.797-7.452 4.408-9.311 1.487-1.059 3.965-1.925 5.507-1.925 2.436 0 2.952-.493 3.927-3.748 1.348-4.498 5.963-8.661 9.601-8.661 2.244 0 2.808-.562 3.762-3.748 1.455-4.854 5.938-8.661 10.2-8.661 2.536 0 3.114-.322 2.669-1.483-1.016-2.648 2.46-8.626 5.994-10.312 1.81-.863 3.95-1.569 4.754-1.569 1.023 0 1.284-.567.866-1.884-.743-2.34 1.949-8.207 4.624-10.08 1.099-.77 3.237-1.4 4.752-1.4 2.45 0 2.69-.26 2.166-2.346-1.344-5.352 3.615-11.971 8.968-11.971 1.602 0 1.697-.336.816-2.864-1.46-4.186 1.428-9.439 6.558-11.932 3.85-1.87 3.919-1.99 3.404-5.936-.477-3.658-.216-4.335 2.846-7.397 1.855-1.854 4.251-3.371 5.326-3.371 1.748 0 1.852-.297.978-2.802-1.398-4.012 1.666-10.738 5.642-12.385 2.717-1.126 2.847-1.399 1.922-4.052-1.407-4.035 1.21-9.573 5.488-11.613 3.137-1.496 3.184-1.602 1.832-4.194-.763-1.462-1.39-3.31-1.393-4.107-.01-2.456 4.695-8.52 7.073-9.117 2.216-.556 2.229-.627.783-4.307-1.35-3.437-1.332-4.046.221-7.49 1.041-2.31 2.724-4.178 4.378-4.863l2.688-1.114-1.89-3.626c-2.353-4.513-1.697-7.692 2.44-11.828 2.835-2.835 2.955-3.22 1.824-5.87-2.173-5.097-1.613-8.015 2.211-11.518 3.476-3.184 3.49-3.229 1.692-5.216-1.15-1.27-1.814-3.411-1.814-5.844 0-3.104.578-4.356 3.015-6.533l3.014-2.694-1.843-3.615c-1.014-1.988-1.843-4.154-1.843-4.813 0-1.511 3.034-7.939 3.756-7.959.297-.008 1.167-.411 1.934-.897 1.152-.728.962-1.223-1.086-2.833-1.364-1.074-2.756-3.05-3.092-4.39-.71-2.83 1.736-8.675 4.303-10.278 1.617-1.01 1.611-1.122-.12-2.336-1.002-.7-2.31-2.907-2.908-4.903-.913-3.048-.818-4.15.596-6.886.926-1.791 2.283-3.697 3.017-4.235 1.081-.792.798-1.373-1.495-3.07-4.385-3.24-4.788-7.217-1.241-12.249 2.693-3.821 2.777-4.173 1.117-4.7-.986-.313-2.518-2.467-3.404-4.786-1.542-4.038-1.53-4.378.262-8.002l1.873-3.785-2.927-2.927c-3.516-3.516-4.044-9.186-1.153-12.38 1.743-1.926 1.723-2.01-1.093-4.641-3.619-3.38-4.611-7.58-2.81-11.89 1.33-3.185 1.288-3.337-1.727-6.206-4.182-3.98-4.867-7.195-2.499-11.738l1.89-3.627-2.918-1.209c-4.681-1.939-7.11-9.834-4.233-13.767 1.183-1.618 1.024-1.952-1.597-3.358-5.767-3.093-7.638-10.27-3.79-14.539 1.371-1.522 1.369-1.67-.03-1.67-5.607 0-10.402-7.376-8.333-12.818.569-1.496.915-2.8.769-2.9-.146-.099-1.643-.728-3.326-1.398-3.968-1.579-6.648-7.803-5.106-11.859 1.332-3.503 1.34-3.48-1.166-3.48-5.287 0-9.44-6.884-7.505-12.437.943-2.704.865-2.835-1.686-2.835-5.374 0-10.558-7.433-8.768-12.57.82-2.35.706-2.703-.872-2.703-5.353 0-10.312-6.619-8.968-11.971.524-2.09.285-2.347-2.191-2.347-1.93 0-3.781-1.033-6.052-3.376-2.671-2.756-3.255-4.072-3.174-7.16.088-3.35-.154-3.782-2.12-3.782-4.159 0-6.981-2.06-8.59-6.273-.857-2.244-1.272-4.543-.923-5.108.412-.666-.661-1.028-3.052-1.028-4.97 0-10.086-5.018-10.193-9.998-.07-3.22-.219-3.36-3.58-3.363-4.18-.003-8.867-4.087-9.856-8.59-.53-2.413-1.085-2.867-3.509-2.867-1.583 0-4.095-.866-5.582-1.925-2.61-1.859-5.388-7.726-4.408-9.311.263-.426-1.005-.6-2.817-.39-5.483.64-8.765-1.353-10.564-6.418-1.507-4.243-1.726-4.43-4.792-4.072-5.132.6-8.6-1.383-10.325-5.903l-1.51-3.958-4.58.32c-4.078.285-4.911-.01-7.599-2.698-1.854-1.854-3.019-3.985-3.019-5.523 0-1.947-.254-2.249-1.145-1.358-1.447 1.447-6.622 1.48-9.735.061-1.352-.616-3.017-2.676-3.856-4.773-1.465-3.662-2.746-4.565-3.877-2.734-.325.525-2.155.955-4.068.955-2.619 0-4.255-.754-6.625-3.05-1.732-1.679-3.148-3.54-3.148-4.136 0-.73-1.71-.943-5.239-.65-6.061.502-9.635-1.221-10.614-5.12-.453-1.805-1.01-2.251-2.162-1.734-.854.383-3.333.878-5.51 1.1-4.486.457-7.874-1.267-9.889-5.033-1.192-2.228-1.418-2.29-3.465-.948-1.205.79-3.659 1.435-5.453 1.435-2.576 0-3.965-.776-6.59-3.681-3.082-3.413-3.49-3.589-5.599-2.42-1.25.693-3.864 1.276-5.808 1.294-2.807.027-4.2-.652-6.775-3.304-3.216-3.312-3.255-3.323-4.967-1.432-2.814 3.11-8.745 2.592-12.551-1.098-3.002-2.91-3.176-2.955-5.5-1.432-4.507 2.952-11.837 1.475-13.773-2.775l-1.015-2.228-3.01 2.81c-4.222 3.945-8.792 3.86-13.023-.24-1.73-1.678-3.147-2.548-3.147-1.933 0 1.674-5.191 4.03-8.882 4.03-2.116 0-4.12-.808-5.748-2.317l-2.5-2.316-2.99 2.794c-3.898 3.64-9.1 3.85-12.254.493-2.143-2.281-2.177-2.285-4.023-.44-4.22 4.22-10.762 4.848-14.493 1.39-2.345-2.173-2.52-2.202-3.06-.502-1.59 5.01-10.943 7.47-14.3 3.761-2.18-2.409-3.054-2.406-3.821.01-1.292 4.071-10.376 6.24-14.15 3.38-1.565-1.186-2.094-.936-5.123 2.417-3.798 4.203-8.028 4.968-12.235 2.212-2.239-1.467-2.375-1.427-3.493 1.026-.64 1.404-2.347 3.165-3.793 3.913-3.029 1.566-9.015 1.812-9.885.406-.923-1.495-3.34-1.118-3.34.52 0 .812-1.085 2.56-2.411 3.887-2.057 2.057-3.157 2.376-7.488 2.176-4.883-.227-5.218-.08-8.77 3.851-3.6 3.985-3.816 4.076-8.69 3.672-4.769-.395-5.053-.287-6.137 2.33-1.47 3.55-5.853 5.79-10.465 5.35-3.283-.313-3.76-.057-5.089 2.728-2.112 4.429-5.439 6.293-10.51 5.89-4.161-.331-4.254-.275-5.306 3.237-1.305 4.356-5.364 6.78-10.53 6.287-3.461-.33-3.585-.23-4.637 3.7-1.24 4.635-4.624 6.963-10.124 6.963-2.75 0-3.388.358-3.388 1.906 0 1.048-1.554 3.626-3.452 5.727-2.684 2.97-4.145 3.821-6.563 3.821-2.707 0-3.186.38-3.695 2.926-.94 4.693-5.459 8.528-10.05 8.528-2.931 0-3.738.325-3.346 1.346.606 1.578-1.869 6.804-4.672 9.87-1.283 1.403-3.065 2.148-5.139 2.148-2.452 0-3.174.402-3.174 1.767 0 5.902-4.416 10.642-9.915 10.642-2.163 0-2.328.286-1.851 3.221.446 2.75.001 3.799-3.035 7.16-2.613 2.892-4.293 3.937-6.328 3.937-2.463 0-2.706.26-2.185 2.336 1.465 5.834-3.436 11.982-9.55 11.982-2.227 0-2.33.184-1.327 2.384 2.377 5.217-2.527 12.889-8.239 12.889-1.768 0-1.79.181-.39 3.253 2.067 4.537-3.148 12.02-8.377 12.02-2.604 0-2.625.058-1.15 3.293 2.387 5.24-2.475 12.934-8.174 12.934-1.253 0-1.24.34.102 2.678 1.031 1.797 1.313 3.574.855 5.396-.809 3.225-5.784 8.153-8.23 8.153-1.612 0-1.589.257.34 3.804l2.068 3.803-1.91 3.594c-1.05 1.977-3.197 4.239-4.772 5.026l-2.863 1.432 1.388 4.017c1.24 3.584 1.223 4.366-.15 7.246-.914 1.915-2.753 3.73-4.523 4.463-2.716 1.125-2.853 1.38-1.53 2.84 3.717 4.108 2.345 11.37-2.783 14.73-2.378 1.558-2.403 1.681-.919 4.553 2.08 4.02 1.038 8.996-2.593 12.388l-2.847 2.66 2.088 2.824c2.684 3.631 1.956 8.287-1.868 11.951l-2.736 2.621 1.984 3.62c1.778 3.248 1.86 4.032.786 7.613-.786 2.624-2.002 4.36-3.546 5.064-2.318 1.056-2.326 1.098-.545 3.058 4.85 5.338 4.822 10.445-.076 14.278-2.848 2.23-2.874 2.32-.958 3.345 2.944 1.576 4.44 6.964 3.079 11.089-.606 1.836-1.948 3.93-2.981 4.654-1.59 1.114-1.654 1.403-.41 1.88 2.027.778 5.29 6.358 5.295 9.053.002 1.222-1.304 3.53-2.903 5.128-1.598 1.599-2.78 3.01-2.625 3.138.155.128 1.233.727 2.396 1.331 1.19.62 2.603 2.732 3.234 4.838.973 3.248.867 4.248-.81 7.637l-1.928 3.899 3.35 3.35c2.94 2.94 3.281 3.77 2.792 6.784-.306 1.888-1.3 4.254-2.207 5.257-1.578 1.744-1.52 1.94 1.327 4.541 3.655 3.339 4.817 8.296 2.833 12.083-1.341 2.56-1.27 2.79 1.758 5.646 4.296 4.051 5.065 7.576 2.625 12.03l-1.923 3.51 3.152 1.503c4.237 2.02 5.962 7.289 3.964 12.11-1.359 3.28-1.344 3.326 1.583 4.752 1.624.791 3.8 3.016 4.834 4.942 1.787 3.332 1.802 3.667.286 6.846l-1.595 3.343 3.224 1.902c5.104 3.012 6.775 6.248 5.566 10.778-1 3.747-.988 3.774 2.61 5.61 4.04 2.06 6.232 6.703 5.287 11.199-.474 2.258-.122 2.82 2.541 4.053 4.262 1.974 7.69 7.297 7.098 11.02-.408 2.556-.05 3.128 2.992 4.772 4.399 2.377 6.77 7.844 5.204 11.995-.973 2.577-.886 2.759 1.31 2.759 6.053 0 10.944 6.177 9.487 11.982-.52 2.073-.277 2.336 2.167 2.336 5.092 0 10.646 6.751 9.418 11.448-.331 1.265-.033 1.915.88 1.915.758 0 3.044.85 5.078 1.887 3.804 1.94 6.563 7.082 5.41 10.084-.406 1.06.28 1.393 2.872 1.393 3.965 0 8.11 3.763 10.049 9.125.981 2.714 1.667 3.284 3.954 3.284 3.494 0 9.032 5.31 9.861 9.456.515 2.576.988 2.953 3.701 2.953 2.418 0 3.88.85 6.563 3.82 1.898 2.102 3.452 4.68 3.452 5.728 0 1.547.638 1.906 3.388 1.906 5.538 0 8.883 2.323 10.147 7.047 1.049 3.923 1.222 4.076 3.592 3.181 3.755-1.417 10.052 2.063 11.462 6.334 1.032 3.127 1.213 3.225 5.136 2.783 3.374-.38 4.567-.038 7.001 2.01 1.614 1.359 3.432 3.67 4.04 5.137.982 2.373 1.509 2.629 4.772 2.317 4.66-.444 9.034 1.78 10.511 5.346 1.085 2.62 1.364 2.725 6.166 2.327 4.975-.412 5.072-.369 8.939 4.024 2.22 2.522 4.175 4.01 4.524 3.444.95-1.538 6.975-1.177 9.654.578 1.32.866 3.038 2.806 3.817 4.312 1.177 2.277 1.72 2.574 3.23 1.767 4.566-2.444 11.71-.374 14.002 4.058 1.363 2.635 1.515 2.686 3.713 1.246 4.143-2.715 8.412-1.952 12.133 2.166 2.946 3.26 3.508 3.525 5.066 2.386 3.822-2.794 12.989-.558 14.27 3.481.768 2.417 1.642 2.42 3.822.01 1.212-1.339 2.94-1.909 5.79-1.909 3.365 0 4.488.505 6.534 2.937 1.36 1.616 2.471 3.314 2.471 3.775 0 .46 1.106-.268 2.458-1.62 2.158-2.157 3.044-2.4 7.258-1.996 3.757.361 5.247 1.022 6.86 3.044l2.059 2.583 2.304-2.452c3.29-3.502 8.438-3.38 12.112.288 1.51 1.508 2.833 2.796 2.94 2.864.107.068 1.27-.951 2.582-2.264zm105.918-49.003c-7.32-2.53-9.458-4.312-12.404-10.332-2.31-4.72-2.678-6.617-2.678-13.768 0-7.526.247-8.65 2.667-12.143 4.758-6.866 13.304-11.358 19.22-10.103 1.574.334 4.864 1.617 7.311 2.85 5.015 2.526 9.282 8.949 11.184 16.832 2.716 11.254-4.945 24.261-16.186 27.485-3.982 1.142-3.239 1.21-9.114-.821zm9.051-3.552c5.594-2.238 7.298-6.789 7.298-19.481 0-12.304-1.827-16.765-8.009-19.552-5.118-2.308-8.808-.869-12.078 4.71-6.727 11.48-4.175 30.583 4.595 34.395 3.903 1.697 3.77 1.698 8.194-.072zm-235.632 2.896c0-.844 1.168-1.69 2.78-2.012 1.755-.351 2.98-1.309 3.327-2.601.927-3.454.633-31.836-.356-34.438-.66-1.736-1.632-2.448-3.34-2.448-1.775 0-2.41-.504-2.41-1.91 0-1.747.635-1.908 7.533-1.908 6.287 0 7.644.276 8.196 1.67.363.919 3.235 8.54 6.38 16.938 3.146 8.397 5.834 15.381 5.973 15.52.14.14 1.884-4.154 3.876-9.54 1.993-5.386 4.89-13.122 6.438-17.19l2.815-7.398h7.076c6.358 0 7.075.187 7.075 1.845 0 1.304-.77 1.935-2.625 2.148l-2.625.302-.258 18.728-.258 18.729 2.883 1.194c1.586.657 2.883 1.786 2.883 2.51 0 1.03-2.07 1.316-9.545 1.316-10.348 0-11.991-.988-6.676-4.012l2.858-1.626-.047-16.033-.046-16.033-2.169 5.727c-1.192 3.15-4.227 11.634-6.742 18.852-3.557 10.204-4.951 13.125-6.266 13.125-1.324 0-3.218-4.091-8.722-18.836l-7.03-18.837-.284 13.348c-.347 16.35.108 19.296 3.198 20.704 1.285.585 2.335 1.64 2.335 2.343 0 .968-1.97 1.278-8.113 1.278-6.635 0-8.114-.265-8.114-1.455zm61.09.127c0-.73 1.023-1.585 2.273-1.899 1.266-.318 2.528-1.526 2.85-2.728.992-3.702.67-33.184-.383-35.153-.544-1.015-1.832-1.846-2.864-1.846-1.239 0-1.875-.648-1.875-1.91 0-1.774.636-1.908 9.068-1.908 8.323 0 9.068.151 9.068 1.842 0 1.185-.768 1.952-2.148 2.148-2.135.303-2.15.42-2.407 19.232l-.259 18.928 2.884 1.088c1.587.6 2.884 1.64 2.884 2.312 0 .912-2.423 1.222-9.545 1.222-7.518 0-9.545-.282-9.545-1.328zm21.955-.104c0-.787.844-1.431 1.876-1.431 3.407 0 3.905-2.976 3.634-21.693l-.26-17.92-2.625-.303c-1.854-.213-2.625-.844-2.625-2.148 0-1.701.746-1.845 9.545-1.845 8.8 0 9.546.144 9.546 1.845 0 1.304-.77 1.935-2.625 2.148l-2.625.302-.259 18.808c-.25 18.146-.19 18.845 1.707 19.86 1.2.642 3.695.792 6.406.386 3.598-.54 5.318-1.545 9.077-5.303 2.55-2.55 5.046-4.637 5.546-4.637 1.16 0 1.225-.357-1.007 5.516l-1.916 5.04 2.785-1.44c2.528-1.308 3.41-3.32 9.61-21.92 6.648-19.944 6.902-20.496 9.7-21.11 1.58-.347 3.072-.433 3.314-.19.242.241 3.573 9.84 7.402 21.328 5.865 17.597 7.326 21.065 9.275 22.007 3.232 1.561 7.268.58 7.942-1.928.99-3.691.61-31.739-.471-34.843-.784-2.246-1.628-3.006-3.341-3.006-1.402 0-2.293-.556-2.293-1.431 0-1.134 1.362-1.432 6.537-1.432h6.537l10.883 15.495 10.883 15.496.293-10.007c.161-5.504.028-11.833-.297-14.064-.51-3.502-.908-4.057-2.918-4.057-1.432 0-2.328-.55-2.328-1.431 0-1.16 1.538-1.432 8.114-1.432 6.576 0 8.114.271 8.114 1.432 0 .873-.89 1.431-2.285 1.431-1.256 0-2.545.68-2.863 1.51-.319.83-.58 10.71-.58 21.955 0 19.279-.1 20.444-1.771 20.444-1.219 0-5.731-5.661-14.456-18.136-6.976-9.975-12.837-18.136-13.023-18.136-.187 0-.34 6.892-.34 15.317v15.317l2.857 1.626c6.007 3.418 3.888 4.012-14.312 4.012-14.636 0-17.181-.212-17.181-1.432 0-.787.776-1.431 1.726-1.431s2.446-.537 3.325-1.194c1.49-1.112 1.477-1.58-.185-6.92l-1.782-5.727-7.7-.277-7.7-.276-.948 3.617c-2.334 8.899-2.367 8.488.787 9.794 1.612.668 2.931 1.806 2.931 2.53 0 1.794-15.828 1.912-16.55.123-.385-.955-.496-.955-.556 0-.057.905-3.998 1.193-16.303 1.193-13.788 0-16.227-.215-16.227-1.432zm57.919-28.682c-1.651-5.013-3.184-8.557-3.406-7.875-.223.682-1.598 4.783-3.057 9.114l-2.653 7.875h12.119l-3.003-9.114zM317.373 586.8l-24.536-11.602-.043-4.057c-.024-2.231.28-4.06.673-4.064.394-.004 12.528-1.504 26.966-3.334 14.437-1.83 28.125-3.33 30.418-3.334l4.168-.007-.686-6.443c-.377-3.543-.843-6.702-1.035-7.018-.192-.316-3.165-.838-6.606-1.16-6.25-.583-6.266-.578-13.722 4.155l-7.464 4.74h-10.653c-8.73 0-11.28-.336-14.117-1.857-4.945-2.65-12.438-3.386-16.595-1.63-4.078 1.723-6.126 3.879-8.044 8.467-.8 1.914-1.89 3.749-2.422 4.078-.533.33-.973 1.54-.979 2.69-.013 2.916-4.196 11.602-7.747 16.084-1.633 2.062-5.173 4.866-7.866 6.23-4.768 2.417-5.245 2.468-17.965 1.924-9.045-.387-13.954-1.018-15.95-2.05-1.584-.819-6.748-1.89-11.473-2.379-4.726-.489-10.45-1.71-12.72-2.715-2.271-1.004-5.762-2.132-7.759-2.507-1.996-.374-11.432-3.489-20.967-6.921-19.33-6.957-26.441-8.213-32.405-5.722-2.687 1.123-4.082 2.552-5.465 5.6-1.022 2.252-1.867 4.814-1.879 5.695-.011.88-1.152 2.491-2.536 3.58-2.01 1.58-3.88 1.977-9.324 1.977-5.758 0-7.371-.382-10.459-2.48-4.132-2.808-6.354-7.221-6.304-12.523.05-5.398 2.248-14.54 4.595-19.106 3.826-7.447 8.735-22.37 8.735-26.557 0-4.128-2.478-11.236-8.965-25.72-2.391-5.337-3.425-9.03-3.433-12.265-.01-3.985-.464-5.082-3.257-7.875-2.45-2.45-4.061-3.246-6.572-3.246-7.478 0-11.5-4.386-13.709-14.95-1.303-6.235-1.381-8.565-.466-13.987 1.401-8.295 2.935-11.184 8.921-16.805 4.145-3.892 4.76-4.92 4.225-7.055-.598-2.38-10.67-11.341-15.67-13.941-2.735-1.422-13.398-4.852-15.083-4.852-.693 0-3.322-.443-5.842-.984-3.949-.849-4.906-1.54-6.935-5.012-2.876-4.92-5.76-12.745-5.76-15.634 0-1.193 2.21-4.722 5.012-8.003 9.44-11.056 10.963-13.69 11.682-20.204.364-3.302 1.438-9.655 2.386-14.117.948-4.463 2.02-10.22 2.38-12.795 1.102-7.865 6.165-23.618 9.627-29.954 3.249-5.947 3.277-6.104 3.277-18.184 0-6.702-.355-12.593-.788-13.092-1.603-1.842-3.507-9.642-3.507-14.36 0-4.208.61-5.782 4.531-11.679 6.291-9.46 18.128-19.344 30.51-25.476l9.673-4.79 4.37-8.01c6.965-12.768 17.767-22.836 31.967-29.795 8.914-4.37 15.834-5.978 15.834-3.682 0 .613 9.56.954 26.77.954h26.771l2.396-2.396c1.318-1.318 2.82-3.573 3.338-5.011 1.36-3.78 4.922-5.974 10.646-6.559 2.857-.292 9.163-2.324 14.67-4.727l9.66-4.216h11.55c11.056 0 11.807.13 17.545 3.01 8.763 4.402 21.314 12.159 23.588 14.58 1.123 1.195 2.425 4.542 3.021 7.767 1.152 6.233 1.87 7.061 6.139 7.083 5.003.025 11.516-7.718 13.247-15.75 1.066-4.946 5.464-8.323 20.242-15.547 13.638-6.666 14.718-7.023 24.736-8.193 9.583-1.119 11.328-1.653 20.48-6.273l10.003-5.05 7.655.622c5.797.471 9.282 1.39 14.354 3.784l6.699 3.162 4.467 8.982c4.316 8.68 6.476 16.597 6.476 23.735 0 2.441.887 4.517 3.085 7.223 6.526 8.032 24.638 29.005 25.52 29.55 1.494.923 16.415 22.24 21.495 30.71 6.133 10.223 7.233 10.626 23.483 8.61 6.517-.809 15.329-1.752 19.582-2.097 8.417-.683 24.036.798 30.925 2.932 17.004 5.266 16.914 5.224 24.013 11.386 18.145 15.749 34.188 34.284 46.54 53.77 11.412 18.003 10.282 9.068 12.021 95.016 1.761 87.019 2.751 77.877-9.577 88.44-3.983 3.413-8.036 7.72-9.006 9.57-1.119 2.133-2.165 7.358-2.855 14.267l-1.09 10.903-5.28 6.454c-5.946 7.267-7.963 12.926-7.982 22.389-.009 4.683-.5 6.565-2.495 9.545-5.723 8.556-12.89 14.143-23.065 17.98-6.346 2.393-7.724 2.572-16.227 2.1a6707.37 6707.37 0 0 0-27.905-1.447c-13.037-.65-19.901-1.405-22.91-2.518-2.362-.873-8.09-2.203-12.729-2.955l-8.434-1.368-8.237 3.358c-7.82 3.188-8.81 3.358-19.534 3.358-17.667 0-19.195-1.396-19.319-17.659-.078-10.251-.167-10.669-3.772-17.659-4.486-8.696-7.7-17.2-10.103-26.727-2.88-11.419-2.286-31.218 1.073-35.795.87-1.186 4.151-10.953 5.61-16.704.6-2.363 2.142-6.985 3.427-10.272 1.286-3.286 2.337-7.766 2.337-9.955 0-2.188.937-6.888 2.083-10.445 1.706-5.299 1.882-6.905.975-8.897-.936-2.054-1.74-2.43-5.185-2.427-4.355.004-9.535 2.543-11.08 5.433-.507.947-6.155 15.148-12.552 31.558l-11.63 29.837 1.425 6.436c.784 3.54 1.887 8.154 2.451 10.254 1.186 4.416.165 7.975-2.824 9.841-1.054.659-4.925 1.576-8.601 2.037-7.907.993-10.097 2.264-13.289 7.712-5.044 8.611-8.598 10.445-20.284 10.468-3.018.006-5.489.118-5.49.249 0 .131-.644 3.89-1.43 8.352-.786 4.463-1.43 8.436-1.43 8.83-.001.393 1.415.715 3.146.715 1.731 0 19.176 2.363 38.765 5.25 19.59 2.888 35.785 5.25 35.989 5.25.204 0 .37 3.007.37 6.682v6.682h-3.25c-1.788 0-26.585 3.222-55.104 7.159-28.518 3.937-52.291 7.118-52.828 7.068-.537-.05-12.018-5.311-25.513-11.693zm25.014 4.25c0-2.09-.522-3.919-1.193-4.18l-22.384-8.692c-11.655-4.527-21.642-8.23-22.193-8.23-.551 0-.985.751-.965 1.67.028 1.233 5.962 4.456 22.67 12.312 12.449 5.853 22.955 10.685 23.35 10.739.393.053.715-1.576.715-3.62zm19.769 1.402c5.14-.747 16.862-2.29 26.05-3.428 16.253-2.013 23.15-2.975 43.908-6.125 5.512-.836 11.848-1.757 14.08-2.045 3.52-.454 4.056-.831 4.056-2.851 0-2.076-.41-2.328-3.784-2.328-2.082 0-25.364 2.577-51.738 5.727-26.373 3.15-48.08 5.727-48.237 5.727-.157 0-.286 1.504-.286 3.341 0 3.175.165 3.341 3.303 3.341 1.816 0 7.508-.611 12.648-1.359zM255.41 579.497c5.79-4.884 9.888-11.46 7.144-11.46-1.47 0-1.465-.148.074-1.848 2.1-2.32 1.207-3.879-2.222-3.879-2.844 0-5.188 2.128-8.559 7.769-2.674 4.475-4.256 4.81-24.934 5.294l-16.678.39-9.094-4.252c-5.002-2.338-13.158-5.648-18.125-7.354-4.966-1.706-10.336-3.864-11.932-4.795s-5.908-2.816-9.583-4.19c-6.759-2.524-23.705-10.893-32.204-15.905-2.547-1.5-5.035-2.73-5.53-2.73-.999 0-5.5 9.304-10.89 22.51-2.967 7.271-3.401 9.194-2.697 11.932.649 2.517 1.4 3.33 3.29 3.554 2.079.246 2.882-.477 5.308-4.774 5.094-9.027 14.372-16.04 21.221-16.04 1.595 0 12.025 3.693 23.178 8.206 11.153 4.512 21.567 8.657 23.142 9.21 1.575.554 3.723 1.313 4.773 1.688 9.327 3.33 18.28 5.84 23.863 6.687 13.346 2.025 15.864 2.578 16.99 3.728.786.803 3.852 1.073 9.763.86l8.616-.31 5.086-4.29zm318.834-5.16c-.55-1.988-.772-3.841-.496-4.118.277-.276 2.778-.593 5.559-.705 9.664-.387 10.231-.51 11.262-2.435.72-1.347.728-3.012.024-5.625-1.54-5.719-.602-7.032 4.642-6.497 2.42.247 7.29 1.014 10.824 1.706 8.947 1.75 11.614.744 12-4.523.245-3.344-.11-4.244-2.375-6.026-3.06-2.406-5.372-2.26-14.02.893-9.855 3.59-15.161 1.316-11.742-5.033 2.184-4.055 6.141-6.392 10.814-6.387 4.765.005 19.421-4.653 19.421-6.173 0-1.693-2.917-3.974-6.032-4.715-3.447-.82-8.7-4.257-10.216-6.686-1.015-1.625-.838-2.178 1.28-4 2.886-2.483 6.163-2.062 15.253 1.958 3.023 1.337 6.291 2.43 7.262 2.43 2.326 0 4.275-2.437 3.521-4.402-.33-.86.098-4.049.95-7.087 1.267-4.514 1.343-6.148.42-8.948-.937-2.836-1.587-3.426-3.779-3.426-3.227 0-9.406 3.198-16.35 8.462-5.667 4.296-11.581 5.429-12.73 2.437-1.857-4.842.402-10.2 6.327-15 3.99-3.234 4.453-3.352 23.162-5.91 10.5-1.435 20.005-2.772 21.122-2.97 1.117-.198 2.786-1.514 3.71-2.924 1.586-2.42 1.606-4.331.367-34.136-1.595-38.391-1.64-83.382-.092-92.768.945-5.732.883-7.588-.397-11.932-1.82-6.176-10.62-23.666-15.705-31.213-4.385-6.51-14.243-15.465-22.517-20.455-5.281-3.186-7.336-3.806-16.716-5.043-5.883-.776-12.252-1.41-14.153-1.41-6.81 0-8.506-4.244-2.862-7.163 1.8-.93 4.163-1.184 7.44-.795 2.642.312 6.02.23 7.508-.184 2.685-.747 2.677-.758-1.114-1.485-2.1-.403-9.724-1.043-16.944-1.422-14.41-.758-16.057-1.424-14.481-5.86.75-2.113 1.932-2.73 8.04-4.199 3.937-.946 8.876-1.746 10.976-1.776 6.232-.09 6.921-1.412 1.723-3.306-2.522-.92-5.94-2.276-7.594-3.014s-3.66-1.342-4.457-1.342c-.797 0-4.12-.684-7.385-1.52-6.315-1.618-7.536-1.547-16.912.982-8.367 2.257-17.474 6.698-22.34 10.894-5.933 5.116-11.58 7.433-14.68 6.02-3.07-1.398-3.286-1.384-3.286.212 0 .723-.68 1.879-1.51 2.568-.83.689-2.777 3.764-4.327 6.834l-2.817 5.582.982 15.475c.54 8.512.983 15.798.986 16.192.002.393 1.67.716 3.706.716 2.125 0 4.207.61 4.89 1.431.653.788 1.928 1.432 2.832 1.432 1.437 0 1.722-1.508 2.249-11.912.367-7.241 1.178-13.289 2.07-15.42 2.994-7.168 16.72-20.478 21.501-20.85.797-.062 2.026-.47 2.732-.905 1.541-.953 2.943.92 2.964 3.96.009 1.343-.95 2.65-2.61 3.553-5.336 2.905-10.782 7.818-13.811 12.46-2.995 4.589-3.128 5.203-3.44 15.884l-.325 11.11 3.81 7.98c3.449 7.227 5.08 9.227 17.259 21.159l13.45 13.178v7.646c0 4.205.4 8.396.891 9.312.49.916 1.356 11.304 1.924 23.085.568 11.78 1.937 30.596 3.042 41.814 2.13 21.613 2.087 22.029-2.256 22.067-3.612.032-4.337-3.573-7.102-35.303l-2.704-31.023-.696 11.455c-.382 6.3-1.059 20.904-1.503 32.454-.776 20.184-1.293 23.633-4.508 30.068-.656 1.312-1.487 4.58-1.847 7.262-.804 5.98-3.607 10.874-6.227 10.874-1.207 0-1.923-.632-1.923-1.696 0-.933.655-24.605 1.455-52.605 1.14-39.887 1.208-51.595.31-54.078-.955-2.64-2.048-3.497-6.565-5.144-2.98-1.087-5.743-1.976-6.138-1.976-.396 0-2.372-1.309-4.391-2.908l-3.672-2.908-6.91 4.101c-11.2 6.647-17.176 12.831-22.221 22.997-2.402 4.84-4.368 9.12-4.368 9.51 0 1.075 5.529.846 6.211-.258.329-.531 3.039-2.506 6.023-4.389 2.984-1.883 7.787-5.648 10.675-8.366 8.294-7.809 9.853-9.005 12.648-9.698 2.473-.614 2.624-.467 2.612 2.554-.018 4.67-8.585 14.173-21.465 23.812-5.775 4.323-11.926 8.971-13.67 10.33-3.976 3.1-13.534 15.98-13.534 18.238 0 .927-.85 3.558-1.888 5.846-1.039 2.289-1.898 5.45-1.91 7.025-.023 3.207-2.371 15.103-3.267 16.552-.319.516-1.258 4.514-2.087 8.885-1.525 8.04-4.441 17.927-6.26 21.226-1.03 1.866-.233 23.38 1.043 28.183.867 3.263 4.27 3.718 7.874 1.053 3.239-2.395 5.54-1.36 5.54 2.49 0 3.191 1.53 2.823 2.744-.66.77-2.21.68-4.383-.37-8.83-1.91-8.1-1.749-19.888.466-34.058 2.022-12.935 4.947-26.68 6.524-30.654 1.212-3.054 3.472-4.064 4.993-2.231 1.658 1.996.82 26.91-.999 29.739-2.54 3.95.042 3.516 4.562-.766 8.703-8.244 27.905-19.597 34.728-20.532 5.056-.693 4.574-1.591 6.549 12.203 1.183 8.26.883 10.538-4.413 33.576-1.828 7.953-3.584 15.963-3.903 17.8-.355 2.046-2.346 5.395-5.133 8.636-9.63 11.194-13.512 26.994-8.565 34.86 1.745 2.776 6.71 5.994 10.38 6.728 4.74.948 10.035-1.817 11.562-6.039 1.277-3.532.932-5.63-2.444-14.852-3.14-8.576-.718-25.825 5.308-37.81 3.898-7.754 4.417-8.33 6.33-7.019 2.278 1.56 2.266 5.07-.071 21.241l-2.444 16.9 3.051 8.432c4.074 11.26 6.591 13.806 18.963 19.184 9.335 4.057 14.5 5.994 15.008 5.627.117-.085-.236-1.781-.785-3.77zm-7.146-36.356c-.328-1.306-.18-12.796.328-25.534l.923-23.159 4.853-11.735c2.67-6.454 6.328-13.756 8.13-16.227 1.802-2.47 5.35-8.345 7.887-13.054 4.89-9.079 6.71-17.076 5.137-22.562-.439-1.53-1.725-11.894-2.858-23.032-1.133-11.139-2.623-21.336-3.311-22.662-.688-1.325-3.548-4.77-6.356-7.655-5.796-5.955-9.4-10.463-9.4-11.755 0-1.056 1.413-.65 9.545 2.737 6.914 2.88 9.931 5.029 18.473 13.151l5.857 5.57-2.381 1.76c-6.453 4.773-5.946 1.553-4.762 30.241 1.067 25.852 1.065 25.913-1.036 30.031-1.158 2.27-3.74 6.065-5.736 8.432-8.507 10.09-10.415 19.543-10.415 51.595 0 18.76-.26 23.897-1.194 23.59-.656-.217-1.418-2.605-1.694-5.307-.634-6.21-1.876-7.606-4.342-4.882-1.46 1.612-1.895 3.733-2.111 10.284-.15 4.539-.48 9.219-.735 10.4-.647 3.016-4.028 2.856-4.802-.227zm68.072-126.86c-.88-2.151-9.567-94.164-8.95-94.782.978-.977 2.46 6.649 3.467 17.836.59 6.563 2.356 22.026 3.923 34.364 2.058 16.202 2.773 25.48 2.573 33.409-.16 6.349-.587 10.217-1.013 9.174zM503.292 298.3c-.34-1.357-.292-5.115.107-8.352l.726-5.886.65 5.25c.953 7.702.95 11.454-.013 11.454-.468 0-1.13-1.11-1.47-2.466zm1.906-16.904c.358-.942.892-1.471 1.186-1.177.294.293 0 1.064-.652 1.711-.943.936-1.052.826-.534-.534zm-28.046 289.203c2.038-.814 3.205-.676 5.727.677 4.409 2.367 9.158 1.732 11.597-1.55 1.726-2.322 1.944-4.093 2.003-16.227.065-13.315.158-13.909 4.156-26.507 2.25-7.087 6.836-18.47 10.193-25.295 3.357-6.825 6.993-14.971 8.08-18.103 2.102-6.05 2.616-13.367 1.01-14.36-1.453-.897-17.306 8.687-19.947 12.061-3.537 4.517-6.607 14.086-10.163 31.676-3.526 17.442-5.043 23.402-6.42 25.222-.49.648-1.276 4.613-1.746 8.81-.865 7.732-3.14 13.84-8.166 21.93-2.312 3.72-2.404 4.143-.759 3.463 1.03-.426 3.026-1.235 4.435-1.797zm-249.489-4.592c8.358-1.456 15.624-4.548 20.743-8.826l4.254-3.557v-7.72c0-14.632-7.068-46.213-11.09-49.55-1.245-1.034-1.348-.818-.77 1.597 1.839 7.666 5.429 19.39 6.848 22.36 3.508 7.342.667 18.061-5.69 21.465-4.701 2.517-5.922 1.286-5.64-5.689.278-6.88-1.643-6.856-9.84.121-2.064 1.757-4.33 3.193-5.035 3.193-2.615 0-25.603-7.02-26.279-8.026-.386-.573-.708-3.465-.716-6.427-.014-5.384-.015-5.385-3.819-6.907-2.746-1.099-5.365-1.359-9.414-.936-3.723.39-5.832.224-6.274-.49-.366-.593-1.662-1.077-2.879-1.077s-3.729-.633-5.581-1.407c-2.975-1.243-3.932-1.24-8.215.032-5.846 1.736-8.306.81-13.7-5.16-8.518-9.429-7.734-10.344 8.117-9.484 12.396.673 19.559-.185 18.317-2.194-.299-.483-4.623-.878-9.61-.878-4.986 0-10.931-.47-13.211-1.044-3.475-.875-4.209-1.472-4.534-3.693-.33-2.251.059-2.81 2.597-3.728 1.643-.594 4.674-1.099 6.737-1.12 6.71-.073 13.43-2.173 16.068-5.02 1.363-1.472 2.483-2.975 2.49-3.342.005-.366.655-7.928 1.442-16.803.787-8.876 1.174-16.393.861-16.705-.313-.312-1.586.614-2.828 2.058-2.698 3.134-5.736 3.43-6.468.63-.287-1.098-.107-4.575.401-7.728.508-3.152.661-6.558.34-7.568-1.67-5.263-11.76-11.338-18.852-11.351-1.687-.003-4.158-.576-5.49-1.271-1.883-.982-4.105-1.058-9.942-.34-5.612.69-7.988.63-9.371-.233-1.553-.97-2.21-.821-4.061.918-3.892 3.656-4.777 7.135-2.883 11.335 1.57 3.482 6.931 8.729 11.888 11.635 13.723 8.044 18.025 13.048 19.172 22.302 1.023 8.248.499 10.068-2.9 10.068-3.356 0-5.96-3.15-8.132-9.838-1.765-5.435-4.108-8.478-8.514-11.059-16.469-9.649-16.2-9.435-19.918-15.793-1.988-3.397-4.455-6.444-5.484-6.77-2.926-.929-10.01 3.013-12.257 6.82-3.004 5.092-2.624 10.894 1.132 17.258l3.102 5.257 6.506-.586c6.39-.576 6.58-.526 10.598 2.767 3.641 2.984 4.706 3.353 9.66 3.353 4.288 0 6.043.447 7.637 1.945 2.447 2.298 2.123 6.286-.58 7.144-2.034.646-6.541 8.165-9.356 15.608-2.473 6.54-1.674 11.4 3.596 21.88 5.834 11.604 7.248 12.9 16.894 15.493 4.554 1.224 9.404 3.132 10.776 4.24 3.645 2.942 7.13 4.24 13.27 4.941 5.014.574 5.954 1.093 11.68 6.448 4.152 3.882 9.01 7.176 14.573 9.88 7.221 3.51 9.188 4.057 14.597 4.057 3.438 0 7.082-.445 8.097-.988 1.28-.684 2.427-.678 3.735.022 1.603.858 1.8 1.654 1.302 5.284l-.586 4.273h3.154c1.734 0 5.935-.484 9.335-1.076zm142.397-8.708c-.016-2.287-3.532-21.756-4.016-22.24-.414-.414-6.475 20.917-6.475 22.787 0 .355 2.362.646 5.25.646 3.568 0 5.247-.382 5.241-1.193zm-86.827-11.469c1.852-.648 4.607-2.154 6.12-3.347 1.515-1.193 3.735-2.415 4.935-2.716 2.74-.688 5.423-4.668 4.694-6.965-.304-.957-1.4-2.507-2.437-3.445-2.54-2.3-2.375-6.234.502-11.91 1.312-2.59 2.386-5.284 2.386-5.986 0-1.673-5.445-10.241-6.508-10.241-.452 0-1.311 1.074-1.91 2.386-.795 1.747-1.828 2.386-3.854 2.386-4.255 0-5.334-2.172-5.864-11.819l-.478-8.673-6.828 10.962c-3.756 6.03-7.12 12.36-7.475 14.07-.69 3.322.962 22.296 2.441 28.029 2.021 7.831 6.359 10.04 14.276 7.27zm43.878-7.622c-.002-4.279-1.631-15.281-4.268-28.824-3.781-19.413-4.604-22.374-7.232-26.035l-2.966-4.13 4.371-4.129c4.149-3.919 4.37-4.39 4.357-9.283-.019-6.591-2.112-13.746-4.022-13.746-1.246 0-15.855 16.509-19.45 21.98-1.775 2.7-.483 7.035 9.478 31.824l8.196 20.395-2.906 5.757c-1.598 3.166-3.038 7.177-3.2 8.912l-.292 3.155 5.971-.558c3.973-.37 6.195-.196 6.639.523.367.594 1.716 1.08 2.998 1.08 2.256 0 2.33-.22 2.326-6.92zm27.055.247c2.146-2.55 2.345-3.445 1.86-8.353-.298-3.023-1.307-7.023-2.243-8.89-1.331-2.659-2.024-8.454-3.194-26.727l-1.495-23.333-5.275-4.773c-7.107-6.429-7.05-8.235.47-14.943l5.72-5.102 3.82-21c2.102-11.55 3.814-21.43 3.805-21.955-.009-.525-.816.764-1.794 2.864-3.145 6.752-11.185 13.413-21.205 17.567-6.102 2.529-6.635 5.59-2.738 15.711l2.877 7.472-1.026 10.647c-.563 5.857-1.491 13.44-2.062 16.853-.57 3.412-1.223 11.508-1.452 17.991-.598 16.947 2.658 29.087 10.879 40.573 6.397 8.937 9.125 10.065 13.053 5.398zm36.6-10.181c3.841-4.02 6.984-7.749 6.984-8.285 0-1.758-2.276-7.315-2.996-7.315-.388 0-1-1.968-1.36-4.374-.658-4.38 1.59-15.663 3.642-18.281 1.032-1.317 2.276-17.435 1.346-17.435-.817 0-4.14 6.656-5.875 11.768-.79 2.325-1.878 8.682-2.419 14.127-.876 8.823-1.563 11.221-6.315 22.052-2.932 6.684-5.081 12.805-4.775 13.603 1.233 3.214 4.788 1.444 11.767-5.86zm-170.721-7.513c.604-1.327 1.747-2.662 2.54-2.966 1.015-.39 1.44-1.946 1.44-5.279 0-3.871-.544-5.402-3-8.46-1.716-2.134-4.475-4.218-6.444-4.867-1.894-.623-5.054-2.426-7.023-4.007-3.302-2.65-3.58-3.253-3.58-7.798 0-3.623.987-7.198 3.728-13.519 5.98-13.79 12.391-26.072 17.392-33.325 2.766-4.01 4.653-7.798 4.653-9.337 0-3.25-2.182-8.558-4.573-11.125-2.665-2.86-10.258-3.549-15.801-1.432-4.16 1.589-4.461 1.963-6.438 7.996-1.141 3.48-2.652 7.402-3.358 8.715-2.307 4.29-6.939 20.328-8.546 29.59-.866 4.988-1.574 13.608-1.575 19.157 0 9.407.201 10.49 2.987 16.008 1.939 3.84 5.913 8.902 11.317 14.412 7.318 7.464 8.744 8.504 11.755 8.572 2.778.063 3.634-.379 4.526-2.335zm146.09-7.86c1.24-2.431 3.058-4.134 5.623-5.265 2.085-.92 4.92-2.72 6.3-3.999 2.424-2.246 2.51-2.696 2.51-13.058v-10.732l18.163-32.128 18.162-32.128-1.935-4.514c-1.064-2.483-1.935-5.08-1.935-5.77 0-.69 2.73-4.538 6.065-8.55 5.886-7.08 8.253-11.975 8.253-17.068 0-3.518 1.84-7.091 3.935-7.64 3.112-.813 1.969-2.44-3.741-5.322-3.929-1.983-7.665-5.14-12.881-10.886-10.565-11.637-13.046-11.76-16.545-.816-1.604 5.017-1.593 5.195.638 10.977 1.625 4.214 2.363 8.343 2.607 14.588.407 10.416-.368 12.66-7.762 22.484-4.965 6.597-12.069 22.15-12.069 26.425 0 .888-.635 2.521-1.41 3.629-.777 1.108-1.668 4.532-1.982 7.61-1.324 12.999-3.108 18.207-14.405 42.053-4.806 10.145-5.075 13.086-2.217 24.277 1.067 4.179 1.686 8.009 1.375 8.511-.31.502-.118.913.427.913.546 0 1.816-1.616 2.824-3.592zm45.34-1.614c.942-1.439 2.853-2.59 4.955-2.983l3.421-.642-.637-4.63c-.587-4.268.084-6.54 8.592-29.107 5.076-13.463 9.71-26.77 10.297-29.57.95-4.526.872-5.31-.7-7.045-1.441-1.594-2.932-1.953-8.089-1.953-5.263 0-6.612.339-8.057 2.027-3.21 3.748-5.212 12.038-6.799 28.15-.866 8.79-2.146 17.732-2.844 19.869-.699 2.137-1.534 6.892-1.857 10.567a1204.85 1204.85 0 0 1-1.14 12.17c-.602 5.966.335 6.997 2.857 3.147zm-145.496-31.306c9.861-17.66 11.624-21.89 9.635-23.12-1.293-.799-17.572 11.374-22.489 16.817-3.262 3.61-3.328 3.848-3.328 11.958 0 6.36.365 8.678 1.58 10.02 3.311 3.66 4.545 2.336 14.602-15.675zm-38.877 9.47c1.096-1.722.87-7.883-.398-10.857-1.68-3.94-4.608-6.127-6.146-4.59-1.85 1.85-2.542 5.788-1.84 10.467.582 3.884.88 4.254 3.686 4.57l3.052.345-2.386 1.166c-2.36 1.153-2.355 1.16.467.591 1.57-.316 3.174-1.077 3.565-1.692zm24.67-30.13c1.496-1.105 2.995-2.01 3.33-2.01 1.604 0 6.295-6.396 7.597-10.356.803-2.442 1.84-5.298 2.306-6.348.465-1.05 1.086-2.661 1.38-3.58.654-2.047 3.293-2.14 6.928-.245 4.192 2.187 5.648 1.774 9.097-2.578 2.964-3.74 3.205-4.584 3.511-12.298.567-14.23-.6-17.501-10.452-29.297-8.07-9.664-8.514-10.427-8.03-13.8.495-3.44.365-3.64-3.6-5.503-3.29-1.547-4.624-2.975-6.662-7.129-3.138-6.4-5.757-7.874-16.422-9.251-10.11-1.305-15.83.053-18.67 4.434-4.182 6.451-5.369 7.931-8.687 10.83-4.454 3.893-9.02 3.99-19.14.406l-7.409-2.625-15.783 7.875c-11.506 5.74-16.773 7.874-19.435 7.874-2.009 0-3.937-.285-4.287-.634-1.405-1.406-5.89-1.068-9.365.704-4.087 2.085-4.585 3.782-1.86 6.336 1.002.94 2.877 4.1 4.167 7.024 2.082 4.72 2.885 5.548 7.184 7.397 7.228 3.11 14.607 2.83 22.476-.853 7.406-3.465 10.518-3.421 10.934.154.222 1.915-.466 2.985-3.065 4.766-6.517 4.465-6.41 7.783.508 15.662 2.387 2.718 3.624 3.353 6.534 3.353 3.086 0 3.946-.514 6.131-3.667 2.974-4.292 4.612-12.717 3.827-19.689-.856-7.601 1.07-11.927 6.654-14.942 7.133-3.853 12.667-4.12 24.752-1.192 5.67 1.374 10.985 3.172 11.809 3.996 1.361 1.362 1.304 1.656-.632 3.224-1.67 1.351-3.916 1.74-10.377 1.792-4.536.037-9.106.403-10.156.813-1.909.747-1.909.747 0 1.314 1.05.312 3.627.857 5.727 1.21 6.114 1.028 12.77 8.832 15.811 18.542.413 1.317 1.642 4.751 2.731 7.631 3.473 9.182 2.52 13.903-4.273 21.165-4.806 5.138-5.44 8.418-2.098 10.846 3.05 2.216 13.285 1.403 17.01-1.35zm118.123-20.862c.47-1.969 1.63-6.801 2.58-10.739 1.756-7.289 10.06-26.578 16.64-38.659 3.25-5.964 3.568-7.143 2.967-10.977-.37-2.362-1.402-5.684-2.291-7.381-.89-1.697-1.886-5.038-2.213-7.424-.597-4.355-.047-6.33 4.538-16.299 3.57-7.762 2.307-25.189-2.323-32.06-2.391-3.547-13.771-8.93-16.83-7.959-.976.31-6.366 5.486-11.977 11.503-9.668 10.365-10.4 10.939-13.957 10.939-2.065 0-4.78-.672-6.033-1.494-1.254-.82-4.782-1.715-7.842-1.986-7.293-.646-10.816-1.958-13.432-5.004l-2.143-2.494-.005 3.989c-.006 4.654-1.875 6.989-5.596 6.989-2.18 0-3.766-1.58-9.977-9.93-4.062-5.46-7.94-10.141-8.617-10.401-2.832-1.087-6.56.79-11.093 5.582-2.647 2.799-4.813 5.888-4.813 6.864 0 .977-.43 2.206-.956 2.732-.526.526-1.79 5.23-2.808 10.452-1.018 5.223-2.764 12.036-3.88 15.141-1.89 5.257-1.957 10.105-.139 10.105.424 0 4.819-4.497 9.766-9.994 6.018-6.686 10.258-10.535 12.813-11.632 4.88-2.095 13.284-4.007 17.956-4.085 3.535-.06 11.843 2.031 15.2 3.825.912.487 2.432.886 3.379.886.946 0 3.421.908 5.501 2.018 2.08 1.11 6.144 3.21 9.031 4.667 6.395 3.226 8.901 5.836 10.995 11.451.88 2.363 2.465 6.418 3.522 9.013 1.713 4.205 1.862 6.122 1.38 17.659l-.542 12.942 2.359-10.978c1.832-8.522 2.313-13.324 2.155-21.477-.176-9.087.068-11.013 1.813-14.318 3.3-6.252 8.813-12.074 11.12-11.744 3.016.433 2.949 2.802-.288 10.178-2.62 5.967-2.923 7.647-2.923 16.162 0 7.425-.417 10.445-1.907 13.814-2.433 5.5-5.73 24.665-5.73 33.309 0 3.653.47 9.67 1.045 13.37.755 4.869.755 7.016 0 7.771-1.137 1.137-1.389 5.336-.465 7.743 1.032 2.69 3.143 1.602 4.02-2.07zm-52.326-6.983c0-7.715-1.036-9.483-5.556-9.483-3.457 0-3.685.214-6.648 6.223-1.688 3.422-3.069 6.429-3.069 6.681 0 .253 2.04.466 4.535.474 2.493.008 5.178.431 5.965.94.788.509 2.184.932 3.103.94 1.409.012 1.67-.892 1.67-5.775zm123.018-7.126c18.348-2.917 20.385-3.444 25.07-6.485 4.251-2.76 4.85-3.619 6.692-9.592 2.302-7.468 2.065-17.088-.544-22.075-.824-1.575-1.5-3.616-1.504-4.534-.003-.92-.435-1.67-.96-1.67-.525 0-.955.987-.955 2.195 0 4.242-3.654 5.794-6.845 2.906-1.157-1.047-1.745-2.916-1.745-5.545 0-2.18-.559-4.728-1.242-5.662-1.153-1.578-1.588-1.422-6.192 2.216-10.71 8.466-20.369 25.227-22.596 39.207-.891 5.598-.987 8.484-.31 9.307 1.199 1.456.129 1.482 11.13-.268zm-325.543-15.558c.263-1.851-.058-2.172-1.909-1.91-1.482.21-2.329 1.057-2.539 2.54-.262 1.85.059 2.171 1.91 1.909 1.482-.21 2.328-1.057 2.538-2.54zm226.389.25c0-.7.751-1.71 1.67-2.245.919-.535 1.241-.975.716-.976-.525-.002-2.445 1.232-4.266 2.742-3.276 2.716-3.284 2.74-.716 2.25 1.428-.274 2.596-1.07 2.596-1.77zm-247.184-4.26c1.525-1.087 4.729-5.744 7.284-10.59 5.072-9.62 8.599-13.03 11.74-11.349 1.493.8 1.934 1.994 1.934 5.241 0 7.858 3.59 6.934 9.545-2.458 5.868-9.252 7.827-10.49 17.46-11.033 4.31-.243 8.754-.627 9.878-.853 2.704-.545 3.5-2.896 1.858-5.49-.73-1.154-1.618-3.494-1.974-5.2-.355-1.706-1.042-3.102-1.525-3.102-.483 0-.879-.773-.879-1.718s-.386-2.127-.858-2.625c-.472-.499-1.158-3.592-1.525-6.873l-.668-5.966h2.806c2.543 0 3.429 1.005 9.471 10.739 5.936 9.562 6.989 10.77 9.61 11.03 2.57.256 3.02-.058 3.554-2.486.604-2.75-1.13-47.024-1.872-47.765-.211-.211-2.345-.09-4.742.27-3.199.48-4.785 1.305-5.963 3.103-1.52 2.32-1.498 2.76.432 8.291 2.763 7.922 3.706 15.438 2.17 17.29-1.6 1.926-5.076 1.818-7.478-.233-1.427-1.22-2.26-3.734-3.08-9.307-1.749-11.89-3.63-17.378-6.618-19.315l-7.51-4.869c-2.7-1.751-4.91-3.534-4.91-3.962 0-1.316-6.65-4.786-9.17-4.786-1.31 0-3.54-.585-4.957-1.301-2.785-1.406-33.341-2.902-35.245-1.726-.576.356-3.092 4.703-5.592 9.66-4.385 8.693-4.673 9.79-8.144 31.019-1.98 12.104-4.1 23.725-4.714 25.825-.744 2.55-2.984 5.645-6.737 9.312-6.483 6.335-6.921 8.35-3.196 14.707 2.125 3.626 2.839 4.14 5.748 4.14 4.188 0 10.983-5.949 14.322-12.539 2.452-4.837 5.316-6.514 7.718-4.52 2.078 1.724 1.284 10.523-1.262 13.987-2.794 3.802-3.37 7.946-1.442 10.39 1.245 1.58 9.728 6.72 11.478 6.956.181.024 1.555-.828 3.053-1.895zm22.023-47.857c-.095-13.687.143-16.502 1.708-20.153 1-2.334 2.125-7.095 2.498-10.58.7-6.54 1.728-8.05 2.738-4.024.454 1.807-4.944 42.743-6.492 49.234-.188.788-.391-5.727-.452-14.477zm-31.494 10.752c-1.62-1.027-1.127-16.667.62-19.66.896-1.535 1.12.293 1.143 9.306.016 6.169-.078 11.21-.21 11.201-.13-.008-.83-.39-1.553-.847zM320.53 401.85c1.103-1.103 2.887-4.002 3.966-6.443 1.078-2.44 3.025-6.048 4.326-8.017 2.195-3.322 2.7-3.58 7.011-3.58 5.72 0 6.137-1.538.59-2.17-3.466-.395-4.788.025-9.069 2.88-2.756 1.837-5.011 3.678-5.011 4.089 0 .411-1.504 2.547-3.341 4.747-5.472 6.55-4.109 14.13 1.528 8.494zm37.783-1.991c-.305-.762-.531-.536-.577.576-.041 1.007.184 1.57.501 1.253.318-.317.352-1.14.076-1.83zM302.3 379.508c1.444-4.375 3.53-5.445 7.964-4.084 1.918.588 3.781.775 4.141.415.36-.36.898-2.472 1.194-4.694.675-5.053 2.913-5.64 8.095-2.123 5.467 3.71 6.804 2.767 3.346-2.363-3.759-5.576-3.513-8.982.679-9.39 2.558-.248 4.037.682 10.251 6.444 3.995 3.704 7.519 6.734 7.832 6.734.313 0-1.027-2.9-2.978-6.443-4.33-7.867-9.605-13.602-12.51-13.602-1.178 0-5.461-1.719-9.52-3.819-11.355-5.876-15.787-4.861-19.13 4.38-.612 1.69-3.511 6.575-6.444 10.857-2.932 4.282-5.332 8.138-5.332 8.568 0 .43 1.228 1.29 2.729 1.912 1.832.759 3.454 2.678 4.936 5.843 1.214 2.592 2.53 4.713 2.925 4.713.394 0 1.214-1.507 1.822-3.348zm186.339-2.689c6.296-5.835 6.758-10.19 1.08-10.19-4.697 0-7.968 3.509-7.968 8.547 0 3.419.258 3.862 2.247 3.862 1.236 0 3.324-.999 4.64-2.219zM217.44 351.086c4.34-2.918 4.55-5.565.819-10.277-7.437-9.39-10.976-23.948-11.94-49.11-.321-8.4-.974-17.578-1.45-20.395-.77-4.548-.54-6.046 2.036-13.364 5.499-15.614 14.782-31.162 26.15-43.798 5.808-6.455 7.603-6.502 9.105-.239.77 3.207 1.636 4.773 2.64 4.773.82 0 4.624-1.718 8.45-3.818 3.826-2.1 8.161-3.818 9.633-3.818 1.695 0 5.214 1.81 9.6 4.941 5.741 4.096 6.822 5.28 6.32 6.92-.832 2.713-.5 2.563-6.992 3.152-4.72.428-6.169.21-7.676-1.154-1.85-1.675-4.793-1.425-4.793.407 0 .53 1.098 1.682 2.44 2.56 2.358 1.546 2.42 1.839 1.864 8.852-.316 3.99-.233 7.71.186 8.267.418.557 3.725 2.26 7.348 3.784 4.027 1.694 8.48 4.543 11.454 7.33 8.036 7.53 12.81 6.102 18.637-5.575 1.799-3.604 4.376-7.774 5.728-9.267 3.121-3.448 14.06-8.915 19.38-9.685 6.552-.948 18.01 1.777 26.33 6.263 10.258 5.53 12.597 9.242 15.808 25.092 1.346 6.646 2.89 12.91 3.432 13.921.54 1.011.983 2.986.983 4.389 0 3.404 4.823 9.322 11.756 14.426 8.79 6.471 9.24 6.288 19.56-7.994 5.922-8.194 8.775-12.984 8.775-14.73 0-1.425-2.148-6.126-4.773-10.448-4.569-7.522-5.654-11.357-3.965-14.018 1.308-2.062 3.931-.209 6.297 4.447 2.768 5.448 7.911 10.84 11.925 12.503 6.081 2.519 14.351-2.998 19.463-12.985.84-1.643 3.058-3.89 4.927-4.992 1.87-1.103 3.646-2.65 3.948-3.437 1.757-4.578 18.596-8.048 25.096-5.17 3.906 1.728 3.856 4.365-.102 5.39l-3.048.79 3.144 1.302c2.475 1.025 4.09 1.077 7.582.242 2.44-.583 6.263-1.335 8.494-1.671 3.747-.565 4.057-.832 4.057-3.507 0-1.856-2.568-7.376-7.159-15.385-3.937-6.869-7.159-13.36-7.159-14.426 0-2.647-20.774-23.443-23.418-23.443-1.085 0-2.442-.47-3.016-1.043-1.604-1.604-4.688.495-5.92 4.029-1.496 4.29-1.313 7.815.882 16.97 1.906 7.951 3.56 10.497 6.859 10.559 1.724.032 3.613 2.731 3.613 5.163 0 2.105-10.005 12.567-13.34 13.948-1.593.66-3.598.857-4.54.445-.929-.405-2.257-.642-2.952-.528-4.894.808-5.48-9.796-1.196-21.659 2.083-5.768 2.507-7.955 1.67-8.627-1.771-1.425-5.314.442-7.119 3.753-3.48 6.385-9.942 14.217-11.728 14.217-1.078 0-2.786-1.536-4.2-3.777-3.986-6.314-7.567-7.014-17.156-3.352-3.53 1.348-4.437 2.328-6.834 7.377-2.818 5.937-5.565 9.297-7.6 9.297-1.655 0-3.483-5.052-2.805-7.752.398-1.587-.112-3.297-1.616-5.42-7.404-10.452-11.806-16.341-12.24-16.377-.272-.023-1.346 2.428-2.385 5.447l-1.89 5.489-10.827 5.488c-6.416 3.253-12.06 5.489-13.854 5.489-6.197 0-14.603-4.131-24.314-11.947-5.684-4.576-10.576-4.61-16.473-.113-7.668 5.847-14.3 6.962-16.494 2.774-1.27-2.425-1.136-3.059 1.951-9.19 2.247-4.462 3.133-7.315 2.748-8.85-.559-2.227-.763-2.265-12.052-2.265-17.08 0-18.951-1.49-17.609-14.029.902-8.417 1.146-8.88 4.691-8.88 2.737 0 3.297.525 5.615 5.25 1.416 2.888 3.218 5.25 4.003 5.25.788 0 2.718-2.554 4.302-5.691 3.199-6.338 4.984-7.736 8.916-6.984 2.017.386 3.308-.097 5.259-1.966 3.511-3.364 6.498-2.558 7.79 2.103 1.35 4.87 1.718 5.227 7.973 7.734 6.606 2.647 7.212 2.183 6.586-5.039-.517-5.973-3.76-11.43-8.104-13.636-1.709-.868-5.47-3.005-8.357-4.75-2.887-1.743-7.914-4.078-11.17-5.188-6.728-2.293-8.352-1.884-11.813 2.976-2.013 2.828-2.354 2.945-6.987 2.415-2.679-.307-6.245-.83-7.924-1.163-2.507-.496-3.468-.158-5.36 1.883-1.727 1.864-3.242 2.488-6.04 2.488-4.216 0-7.983 2.17-7.968 4.588.006.89 2.4 5.912 5.319 11.162 8.477 15.245 9.474 18.97 6.986 26.107-.977 2.805-1.352 3.006-5.596 3.006h-4.549l-1.651-8.315c-2.054-10.343-4.72-17.586-7.837-21.29l-2.397-2.849h-17.936c-17.424 0-18.096.073-23.54 2.559-13.69 6.25-21.268 12.604-25.824 21.651-3.653 7.255-4.254 11.762-2.202 16.52 1.555 3.606.195 6.043-3.373 6.043-1.836 0-2.357.777-3.352 5.01-.649 2.757-1.812 6.623-2.586 8.592-1.232 3.135-1.8 3.58-4.575 3.58-3.853 0-5.763-1.763-7.236-6.68-.972-3.246-.852-4.344.93-8.486 1.125-2.616 2.046-5.334 2.046-6.038 0-2.466 6.557-14.7 14.7-27.428 5.067-7.919 7.873-13.176 7.325-13.724-1.38-1.381-12.9 4.46-19.741 10.01-6.398 5.192-14.017 14.17-15.634 18.423-1.834 4.823-1.129 11.76 1.895 18.65 3.134 7.14 3.482 9.178 1.67 9.788-.95.32-.952.693-.007 1.837 1.508 1.828.634 2.693-2.723 2.693-2.194 0-3.188-.9-5.775-5.224-2.018-3.375-4.76-6.283-7.745-8.217l-4.62-2.994-6.079 2.992c-6.452 3.176-16.51 12.945-22.444 21.796-2.802 4.18-2.995 4.968-2.48 10.117.43 4.297 1.245 6.452 3.54 9.349 4.031 5.09 5.214 4.377 4.826-2.909-.535-10.058 3.498-11.81 8.45-3.672 4.562 7.496 6.534 9.307 10.134 9.307 4.118 0 5.117-1.996 5.117-10.225 0-6.967 1.357-10.158 4.69-11.03 3.277-.857 5.365 2.594 5.107 8.443-.281 6.384.924 7.213 9.975 6.865 3.563-.136 8.519.12 11.012.571 4.382.793 4.534.743 4.534-1.48 0-1.428-1.45-3.718-3.818-6.03-5.726-5.592-4.867-9.93 1.993-10.063 1.791-.035 6.26.385 9.932.933 9.945 1.487 13.46-.267 6.288-3.137-2.058-.824-4.002-2.317-4.32-3.319-.855-2.695 1.044-6.861 4.971-10.903 3.137-3.228 3.963-3.58 8.424-3.58 4.616 0 5.159-.257 8.158-3.87 6.606-7.959 9.281-10.447 11.231-10.447 1.73 0 2.005.57 2.005 4.174 0 2.295-.88 6.164-1.956 8.596-1.076 2.432-2.325 7.533-2.775 11.337-.45 3.803-1.447 8.639-2.217 10.746-.77 2.107-1.699 5.758-2.065 8.114-.366 2.355-1.064 5.573-1.55 7.15-.487 1.578-1.278 5.996-1.758 9.817-1.46 11.631.107 17.171 14.598 51.6 7.148 16.981 13.236 31.263 13.53 31.738.98 1.588 5.83.886 9.108-1.317zm157.774-99.408c-.566-1.474 1.85-6.72 3.59-7.795.782-.484.93-.008.496 1.61-.338 1.263-.62 3.217-.627 4.342-.015 2.376-2.705 3.809-3.46 1.843zm79.472 99.235c1.098-.77 2.715-2.912 3.593-4.762 1.86-3.918 1.5-4.901-4.217-11.506-4.453-5.145-5.08-9.155-1.664-10.646 2.09-.912 7.177.038 10.003 1.868.645.418 2.041.296 3.102-.272 1.57-.84 1.929-1.992 1.929-6.18 0-3.101-.523-5.672-1.316-6.464-2.698-2.699-2.76-6.967-.174-12.07 1.345-2.653 2.444-5.176 2.444-5.607 0-.43-1.916-2.81-4.257-5.29-4.166-4.41-4.502-4.56-15.512-6.96-14.902-3.248-22.372-2.96-27.447 1.061-9.924 7.863-13.719 13.467-17.289 25.526-1.783 6.026-1.52 18.786.465 22.494 4.365 8.156 11.475 11.355 18.612 8.373 4.017-1.678 11.114-2.042 12.545-.643.498.487 2.402 1.024 4.23 1.193 2.75.253 3.472.8 4.185 3.17 2.309 7.672 2.623 8.114 5.758 8.114 1.657 0 3.912-.63 5.01-1.4zm-4.436-37.26c0-.788.43-1.432.955-1.432.525 0 .954.644.954 1.432 0 .787-.43 1.432-.954 1.432-.525 0-.955-.645-.955-1.432zM260.048 349.15c.665-.664 2.929-7.262 5.032-14.662 5.22-18.37 13.49-35.47 19.08-39.45 3.243-2.309 3.674-2.335 5.855-.361 2.388 2.16 4.254 1.116 5.624-3.151 1.546-4.812 3.56-6.988 6.469-6.988h2.38l-.59 7.875c-.464 6.202-.19 9.378 1.286 14.95 2.051 7.74 2.84 9.312 2.84 5.66 0-1.309.993-3.312 2.207-4.453 1.82-1.71 2.47-1.864 3.708-.882.826.655 1.71 1.835 1.966 2.623.752 2.316 1.491-3.965 3.05-25.92.807-11.369 1.718-21.322 2.024-22.12.88-2.296 3.338-2.727 5.916-1.038l2.375 1.556-.615 14.932c-.338 8.212-.856 19.441-1.15 24.954-.526 9.839-.49 10.07 1.962 12.647 2.214 2.328 3.187 2.625 8.579 2.625 5.563 0 6.282-.24 8.453-2.82 1.663-1.976 2.569-4.513 3.03-8.49l.659-5.672 5.406-2.468 5.407-2.468-5.42-.018c-3.636-.012-5.915-.512-6.921-1.518-2.069-2.069-1.878-7.381.427-11.899 1.06-2.077 2.168-5.604 2.464-7.837.702-5.307-1.05-21.912-2.657-25.182-1.418-2.884-7.294-5.085-13.666-5.119-2.1-.011-5.082-.68-6.628-1.485-3.353-1.749-7.138-.606-11.063 3.34-1.33 1.338-4.367 4.15-6.748 6.25-3.77 3.325-4.986 5.463-9.41 16.547l-5.081 12.728-3.273-.614c-1.8-.338-3.827-.826-4.503-1.086-1.768-.678-6.542 3.648-10.037 9.094-3.68 5.734-9.225 8.672-16.369 8.672-6.57 0-11.965-2.842-25.075-13.21-5.847-4.623-11.812-9.176-13.255-10.117l-2.625-1.71v24.668c0 24.113.054 24.81 2.414 30.894 1.328 3.423 3.434 7.382 4.68 8.796 1.247 1.414 7.355 5.167 13.575 8.34 11.59 5.914 15.184 6.621 18.218 3.587zm54.733-71.85c.046-1.112.272-1.338.577-.577.275.689.241 1.512-.076 1.83-.317.317-.543-.247-.501-1.253zm19.44-19.655c-.77-2.423 1.574-4.607 4.943-4.607 2.924 0 4.097 3.682 1.726 5.416-2.686 1.964-5.913 1.573-6.67-.809zm170.723 89.011c1.275-.484 2.588-1.585 2.919-2.446.723-1.885-1.612-6.653-5.016-10.246-5.397-5.694-6.629-7.433-7.242-10.226-.978-4.45-1.997-4.271-3.838.672-.925 2.483-2.454 5.373-3.4 6.423-3.848 4.277-4.914 11.54-2.072 14.113.965.873 3.917 1.675 6.92 1.88 2.882.197 6.178.438 7.325.535 1.147.097 3.129-.22 4.404-.705zm-14.454-49.242c.674-11.295 2.01-19.298 3.788-22.685.613-1.168 3.232-5.66 5.82-9.982 4.529-7.561 5.492-11.606 2.595-10.892-.756.186-4.167.7-7.58 1.141-29.678 3.84-44.922 7.68-49.183 12.388-1.44 1.592-1.436 1.905.06 4.187 1.437 2.194 2.243 2.467 7.276 2.467 3.113 0 8.465.705 11.894 1.566l6.235 1.566 4.223 8.799c2.322 4.838 4.223 9.143 4.223 9.565 0 .422 1.6 3.503 3.556 6.846 5.171 8.84 6.316 8.038 7.093-4.966zm-321.665.674c2.085-1.16 3.277-2.603 3.467-4.198.3-2.51-1.898-5.534-4.023-5.534-2.532 0-13.926 9.566-13.926 11.692 0 1.542 10.82.078 14.482-1.96zm-56.005-9.295c21.189-2.993 21.263-3.017 23.347-7.73 2.19-4.95 3.981-5.253 7.676-1.297 1.471 1.575 3.373 2.863 4.226 2.863 1.392 0 1.409-.274.163-2.682-.762-1.475-3.232-4.527-5.487-6.782-3.859-3.859-4.341-4.068-8.177-3.542-2.242.308-6.12 1.564-8.617 2.792-2.497 1.229-6.258 2.715-8.358 3.303-2.1.588-6.105 1.759-8.9 2.601-2.795.842-7.95 1.755-11.455 2.027-9.293.723-10.668 1.128-10.668 3.139 0 2.568 2.468 4.248 8.014 5.456 6.855 1.493 6.61 1.495 18.236-.148zm151.989-12.846c1.551-1.22 3.872-1.909 6.432-1.909 3.266 0 4.235-.428 5.248-2.322.738-1.379.936-3.026.487-4.056-.415-.955-.687-2.057-.604-2.451.084-.394-.457-.716-1.202-.716-.745 0-2.283 1.503-3.419 3.34-1.897 3.07-2.438 3.342-6.657 3.342-5.62 0-6.172-1.013-4.767-8.758 1.007-5.556.978-5.695-1.999-9.454-1.662-2.098-4.717-4.68-6.788-5.737l-3.767-1.921-3.212 2.674c-1.766 1.47-4.974 3.86-7.129 5.309-4.91 3.303-6.283 6.493-4.378 10.175 1.543 2.984 6.63 5.803 10.474 5.803 1.38 0 2.758.644 3.06 1.431.302.788 1.497 1.432 2.654 1.432 1.232 0 2.983 1.188 4.222 2.864 2.588 3.5 7.575 3.92 11.345.954zm130.087-88.18c2.612-17.482 3.342-20.576 5.94-25.18 3.823-6.773 9.837-9.775 19.582-9.775 5.727 0 6.61-.261 8.563-2.535 1.448-1.685 2.178-3.761 2.178-6.193 0-3.226-.448-3.94-3.799-6.056-5.196-3.28-12.895-3.338-17.935-.135-5.211 3.31-6.766 5.411-9.233 12.471-1.22 3.49-2.912 7.112-3.761 8.05-1.147 1.268-1.547 3.653-1.554 9.268-.01 7.373-.105 7.68-3.808 12.334l-3.798 4.773-.01 12.6c-.01 11.011.2 12.72 1.66 13.543 2.254 1.272 2.416.644 5.974-23.165zm-38.228 16.41c1.07-1.15 1.946-2.475 1.946-2.947 0-1.369-6.793-13.366-8.9-15.717-1.054-1.176-3.685-2.995-5.847-4.042-6.44-3.118-10.323-1.84-20.024 6.59-4.488 3.9-8.054 7.198-7.924 7.328.13.13 3.024-.361 6.432-1.092 8.694-1.863 12.674-1.709 17.382.672 5.855 2.962 7.427 4.56 7.427 7.547 0 4.188 6.153 5.263 9.508 1.66zm57.046-13.144c15.542-13.669 16.432-14.643 17.037-18.656.46-3.042.156-4.355-1.486-6.443-1.958-2.49-2.47-2.622-10.107-2.622-7.984 0-8.044.018-8.044 2.432 0 1.368 1.044 3.4 2.386 4.643 1.642 1.522 2.387 3.222 2.387 5.45 0 2.943-.348 3.346-3.825 4.43-5.35 1.67-7.314 4.008-8.087 9.624-1.198 8.713.856 8.954 9.74 1.142zm-36.65-1.71c.724-1.444 3.363-10.892 5.864-20.996 4.33-17.493 4.473-18.484 2.981-20.76-1.409-2.151-2.198-2.392-7.847-2.392h-6.28l-6.601 5.695c-6.133 5.292-7.909 6.17-16.323 8.062-4.02.904-4.976 3.645-2.775 7.957 2.04 4 10.69 11.907 17.304 15.817 2.363 1.396 6.014 4.031 8.114 5.855 2.1 1.823 3.914 3.331 4.032 3.351.118.02.807-1.145 1.531-2.59zm69.023-19.994c.574-2.286-.21-9.095-2.086-18.13-.348-1.675-1.438-3.774-2.422-4.664-1.679-1.52-1.827-1.52-2.408-.005-.96 2.5.22 14.79 1.956 20.362 1.718 5.515 3.916 6.596 4.96 2.438zm143.576 48.265c-4.921-1.466-11.408-6.522-13.91-10.842-1.22-2.105-2.713-6.404-3.32-9.554-.987-5.129-.9-6.2.842-10.252 3.939-9.167 11.716-17.41 20.825-22.07 9.718-4.974 24.792 1.561 30.26 13.12 3.549 7.502 3.302 12.152-1.1 20.734-4.453 8.683-8.055 12.345-15.717 15.982-6.906 3.277-13.167 4.287-17.88 2.882zm3.714-6.625c7.723-1.78 21.705-13.829 26.172-22.553 1.988-3.883 1.989-8.17.003-12.354-3.641-7.674-13.142-8.047-24.508-.962-7.494 4.671-9.485 6.906-13.84 15.533-4.172 8.263-4.63 11.711-2.004 15.05 2.172 2.761 7.258 6.319 8.98 6.283.526-.01 2.864-.46 5.196-.997zm-42.69-32.358c-5.712-2.703-6.13-3.138-8.913-9.306-4.822-10.685-2.92-19.16 6.732-29.989 5.6-6.283 12.061-9.447 20.71-10.141 8.643-.694 15.212 2.501 19.76 9.611 2.512 3.927 4.1 5.415 6.294 5.897 1.614.354 2.913.932 2.887 1.284-.026.352-1.661 3.791-3.633 7.643-4.315 8.426-5.417 7.913-6.073-2.828-.668-10.924-3.717-14.965-12.538-16.62-4.172-.783-12.887 2.92-17.622 7.486-5.112 4.928-8.89 12.407-9.463 18.733-.425 4.683-.143 6.22 1.757 9.601 3.473 6.18 11.76 9.632 18.592 7.746 5.041-1.392 6.267-.069 1.774 1.914-6.02 2.657-13.244 2.29-20.263-1.03zm-30.053-27.42c-7.305-5.684-9.077-7.512-8.25-8.51.874-1.052 1.297-1.029 2.46.135 3.31 3.31 5.106 1.713 19.08-16.97l12.814-17.129-1.881-3.187c-1.482-2.513-1.627-3.398-.685-4.18.88-.73 3.52.691 9.97 5.365 9.302 6.74 10.012 8.55 3.158 8.055l-3.654-.264-11.964 16.05c-10.943 14.684-14.114 19.339-14.114 20.724 0 .277.9 1.342 2.002 2.368 1.376 1.283 1.747 2.32 1.185 3.324-.665 1.189-2.546.114-10.12-5.78zm-324.64 3.818c-.337-.337.04-1.61.839-2.828 2.149-3.28.609-6.096-12.83-23.471-9.939-12.85-12.002-15.032-14.201-15.02-1.415.008-3.206.415-3.98.904-1.296.82-2.83-.238-2.874-1.981-.018-.732 21.584-17.292 24.726-18.955 3.877-2.052 11.926-1.764 15.037.537 6.078 4.496 8.606 11.726 5.914 16.918-1.949 3.76-7.73 10.346-11.442 13.036l-3.642 2.638 5.261 7.032c2.894 3.868 5.877 7.377 6.63 7.798.809.453 2.595.131 4.372-.787 2.554-1.321 3.2-1.356 4.32-.236 1.122 1.121.082 2.24-6.95 7.484-9.993 7.45-10.405 7.706-11.18 6.931zm4.738-39.606c3.788-7.326-1.962-17-10.104-17-4.248 0-9.658 3.352-10.841 6.717-.713 2.028.031 3.53 5.237 10.573l6.069 8.21 4.15-2.957c2.284-1.626 4.753-4.12 5.49-5.543zm304.606 22.852c-1.335-.999-1.895-5.442-3.44-27.28-1.015-14.349-2.007-26.25-2.205-26.447-.38-.38-19.852 32.236-19.852 33.252 0 .327.905 1.437 2.01 2.467 1.106 1.03 1.718 2.348 1.36 2.928-.431.696-3.137-.298-7.977-2.93-8.829-4.802-8.873-4.837-7.915-6.388.61-.986 1.275-1 3.311-.073 2.247 1.024 2.83.897 4.928-1.075 2.043-1.92 17.368-26.87 21.224-34.555 1.403-2.795.468-5.854-2.446-8.003-.819-.603-1.03-1.29-.497-1.618 1.167-.722 13.675 6.829 13.707 8.274.093 4.191 3.665 43.74 3.98 44.053.64.64 16.042-25.416 16.042-27.14 0-.865-.677-2.54-1.503-3.72-2.946-4.205-.77-3.941 6.995.85 7.875 4.86 9.34 7.035 4.019 5.971-1.611-.322-3.41-.079-4.188.567-.75.622-6.806 10.34-13.46 21.596-6.653 11.255-12.187 20.464-12.298 20.464-.11 0-.918-.537-1.795-1.193zm-270-16.31c-7.566-2.814-16.012-12.594-18.667-21.618-4.487-15.253-.256-25.194 13.758-32.332 12.185-6.205 26.942 2.471 34.672 20.385 1.665 3.858 1.98 6.08 1.641 11.593-.542 8.828-3.454 13.977-10.75 19.001-4.572 3.15-6.213 3.728-11.262 3.975-3.362.165-7.411-.269-9.391-1.005zm18.231-6.328c6.435-4.582 6.33-13.537-.318-27.065-7.094-14.436-13.865-19.59-22.384-17.037-3.038.91-4.088 1.947-6.204 6.13-1.401 2.77-2.548 5.705-2.548 6.524 0 3.713 5.022 17.69 8.213 22.86 6.342 10.275 15.908 13.81 23.241 8.588zm193.028-5.626c-5.376-1.902-11.666-7.22-14.271-12.065-1.091-2.03-1.539-5.366-1.537-11.455.003-9.456 1.168-12.706 7.827-21.847 3.808-5.228 10.7-8.934 18.253-9.816 3.719-.434 5.333 0 11 2.962 4.933 2.578 7.326 3.32 9.306 2.885l2.666-.585v8.19c0 4.503-.322 8.182-.716 8.174-1.565-.032-2.941-1.608-4.988-5.713-6.485-13.002-15.84-15.734-24.437-7.136-6.247 6.247-9.11 12.66-9.308 20.853-.22 9.133 1.967 14.777 7.112 18.342 5.492 3.806 11.103 3.671 18.286-.439 2.99-1.71 5.907-2.82 6.481-2.465 1.542.953-3.547 5.926-8.817 8.615-6.348 3.239-10.82 3.637-16.857 1.5zM277.06 107.28c-.355-.924-.197-1.83.351-2.013.548-.182 1.89-1.056 2.983-1.94l1.986-1.609-5.378-21.446c-2.958-11.796-5.886-21.781-6.508-22.19-.62-.408-2.05-.526-3.177-.262-1.734.406-3.202-.899-3.202-2.846 0-.175 4.798-1.444 10.661-2.819 8.434-1.977 10.82-2.245 11.416-1.28.494.8-.053 1.644-1.581 2.445-1.285.673-2.605 2.296-2.934 3.606-.54 2.154 6.912 35.505 9.216 41.24 1.722 4.287 10.924 2.288 17.815-3.872 1.165-1.04 2.81-3.977 3.657-6.527 1.141-3.438 2.021-4.636 3.405-4.636 1.688 0 1.81.476 1.278 5.012-.323 2.756-.754 5.548-.958 6.204-.476 1.534.665 1.522 2.786-.029 1.576-1.152 1.445-2.42-2.284-22.166-2.175-11.519-4.35-21.68-4.831-22.58-.482-.901-2.239-1.772-3.904-1.937-6.364-.628-3.768-2.498 6.96-5.014 8.514-1.996 10.871-2.26 11.49-1.284 1.185 1.868 1.004 2.262-1.579 3.44-3.134 1.427-3.091 2.256 1.335 25.863 3.88 20.69 4.775 22.743 9.404 21.584 1.52-.381 2.147-.115 2.147.912 0 .797-.15 1.45-.332 1.45-.183 0-5.016 1.004-10.739 2.232-5.723 1.227-11.265 2.268-12.315 2.313-1.47.062-24.19 6.147-34.966 9.365-.915.273-1.823-.228-2.202-1.216zm129.281-8.519a4391.136 4391.136 0 0 0-18.797-4.255c-6.732-1.505-8.652-2.279-8.25-3.327.289-.751 1.752-1.366 3.252-1.366 1.633 0 3.075-.67 3.592-1.67 1.62-3.134 8.025-39.28 7.401-41.766-.338-1.346-1.676-2.93-2.974-3.522-2.548-1.16-2.735-1.565-1.572-3.396.59-.929 4.984-.344 19.71 2.622 10.422 2.1 19.061 3.928 19.196 4.063.136.136.936 3.219 1.778 6.852 1.23 5.304 1.292 6.758.314 7.379-1.994 1.265-2.406.985-4.726-3.212-3.266-5.909-8.762-9.388-15.842-10.03l-5.804-.526-.948 3.705c-.522 2.038-1.23 5.639-1.573 8.001-.343 2.363-.826 5.018-1.075 5.901-.357 1.272.43 1.738 3.794 2.242 5.684.853 7.636.08 9.76-3.867 1.818-3.373 2.736-3.994 3.672-2.479.286.463-.333 5.486-1.375 11.161-1.043 5.676-1.896 10.438-1.896 10.583 0 .144-.645.016-1.432-.287-.788-.302-1.432-1.557-1.432-2.788 0-5.333-4.146-8.978-10.243-9.006-1.264-.006-1.295.093-4 12.658-2.1 9.752-2.436 9.256 7.59 11.208 6.941 1.351 8.61.85 16.931-5.086 6.106-4.355 6.641-2.335 1.539 5.803-2.383 3.802-4.836 6.864-5.45 6.806-.614-.058-5.627-1.138-11.14-2.4zm-61.09-7.397c0-.722 1.227-1.558 2.726-1.858 4.697-.939 5.152-3.698 3.976-24.12-.572-9.927-1.504-19.494-2.071-21.26-.965-3.002-1.246-3.174-4.364-2.668-4.755.772-7.663 2.978-11 8.345-3.058 4.921-3.334 5.126-5.252 3.908-.917-.583-.632-2.416 1.245-7.999l2.435-7.242 10.21-.568c5.614-.313 15.148-.83 21.186-1.149l10.977-.58 3.53 7.169c2.669 5.418 3.218 7.288 2.25 7.66-.705.27-2.294-.61-3.53-1.955-4.798-5.218-9.517-7.915-13.848-7.915-4.94 0-4.634-2.534-3.111 25.772 1.126 20.934 1.419 21.955 6.3 21.955 1.213 0 2.204.18 2.204.399 0 .22.261 1.078.58 1.909.51 1.33-.916 1.51-11.932 1.51-9.98 0-12.511-.266-12.511-1.313zM275.41 700.41c2.647-5.548-1.85-10.376-8.183-8.786-3.21.805-4.033 2.01-4.052 5.925-.02 4.315 2.235 6.195 7.016 5.845 3.237-.237 4.16-.765 5.219-2.984zm180.408 0c2.576-5.4-1.836-10.38-7.859-8.868-3.332.837-4.809 5.6-2.887 9.316 1.316 2.546 1.864 2.8 5.461 2.539 3.308-.24 4.22-.756 5.285-2.987zm-199.879-2.53c2.133-.811 2.449-1.49 2.449-5.274 0-3.855-.294-4.454-2.615-5.337-3.285-1.249-8.473-.336-9.225 1.623-.781 2.036-.69 6.353.161 7.628 1.48 2.216 5.443 2.8 9.23 1.36zm217.748-2.031c1.269-2.453 1.332-3.443.37-5.764-1.61-3.89-4.04-5.01-8.02-3.696-3.467 1.145-4.332 2.483-4.332 6.704 0 3.763 2.298 5.717 6.725 5.717 3.201 0 3.941-.416 5.257-2.961zm-233.031-6.823c1.96-5.603-2.495-10.426-8.289-8.972-3.193.802-4.82 5.216-3.411 9.257.973 2.791 1.213 2.898 5.898 2.625 4.355-.254 4.982-.568 5.802-2.91zm250.6-.118c2.002-6.068-2.576-10.586-8.769-8.653-2.803.875-3.568 2.118-3.586 5.83-.026 5.372.665 6.044 6.218 6.044 4.916 0 5.107-.1 6.137-3.22zm-268.112-4.982c1.597-1.925 1.64-7.646.069-9.218-1.714-1.713-9.54-1.538-10.663.239-1.413 2.234-1.092 7.343.565 9 1.973 1.973 8.385 1.96 10.029-.021zm283.487.533c1.404-.752 1.846-2.014 1.846-5.274 0-3.722-.322-4.408-2.448-5.216-5.843-2.221-9.96-.184-9.96 4.927 0 4.663 1.54 6.55 5.345 6.55 1.854 0 4.201-.444 5.217-.987zm-300.955-8.134c2.947-2.065 2.864-7.029-.166-9.875-3.24-3.044-7.13-2.405-9.432 1.55-3.907 6.716 3.152 12.84 9.598 8.325zm317.605.166c2.385-1.745 2.405-7.468.034-10.087-2.26-2.497-6.638-2.52-9.11-.048-1.91 1.91-2.574 7.075-1.18 9.164 1.621 2.426 7.504 2.983 10.256.97zM190.9 666.177c1.684-2.267 1.763-2.907.679-5.525-2.168-5.234-6.735-6.268-10.848-2.456-2.765 2.563-3.101 4.328-1.428 7.506 1.558 2.961 2.755 3.572 6.444 3.289 2.231-.172 3.842-1.05 5.152-2.814zm347.461 2.157c5.953-2.263 2.768-12.479-3.89-12.479-5.655 0-8.26 10.698-3.086 12.668 2.207.84 4.427.78 6.976-.19zm-362.967-12.139c1.383-3.639-.484-8.763-3.467-9.512-4.052-1.017-6.848.312-8 3.802-.798 2.418-.778 3.845.08 5.727 1.004 2.206 1.699 2.507 5.784 2.507 4.142 0 4.747-.273 5.603-2.524zm380.861 0c1.384-3.639-.484-8.763-3.467-9.512-4.051-1.017-6.848.312-8 3.802-.798 2.418-.778 3.845.08 5.727 1.004 2.206 1.699 2.507 5.785 2.507 4.142 0 4.746-.273 5.602-2.524zm-397.353-8.507c2.948-2.065 2.865-7.03-.165-9.876-3.24-3.044-7.131-2.404-9.432 1.551-3.908 6.716 3.152 12.839 9.597 8.325zm411.966-.389c.544-.544.99-2.548.99-4.453 0-6.197-6.182-9.094-10.582-4.96-2.964 2.784-2.995 7.75-.062 9.86 2.284 1.642 7.822 1.386 9.654-.447zm-425.908-11.16c3.916-3.544.738-10.829-4.724-10.829-6.01 0-9.19 6.38-5.314 10.663 1.997 2.207 7.679 2.301 10.038.166zm439.953.059c1.917-2.31 1.593-8.006-.543-9.568-2.387-1.746-6.237-1.674-8.864.166-2.574 1.803-2.858 6.618-.541 9.177 2 2.21 8.185 2.35 9.948.225zm-454.271-11.513c3.757-3.4.565-11.784-4.486-11.784-2.487 0-7.132 4.052-7.132 6.222 0 1.876 1.81 5.453 3.245 6.41 1.871 1.25 6.581.773 8.373-.848zm467.021.649c2.021-.769 2.449-1.55 2.449-4.473 0-4.03-2.998-7.96-6.07-7.96-3.079 0-6.34 3.733-6.34 7.257 0 5.355 4.01 7.438 9.961 5.176zM117.88 611.756c2.017-2.017 1.409-8.108-.976-9.778-5.969-4.181-12.496 2.147-9.708 9.413.708 1.843 8.925 2.124 10.684.365zm495.423-3.02c.228-2.784-.222-4.248-1.837-5.967-5.281-5.621-12.75.982-9.801 8.666.472 1.231 1.711 1.495 5.966 1.271l5.37-.282.302-3.689zm-507.236-12.3c1.96-5.604-2.495-10.427-8.289-8.973-3.193.801-4.82 5.216-3.411 9.257.973 2.791 1.213 2.898 5.898 2.625 4.355-.254 4.982-.569 5.802-2.91zm519.78-.12c2.002-6.067-2.576-10.586-8.769-8.653-2.803.875-3.568 2.118-3.586 5.83-.026 5.373.665 6.044 6.218 6.044 4.916 0 5.107-.1 6.137-3.22zM92.783 584.855c2.386-1.744 2.406-7.468.035-10.087-3.824-4.225-11.02-.755-11.02 5.315 0 5.177 6.544 8.02 10.985 4.772zm543.134 0c2.385-1.744 2.405-7.468.034-10.087-3.824-4.225-11.02-.755-11.02 5.315 0 5.177 6.544 8.02 10.986 4.772zM81.585 570.37c2.948-2.065 2.865-7.029-.165-9.875-3.24-3.044-7.131-2.404-9.432 1.55-3.907 6.716 3.152 12.84 9.597 8.325zm566.602-.389c1.89-1.89 1.15-7.786-1.216-9.703-4.623-3.743-10.6-.84-10.571 5.135.016 3.463.733 4.92 2.85 5.79 1.931.795 7.71.005 8.937-1.222zM70.83 555.263c2.386-1.744 2.405-7.467.035-10.087-2.376-2.625-6.684-2.542-8.58.165-1.915 2.734-1.908 7.82.014 9.742 1.853 1.853 6.12 1.943 8.531.18zm586.799.127c2.907-2.221 2.993-5.855.215-9.156-2.972-3.532-5.679-3.823-8.748-.939-2.195 2.062-2.968 6.767-1.48 8.997 1.57 2.35 7.52 3.002 10.013 1.098zM61.916 539.73c3.762-3.404.564-11.783-4.497-11.783-2.84 0-7.121 3.522-7.121 5.86 0 2.185 1.705 5.745 3.245 6.773 1.872 1.25 6.582.772 8.373-.85zm604.354.696c6.029-2.293 2.755-12.48-4.01-12.48-5.694 0-8.194 10.679-2.966 12.669 2.208.84 4.427.78 6.976-.19zM53.925 522.983c1.965-1.965 1.355-6.916-1.141-9.26-3.26-3.062-7.13-2.406-9.464 1.604-1.562 2.684-1.654 3.535-.647 5.966 1.066 2.573 1.588 2.836 5.64 2.836 2.457 0 4.982-.516 5.612-1.146zm623.53-1.307c1.796-4.721-1.434-9.956-6.141-9.956-2.98 0-6.292 3.755-6.292 7.134 0 4.11 1.523 5.275 6.896 5.275 4.067 0 4.714-.287 5.538-2.453zm-630.99-17.069c1.704-5.164-.851-9.071-5.951-9.1-5.057-.028-8.034 5.729-5.455 10.548.77 1.439 2.018 1.847 5.653 1.847 4.473 0 4.71-.136 5.752-3.295zm638.562.074c1.968-5.962-1.98-10.326-7.978-8.82-3.04.762-4.656 5.268-3.294 9.177.924 2.648 1.345 2.864 5.604 2.864 4.384 0 4.656-.155 5.668-3.221zM39.59 487.645c1.046-2.19 1.007-3.048-.248-5.475-2.577-4.984-8.395-5.204-11.187-.424-1.43 2.448-1.542 3.474-.658 6.009 1.033 2.963 1.216 3.048 5.96 2.772 4.253-.247 5.056-.624 6.133-2.882zm652.905 0c1.046-2.19 1.007-3.048-.248-5.475-2.577-4.984-8.395-5.204-11.187-.424-1.43 2.448-1.542 3.474-.658 6.009 1.033 2.963 1.216 3.048 5.96 2.772 4.253-.247 5.056-.624 6.133-2.882zM33.101 470.244c1.704-5.164-.85-9.072-5.95-9.1-5.058-.028-8.035 5.728-5.456 10.548.77 1.439 2.018 1.846 5.654 1.846 4.472 0 4.71-.136 5.752-3.294zm665.314 0c1.704-5.164-.85-9.072-5.95-9.1-5.058-.028-8.035 5.728-5.455 10.548.77 1.439 2.018 1.846 5.653 1.846 4.472 0 4.71-.136 5.752-3.294zM26.92 455.036c2.469-1.805 2.469-7.963 0-9.769-4.497-3.288-10.985-.403-10.985 4.885s6.488 8.173 10.985 4.884zm675.116-.166c4.76-3.333 1.595-10.945-4.534-10.908-2.97.018-4.181.788-5.663 3.601-3.155 5.99 4.375 11.386 10.197 7.307zM23.977 434.165c.772-3.125.6-3.88-1.36-5.966-2.48-2.641-4.416-2.945-8.092-1.27-3.034 1.382-3.96 4.683-2.382 8.491 1.138 2.748 1.438 2.877 6.074 2.607 4.766-.278 4.897-.365 5.76-3.862zm684.024 1.603c2.674-7.034-5.008-12.983-10.345-8.01-1.215 1.131-2.09 3.096-2.09 4.694 0 5.1.733 5.768 6.331 5.768 4.675 0 5.261-.235 6.104-2.452zm-687.26-19.13c.996-3.016.905-3.758-.736-5.965-3.858-5.192-11.707-2.774-11.707 3.606 0 5.122.733 5.805 6.233 5.805 4.981 0 5.094-.063 6.21-3.445zm690.065 1.6c2.628-4.911-1.043-11.005-6.264-10.397-3.899.453-6.483 5.164-5.065 9.232.983 2.822 1.34 3.01 5.695 3.01 3.616 0 4.865-.408 5.634-1.845zM17.804 398.727c1.967-5.962-1.98-10.326-7.979-8.82-3.039.762-4.656 5.268-3.293 9.177.923 2.648 1.345 2.864 5.604 2.864 4.384 0 4.656-.155 5.668-3.221zm695.86 0c2.016-6.111-1.987-10.324-8.304-8.739-3.207.805-4.032 2.01-4.051 5.916-.026 5.372.665 6.044 6.218 6.044 4.916 0 5.107-.1 6.136-3.221zm-697.73-16.825c2.212-2.21 2.256-2.538.883-6.48-.732-2.098-1.824-3.12-3.797-3.554-3.071-.674-6.731.174-7.81 1.81-1.402 2.13-.786 8.097.94 9.102 2.8 1.63 7.718 1.19 9.785-.878zm698.008.58c3.917-2.973.657-11.08-4.456-11.08-3.811 0-5.181.957-6.323 4.417-1.58 4.787.662 8.004 5.55 7.962 1.957-.017 4.31-.6 5.229-1.298zM15.969 362.23c.996-3.017.904-3.759-.736-5.966-5.044-6.787-14.739.055-10.72 7.565.77 1.439 2.019 1.846 5.654 1.846 4.512 0 4.702-.113 5.802-3.445zm699.678 0c.995-3.017.904-3.759-.737-5.966-5.044-6.787-14.738.055-10.719 7.565.77 1.439 2.018 1.846 5.654 1.846 4.512 0 4.702-.113 5.802-3.445zM14.933 346.61c4.217-2.257 2.837-9.97-1.972-11.027-3.02-.663-6.68.198-7.75 1.823-1.24 1.883-.777 7.087.77 8.633 1.683 1.684 6.32 1.98 8.952.57zm698.934-.65c3.908-3.538.733-10.846-4.698-10.816-3.432.02-4.675.886-5.903 4.116-.78 2.053-.68 3.299.442 5.469 1.205 2.33 2.047 2.81 4.933 2.81 1.914 0 4.265-.711 5.226-1.58zM17.804 326.181c1.967-5.962-1.98-10.326-7.979-8.82-3.039.762-4.656 5.268-3.293 9.177.923 2.648 1.345 2.864 5.604 2.864 4.384 0 4.656-.155 5.668-3.221zm695.86 0c2.016-6.111-1.987-10.324-8.304-8.739-3.207.805-4.032 2.01-4.051 5.916-.026 5.372.665 6.044 6.218 6.044 4.916 0 5.107-.1 6.136-3.221zm-693.116-18.09c2.647-5.547-1.85-10.375-8.183-8.785-3.21.805-4.033 2.01-4.052 5.925-.02 4.315 2.235 6.195 7.016 5.845 3.237-.237 4.16-.765 5.219-2.984zm689.5 1.595c3.908-3.537.734-10.845-4.697-10.815-3.432.02-4.675.886-5.903 4.115-.78 2.054-.68 3.3.442 5.47 1.205 2.33 2.047 2.81 4.933 2.81 1.914 0 4.265-.712 5.225-1.58zm-686.523-19.76c1.386-4.2-.018-7.992-3.261-8.805-6.125-1.538-10.095 2.766-8.108 8.788 1.013 3.068 1.282 3.22 5.688 3.22 4.4 0 4.675-.155 5.681-3.203zm684.405 0c2.053-6.22-2.424-10.65-8.762-8.671-2.804.875-3.569 2.118-3.586 5.83-.026 5.372.665 6.044 6.217 6.044 4.911 0 5.108-.103 6.131-3.203zM28.37 272.54c1.795-4.721-1.435-9.956-6.142-9.956-2.98 0-6.292 3.756-6.292 7.134 0 4.11 1.523 5.275 6.896 5.275 4.067 0 4.714-.287 5.538-2.453zm674.643 1.307c1.965-1.965 1.355-6.915-1.141-9.26-3.259-3.062-7.13-2.406-9.464 1.604-1.561 2.684-1.654 3.535-.647 5.966 1.066 2.573 1.588 2.836 5.64 2.836 2.457 0 4.982-.516 5.612-1.146zM32.691 255.481c2.04-3.114 1.453-6.136-1.64-8.436-4.438-3.301-10.344-.31-10.344 5.241 0 3.657 2.258 5.456 6.899 5.496 2.738.023 3.909-.507 5.085-2.301zm665.314 0c2.04-3.114 1.453-6.136-1.64-8.436-4.438-3.301-10.343-.31-10.343 5.241 0 3.657 2.257 5.456 6.898 5.496 2.738.023 3.91-.507 5.085-2.301zM39.192 237.503c1.863-2.504 1.885-2.795.41-5.25-4.825-8.027-15.95-2.636-11.664 5.652 1.31 2.533 1.873 2.8 5.373 2.54 2.97-.222 4.383-.928 5.881-2.942zm652.905 0c1.863-2.504 1.885-2.795.41-5.25-4.825-8.027-15.95-2.636-11.664 5.652 1.31 2.533 1.873 2.8 5.373 2.54 2.971-.222 4.384-.928 5.881-2.942zm-645.583-17.5c.996-3.017.904-3.758-.736-5.965-5.044-6.787-14.738.054-10.72 7.564.77 1.44 2.019 1.847 5.654 1.847 4.512 0 4.703-.113 5.802-3.446zm638.587 0c.997-3.02.905-3.756-.745-5.965-2.794-3.743-7.66-3.532-9.976.434-1.422 2.434-1.54 3.485-.676 5.966.982 2.817 1.346 3.01 5.655 3.01 4.443 0 4.645-.12 5.742-3.445zM54.083 205.375c1.712-3.199 1.18-7.456-1.134-9.077-6.025-4.22-12.576.647-10.272 7.63 1.042 3.158 1.28 3.294 5.752 3.294 3.636 0 4.884-.408 5.654-1.847zm623.302-1.357c1.576-4.774.035-7.987-4.21-8.784-4.654-.873-8.153 1.44-8.153 5.39 0 5.175 1.432 6.598 6.64 6.598 4.448 0 4.715-.15 5.723-3.204zm-615.57-14.012c4.388-2.348.592-11.438-4.763-11.406-3.264.02-4.523.923-5.737 4.115-1.625 4.276.925 8.28 5.275 8.28 1.858 0 4.21-.445 5.225-.989zm605.069.059c4.217-2.257 2.837-9.97-1.973-11.027-3.019-.663-6.679.198-7.75 1.824-1.24 1.883-.776 7.086.77 8.632 1.683 1.684 6.32 1.98 8.953.571zM71.372 174.201c1.916-2.31 1.593-8.007-.543-9.568-2.411-1.764-6.678-1.674-8.531.18-1.712 1.711-1.973 6.333-.512 9.062 1.259 2.352 7.722 2.571 9.586.326zm587.042 0c1.597-1.925 1.64-7.646.069-9.218-1.714-1.713-9.54-1.538-10.663.239-1.413 2.234-1.092 7.343.565 9 1.974 1.973 8.385 1.96 10.029-.021zM81.96 158.869c2.508-2.27 2.299-7.47-.376-9.343-6.244-4.374-13.277 1.356-9.835 8.012 1.261 2.437 2.072 2.911 4.986 2.911 1.914 0 4.265-.71 5.225-1.58zm565.41.26c2.1-1.535 2.49-7.54.612-9.418-1.713-1.714-9.54-1.539-10.663.238-1.413 2.235-1.092 7.343.565 9 1.854 1.853 7.063 1.952 9.486.18zM93.326 144.61c1.917-2.309 1.593-8.006-.543-9.568-2.387-1.746-6.237-1.674-8.864.166-2.574 1.803-2.858 6.618-.541 9.177 2 2.21 8.185 2.35 9.948.225zm543.133 0c1.917-2.309 1.594-8.006-.542-9.568-2.388-1.746-6.238-1.674-8.865.166-2.574 1.803-2.858 6.618-.541 9.177 2 2.21 8.185 2.35 9.948.225zm-530.393-15.9c1.96-5.603-2.495-10.426-8.289-8.972-3.193.802-4.82 5.216-3.411 9.257.973 2.791 1.213 2.898 5.898 2.625 4.355-.254 4.982-.568 5.802-2.91zm519.78-.118c2.002-6.067-2.576-10.586-8.769-8.653-2.803.875-3.568 2.118-3.586 5.83-.026 5.372.665 6.044 6.218 6.044 4.916 0 5.107-.1 6.137-3.22zm-507.81-11.989c3.12-5.829-.7-11.354-7.028-10.166-3.472.65-4.392 1.968-4.392 6.285 0 4.95.786 5.727 5.796 5.727 3.607 0 4.856-.41 5.625-1.846zm494.861.336c.319-.83.58-3.203.58-5.273 0-3.224-.375-3.906-2.616-4.758-3.285-1.249-8.472-.336-9.224 1.623-.737 1.919-.731 6.478.01 8.408.826 2.152 10.424 2.152 11.25 0zm-482.254-12.478c5.12-4.634-2.583-13.814-8.456-10.08-2.402 1.527-3.239 5.879-1.703 8.85 1.206 2.33 2.047 2.81 4.933 2.81 1.914 0 4.266-.712 5.226-1.58zm467.624.591c1.96-1.05 2.591-6.858 1.014-9.345-1.325-2.09-8.102-2.55-9.974-.678-1.801 1.8-2.108 6.376-.615 9.165 1.109 2.072 6.418 2.548 9.575.858zM144.585 93.1c4.444-3.112 1.177-11.878-4.427-11.878-5.872 0-9.293 8.657-4.694 11.878 1.167.817 3.22 1.486 4.56 1.486 1.342 0 3.394-.669 4.561-1.486zm439.786.166c2.386-1.744 2.406-7.468.035-10.087-3.824-4.225-11.02-.755-11.02 5.315 0 5.177 6.544 8.02 10.985 4.772zM159.28 81.552c2.508-2.27 2.299-7.47-.376-9.344-6.244-4.373-13.277 1.356-9.835 8.012 1.26 2.438 2.072 2.911 4.986 2.911 1.913 0 4.265-.71 5.225-1.58zm410.242.65c2.23-1.193 3.167-4.952 2-8.021-1.22-3.209-6.657-4.349-10.071-2.112-2.839 1.86-3.248 6.614-.803 9.317 1.716 1.895 6.103 2.299 8.874.816zM175.297 69.428c1.386-4.199-.019-7.991-3.261-8.805-6.125-1.537-10.096 2.766-8.108 8.788 1.013 3.068 1.281 3.22 5.687 3.22 4.402 0 4.676-.154 5.682-3.203zm380.862 0c1.386-4.199-.02-7.991-3.262-8.805-6.125-1.537-10.095 2.766-8.108 8.788 1.013 3.068 1.282 3.22 5.688 3.22 4.4 0 4.676-.154 5.682-3.203zm-365.613-8.857c2.605-3.312 2.5-4.507-.707-8.096-2.602-2.913-2.792-2.967-6.161-1.748-4.655 1.683-6.22 5.28-4.09 9.397 1.315 2.545 2.055 2.962 5.255 2.962 2.887 0 4.17-.566 5.703-2.515zm348.962 1.195c2.1-1.535 2.49-7.54.612-9.419-1.713-1.713-9.54-1.538-10.663.24-1.413 2.233-1.092 7.342.565 8.999 1.854 1.853 7.063 1.952 9.486.18zm-333.457-8.85c3.974-3.597.723-10.83-4.868-10.83-5.122 0-7.796 4.753-5.342 9.498 1.26 2.438 2.071 2.911 4.985 2.911 1.914 0 4.265-.71 5.225-1.58zm317.773.058c1.942-2.34 1.59-8.003-.6-9.64-2.203-1.65-8.873-1.103-10.097.827-1.324 2.089-.935 7.23.668 8.834 1.973 1.973 8.385 1.96 10.029-.02zm-301.466-7.308c2.907-2.221 2.993-5.855.215-9.156-2.972-3.533-5.679-3.823-8.749-.94-2.194 2.063-2.968 6.768-1.478 8.998 1.569 2.35 7.52 3.002 10.012 1.098zm283.67.262c5.404-2.054 1.776-12.433-4.345-12.433-3.252 0-5.615 3.073-5.615 7.304 0 5.31 4.029 7.384 9.96 5.129zM239.46 37.643c3.908-3.537.734-10.845-4.697-10.815-3.432.02-4.675.886-5.903 4.115-.781 2.054-.68 3.3.442 5.47 1.205 2.33 2.047 2.81 4.933 2.81 1.914 0 4.265-.711 5.225-1.58zm249.88.65c4.216-2.257 2.836-9.97-1.973-11.026-3.02-.664-6.68.198-7.75 1.823-1.24 1.883-.777 7.087.77 8.633 1.683 1.683 6.32 1.979 8.952.57zm-232.8-5.786c1.405-.751 1.847-2.013 1.847-5.273 0-3.793-.301-4.4-2.615-5.28-3.285-1.25-8.473-.336-9.225 1.623-1.047 2.728-.585 6.902.93 8.418 1.712 1.712 6.334 1.973 9.063.512zm216.902-2.053c1.686-2.267 1.765-2.907.68-5.525-1.675-4.045-4.062-5.183-8.085-3.855-4.324 1.427-5.767 6.05-3.317 10.627 1.565 2.924 8.194 2.153 10.722-1.247zm-199.297-3.051c2.681-1.961 2.447-7.952-.4-10.258-2.869-2.322-5.893-2.265-8.497.16-2.086 1.944-2.828 6.926-1.358 9.127 1.62 2.426 7.503 2.983 10.255.97zm180.239.123c.9-.658 1.887-2.745 2.195-4.639.453-2.796.146-3.827-1.634-5.485-2.474-2.305-4.468-2.54-7.973-.944-5.837 2.66-3.36 12.265 3.163 12.265 1.437 0 3.35-.539 4.249-1.197zm-162.526-4.564c1.405-.752 1.847-2.014 1.847-5.274 0-3.722-.322-4.408-2.449-5.216-5.842-2.221-9.96-.184-9.96 4.927 0 4.663 1.54 6.55 5.346 6.55 1.853 0 4.2-.444 5.216-.987zm145.513-.332c2.1-1.535 2.49-7.54.612-9.419-1.713-1.713-9.54-1.538-10.663.239-1.412 2.234-1.091 7.343.566 9 1.853 1.853 7.062 1.952 9.485.18zM309.72 19.6c2.948-2.064 2.865-7.028-.165-9.875-3.24-3.044-7.131-2.404-9.432 1.551-3.907 6.716 3.152 12.839 9.597 8.324zm110.332-.388c1.89-1.89 1.15-7.786-1.217-9.703-4.622-3.743-10.598-.84-10.57 5.134.016 3.464.733 4.921 2.849 5.791 1.932.795 7.711.004 8.938-1.222zm-91.82-2.57c3.818-3.454.861-10.84-4.33-10.814-3.553.018-4.705.682-6.243 3.601-3.173 6.024 5.415 11.883 10.574 7.214zm73.684-.294c1.378-1.378 1.239-7.421-.204-8.864-1.714-1.713-9.54-1.538-10.664.239-1.073 1.698-1.198 6.72-.203 8.209.385.577 1.345 1.315 2.133 1.639 1.932.794 7.711.004 8.938-1.223zm-56.25-.01c2.124-.808 2.448-1.497 2.448-5.197 0-3.325-.467-4.592-2.121-5.75-5.028-3.522-10.288-.548-10.288 5.817 0 5.31 4.03 7.384 9.96 5.13zm36.272 0c2.124-.808 2.449-1.497 2.449-5.197 0-4.678-2.268-7.236-6.417-7.236-4.44 0-7.856 7.187-5.262 11.072 1.48 2.216 5.443 2.8 9.23 1.36zm-17.433-1.604c2.65-2.398 2.303-7.557-.636-9.483-2.829-1.853-8.575-1.158-9.458 1.144-1.047 2.728-.585 6.903.93 8.419 1.963 1.962 6.956 1.918 9.164-.08z"/></svg>